<svg width="22" height="22" viewBox="0 0 22 22" fill="none" xmlns="http://www.w3.org/2000/svg">
    <path fill-rule="evenodd" clip-rule="evenodd"
          d="M14.2679 1.48371C14.0752 1.49955 13.8943 1.58433 13.7576 1.72291L4.7516 10.8523C4.43343 11.1748 4.43343 11.6977 4.7516 12.0203L5.51975 12.7989C5.62581 12.9064 5.79776 12.9064 5.90382 12.7989L7.15202 11.5336C7.41716 11.2649 7.84705 11.2649 8.1122 11.5336C8.37735 11.8024 8.37735 12.2382 8.1122 12.507L6.86401 13.7723C6.75795 13.8798 6.75795 14.0541 6.86401 14.1616L8.01623 15.3296C8.12229 15.4371 8.29424 15.4371 8.4003 15.3296L8.88035 14.843C9.1455 14.5742 9.57538 14.5742 9.84053 14.843C10.1057 15.1117 10.1057 15.5475 9.84053 15.8163L9.36049 16.3029C9.25443 16.4104 9.25443 16.5847 9.36049 16.6923L10.1286 17.4709C10.4468 17.7935 10.9627 17.7935 11.2809 17.4709L20.2869 8.34158C20.4236 8.203 20.5072 8.01966 20.5228 7.82433L20.9973 1.89271C21.0379 1.38514 20.6201 0.961613 20.1193 1.00277L14.2679 1.48371ZM13.7773 8.32158C14.5197 9.07416 15.7234 9.07416 16.4658 8.32158C17.2083 7.569 17.2083 6.34883 16.4658 5.59625C15.7234 4.84367 14.5197 4.84367 13.7773 5.59625C13.0349 6.34883 13.0349 7.569 13.7773 8.32158Z"
          fill="#5D3800"/>
    <path d="M3.88738 14.843C4.15252 14.5742 4.58241 14.5742 4.84756 14.843C5.11271 15.1118 5.11271 15.5475 4.84756 15.8163L2.15904 18.5417C1.8939 18.8104 1.46401 18.8104 1.19886 18.5417C0.933713 18.2729 0.933713 17.8371 1.19886 17.5683L3.88738 14.843Z"
          fill="#5D3800"/>
    <path d="M6.95997 16.7897C7.22511 16.5209 7.655 16.5209 7.92015 16.7897C8.1853 17.0584 8.1853 17.4942 7.92015 17.763L5.23163 20.4883C4.96649 20.7571 4.5366 20.7571 4.27145 20.4883C4.0063 20.2195 4.0063 19.7838 4.27145 19.515L6.95997 16.7897Z"
          fill="#5D3800"/>
    <path d="M3.24725 7.31586C2.09828 8.48057 0.512304 12.0057 1.67895 13.1883L7.44006 7.34831C6.27341 6.16568 4.39623 6.15116 3.24725 7.31586Z"
          fill="#5D3800"/>
    <path d="M14.7695 18.9959C13.6205 20.1606 10.143 21.7683 8.97635 20.5857L14.7375 14.7456C15.9041 15.9283 15.9184 17.8312 14.7695 18.9959Z"
          fill="#5D3800"/>
</svg>
