<svg width="48" height="49" viewBox="0 0 48 49" fill="none" xmlns="http://www.w3.org/2000/svg">
<g clip-path="url(#clip0_2353_2)">
<path d="M46.9093 24.3728C46.9093 11.3867 36.5997 0.859375 23.8821 0.859375C11.1644 0.859375 0.854736 11.3867 0.854736 24.3728V25.7227C0.854736 38.7088 11.1644 49.2362 23.8821 49.2362C36.5997 49.2362 46.9093 38.7088 46.9093 25.7227V24.3728Z" fill="#B25D00"/>
<path d="M23.8756 42.9242C34.1554 42.9242 42.4889 34.6934 42.4889 24.5402C42.4889 14.387 34.1554 6.15625 23.8756 6.15625C13.5958 6.15625 5.26233 14.387 5.26233 24.5402C5.26233 34.6934 13.5958 42.9242 23.8756 42.9242Z" fill="url(#paint0_linear_2353_2)"/>
<path d="M16.0426 34.6066C16.0426 24.4247 24.4047 16.1583 34.7188 16.1583C45.0329 16.1583 41.0156 16.9811 43.6854 18.421C40.6126 12.4044 34.2906 8.29053 27.0115 8.29053C16.6974 8.29053 8.33533 16.544 8.33533 26.7388C8.33533 36.9335 12.2645 39.7875 18.0449 42.9243C16.7604 40.4303 16.0426 37.602 16.0426 34.6066Z" fill="url(#paint1_linear_2353_2)"/>
<path d="M8.54947 27.2012C8.54947 17.0451 16.8864 8.81728 27.1627 8.81728C37.4391 8.81728 35.9656 10.4628 39.2148 13.2012C35.8019 8.97156 30.5504 6.24609 24.644 6.24609C14.3677 6.24609 6.03076 14.4739 6.03076 24.63C6.03076 34.7862 8.57464 35.2619 12.592 38.6302C10.0607 35.4933 8.54947 31.5208 8.54947 27.2012Z" fill="#B25D00"/>
<path d="M23.8757 0.936523C11.1563 0.936523 0.842163 11.1184 0.842163 23.6787C0.842163 36.2389 11.1563 46.4207 23.8757 46.4207C36.5952 46.4207 46.9093 36.2389 46.9093 23.6787C46.9093 11.1184 36.5952 0.936523 23.8757 0.936523ZM23.8757 40.7513C14.3298 40.7513 6.59741 33.1149 6.59741 23.6787C6.59741 14.2424 14.3298 6.60599 23.8757 6.60599C33.4217 6.60599 41.1541 14.2424 41.1541 23.6787C41.1541 33.1149 33.4217 40.7513 23.8757 40.7513Z" fill="url(#paint2_linear_2353_2)"/>
<path d="M22.4023 6.68314L27.7168 1.25792C26.47 1.05223 25.1855 0.936523 23.8757 0.936523C22.566 0.936523 21.3822 1.03938 20.1858 1.23222L1.03107 20.7861C0.905131 21.7374 0.842163 22.7016 0.842163 23.6915C0.842163 25.2471 1.00586 26.7512 1.29551 28.2168L6.60998 22.7916C7.06335 14.2681 13.8387 7.40307 22.3897 6.68314H22.4023Z" fill="#FFCE80"/>
<path d="M27.427 6.97837C27.8678 7.06836 28.296 7.17121 28.7241 7.29977L33.0941 2.83877C32.7163 2.67164 32.3259 2.51739 31.9481 2.37598L27.4396 6.97837H27.427Z" fill="#FFE589"/>
<path d="M3.0837 33.4748L7.45368 29.0138C7.31515 28.6024 7.1892 28.1782 7.08845 27.7539L2.57996 32.3563C2.74367 32.742 2.90739 33.1148 3.0837 33.4748Z" fill="#FFCE80"/>
<path d="M25.7522 40.6479C25.1981 40.7122 24.6314 40.7379 24.0521 40.7508L18.9895 45.9189C19.4429 46.0089 19.8962 46.0988 20.3496 46.1631L25.7522 40.6479Z" fill="#FFDD71"/>
<path d="M46.5063 19.4615C46.4181 19.0116 46.3174 18.5616 46.2041 18.1245L41.1415 23.2926C41.1415 23.4211 41.1415 23.5497 41.1415 23.6911C41.1415 24.1282 41.1288 24.5524 41.0911 24.9767L46.4937 19.4615H46.5063Z" fill="#FFEF8F"/>
<path d="M32.9054 9.1261C34.1899 9.91031 35.3737 10.8488 36.4064 11.9287L40.4112 7.84051C39.3659 6.77347 38.2199 5.80927 36.9857 4.97363L32.918 9.1261H32.9054Z" fill="#FFE686"/>
<path d="M9.44355 33.0763L5.37585 37.2288C6.27 38.4244 7.27748 39.53 8.39831 40.5199L12.403 36.4317C11.2822 35.4418 10.2873 34.3105 9.45615 33.0635L9.44355 33.0763Z" fill="#FFC670"/>
<path d="M40.9149 8.37988L36.9102 12.4681C38.837 14.6407 40.2097 17.3019 40.8142 20.233L45.3982 15.5535C44.3655 12.8795 42.8291 10.4497 40.9149 8.37988Z" fill="#FFEB75"/>
<path d="M20.9414 40.5074C17.9442 40.006 15.2114 38.7333 12.9571 36.9077L8.95239 40.9959C11.1185 42.8214 13.6246 44.2485 16.3574 45.1869L20.9414 40.5074Z" fill="#FFD370"/>
<path d="M34.6306 20.4519C34.2906 19.4619 33.9254 18.0864 32.6912 18.0221C30.5629 18.0992 30.7266 20.0662 31.5704 21.5189C29.5932 26.0313 25.8529 25.5428 24.9335 20.7218C26.5077 20.0148 26.7848 18.9091 26.1803 17.5593C25.8655 16.5822 25.2106 15.5409 24.1024 15.5152C22.44 15.3995 21.3822 17.3407 22.2511 18.742C22.503 19.3462 22.7297 20.0405 23.2838 20.3876C22.3897 24.4886 19.1657 26.6227 16.7352 22.1874C17.9064 21.3389 17.4656 20.1562 16.9241 19.0763C16.307 17.3664 13.7379 17.8935 13.7757 19.6805C13.9772 20.6833 14.3424 21.9946 15.4254 22.3417C15.8788 24.7843 16.3448 27.2269 16.7981 29.6695C16.7981 29.6695 16.8107 29.6695 16.8233 29.6695C16.8233 29.6952 16.8233 29.7338 16.8359 29.7596C16.8359 29.7596 16.8485 29.7596 16.8611 29.7596C16.8611 29.7853 16.8611 29.8238 16.8737 29.8495C16.8737 29.8495 16.8863 29.8495 16.8989 29.8495C16.8989 29.8752 16.8989 29.9138 16.9115 29.9395C16.9115 29.9395 16.924 29.9395 16.9366 29.9395C16.9366 29.9652 16.9367 30.0038 16.9492 30.0295C16.9492 30.0295 16.9618 30.0295 16.9744 30.0295C16.9744 30.0552 16.9744 30.0938 16.987 30.1195C16.987 30.1195 16.9996 30.1195 17.0122 30.1195C17.0122 30.1452 17.0122 30.1838 17.0248 30.2095C17.0248 30.2095 17.0374 30.2095 17.05 30.2095C17.05 30.2352 17.05 30.2738 17.0626 30.2995C17.0626 30.2995 17.0752 30.2995 17.0878 30.2995C17.0878 30.3252 17.0878 30.3638 17.1004 30.3895C17.1004 30.3895 17.113 30.3895 17.1255 30.3895C17.1255 30.4152 17.1256 30.4538 17.1382 30.4795C17.1382 30.4795 17.1507 30.4795 17.1633 30.4795C17.1633 30.5052 17.1633 30.5309 17.1759 30.5437C16.2062 30.7623 16.0173 31.9065 16.5211 32.6907C16.7855 33.4106 17.0878 34.1306 18.0197 34.092C22.3771 34.092 26.747 34.1048 31.1044 34.092C32.8675 33.8092 32.0615 31.6365 31.2555 30.7752C31.4318 30.7752 31.6585 30.8137 31.6711 30.5694C32.1748 27.8954 32.6786 25.2343 33.1697 22.5602C33.1949 22.4317 33.2453 22.3931 33.3586 22.3674C34.1898 22.2131 34.8195 21.2746 34.618 20.439L34.6306 20.4519Z" fill="#B25D00"/>
<path d="M34.1648 19.8218C34.064 20.1947 33.9255 20.5546 33.6232 20.8117C33.3966 21.0046 33.1573 21.146 32.8676 21.1974C32.7543 21.2231 32.7039 21.2617 32.6787 21.3903C32.175 24.0643 31.6712 26.7255 31.1801 29.3995C31.1549 29.5409 31.1045 29.6052 30.9534 29.6052C26.2812 29.6052 21.609 29.6052 16.9368 29.6052C16.8864 29.6052 16.836 29.6052 16.7605 29.6052C16.6723 29.1295 16.5842 28.641 16.4834 28.1653C16.0553 25.9155 15.6271 23.6529 15.2115 21.4031C15.1863 21.2874 15.1359 21.2488 15.0352 21.2231C14.267 21.056 13.738 20.3875 13.738 19.6161C13.738 18.8319 14.2922 18.1377 15.0352 17.9834C15.7656 17.8163 16.5212 18.2148 16.8612 18.9348C17.1761 19.629 16.9746 20.4775 16.3449 20.9274C16.1938 21.0303 16.2064 21.1074 16.2694 21.2488C16.6598 22.1359 17.1509 22.9715 17.8435 23.6529C18.171 23.9743 18.5362 24.2571 18.9518 24.4243C19.8585 24.7971 20.6519 24.5785 21.3697 23.9357C21.7979 23.5501 22.1128 23.0872 22.3772 22.5859C22.8936 21.6345 23.1958 20.606 23.4351 19.5261C22.7676 19.3076 22.2765 18.8833 22.0246 18.202C21.8609 17.7649 21.8609 17.3149 21.9994 16.865C22.2765 15.9779 23.1328 15.3866 24.0647 15.4251C24.9211 15.4637 25.7397 16.1579 25.9286 17.0321C26.0419 17.5721 25.9664 18.0992 25.6893 18.5748C25.4374 18.9862 25.3241 19.0762 24.4426 19.539C24.5811 20.0275 24.707 20.5418 24.8707 21.0303C25.1856 21.9945 25.5886 22.9073 26.2812 23.6786C26.8227 24.2828 27.465 24.6557 28.2962 24.5785C28.737 24.54 29.1274 24.36 29.4926 24.1029C30.563 23.3315 31.1927 22.2259 31.709 21.0431C31.5579 20.9017 31.4068 20.7732 31.2809 20.6318C30.8653 20.1432 30.7897 19.4104 31.0793 18.8448C31.4068 18.2148 31.9987 17.8806 32.6535 17.932C33.3714 17.9834 34.001 18.5491 34.127 19.2819C34.127 19.3076 34.1522 19.3462 34.1648 19.3719V19.8218Z" fill="url(#paint3_linear_2353_2)"/>
<path d="M23.9639 30.4277C26.0922 30.4277 28.2331 30.4277 30.3614 30.4277C30.8777 30.4277 31.2933 30.5948 31.5452 31.0577C31.9859 31.8419 31.4948 32.8189 30.6133 32.9218C30.5377 32.9218 30.4495 32.9218 30.374 32.9218C26.0922 32.9218 21.8104 32.9218 17.5286 32.9218C16.8737 32.9218 16.4077 32.6004 16.244 32.009C16.0299 31.2634 16.5462 30.492 17.3145 30.4277C17.4152 30.4277 17.5285 30.4277 17.6293 30.4277C19.7324 30.4277 21.8482 30.4277 23.9513 30.4277H23.9639Z" fill="url(#paint4_linear_2353_2)"/>
<path d="M16.3701 18.2663L14.0907 20.5932C14.3174 20.8889 14.6574 21.1074 15.0478 21.1974C15.0604 21.1974 15.073 21.1974 15.0856 21.1974L16.9746 19.269C16.9494 19.1405 16.9117 19.0248 16.8613 18.8962C16.7479 18.6391 16.5716 18.4205 16.3575 18.2534L16.3701 18.2663Z" fill="#FFE589"/>
<path d="M24.4551 19.5389C25.3366 19.0632 25.45 18.9861 25.7018 18.5747C25.9915 18.099 26.067 17.5719 25.9411 17.032C25.9033 16.8263 25.8152 16.6463 25.7144 16.4663L22.9313 19.3075C23.0824 19.3975 23.2587 19.4746 23.435 19.526C23.1957 20.6059 22.8809 21.6344 22.3771 22.5857C22.1127 23.0871 21.7978 23.5628 21.3697 23.9356C20.6518 24.5784 19.8584 24.7841 18.9517 24.4241C18.7124 24.3213 18.4983 24.1927 18.2968 24.0385L16.1307 26.2497C16.2441 26.8796 16.37 27.5224 16.4834 28.1524C16.5715 28.628 16.6597 29.1037 16.7604 29.5922C16.8234 29.5922 16.8863 29.5922 16.9367 29.5922C17.6545 29.5922 18.3724 29.5922 19.1028 29.5922L25.6892 22.8686C25.3366 22.3029 25.0848 21.673 24.8833 21.0302C24.7195 20.5416 24.5936 20.0274 24.4551 19.5389Z" fill="#FFE686"/>
<path d="M30.9659 29.5922C31.1171 29.5922 31.1675 29.5408 31.1926 29.3865C31.6964 26.7125 32.2001 24.0513 32.6913 21.3773C32.7164 21.2487 32.7668 21.2102 32.8802 21.1845C33.1698 21.133 33.4091 20.9916 33.6358 20.7988C33.938 20.5288 34.0766 20.1817 34.1773 19.8089V19.3589C34.1773 19.3332 34.1521 19.2947 34.1395 19.2689C34.0136 18.5362 33.3839 17.9705 32.6661 17.9191C32.0112 17.8677 31.4067 18.2148 31.0919 18.8319C30.8022 19.3975 30.8778 20.1303 31.2934 20.6188C31.4193 20.7602 31.5704 20.8888 31.7216 21.0302C31.2178 22.2129 30.5881 23.3186 29.5051 24.0899C29.1525 24.347 28.7495 24.527 28.3087 24.5656C27.4775 24.6427 26.8353 24.2699 26.2937 23.6657C26.2308 23.6014 26.1804 23.5371 26.13 23.46L20.1355 29.5794C23.7498 29.5794 27.3642 29.5794 30.9659 29.5794V29.5922Z" fill="#FFEB75"/>
<path d="M17.642 30.4279C17.5412 30.4279 17.4279 30.4279 17.3271 30.4279C16.5715 30.4793 16.0426 31.2635 16.2567 32.0092C16.2945 32.1378 16.3448 32.2406 16.4078 32.3434L18.2968 30.415C18.0827 30.415 17.8687 30.415 17.6546 30.415L17.642 30.4279Z" fill="#FFED83"/>
<path d="M30.3613 30.4279C28.233 30.4279 26.0921 30.4279 23.9638 30.4279C22.4148 30.4279 20.8658 30.4279 19.3042 30.4279L16.9618 32.8191C17.1255 32.8834 17.327 32.9219 17.5411 32.9219C21.1554 32.9219 24.7698 32.9219 28.3715 32.9219L30.7769 30.4665C30.651 30.4408 30.5124 30.415 30.3613 30.415V30.4279Z" fill="#FFEB75"/>
</g>
<defs>
<linearGradient id="paint0_linear_2353_2" x1="5.26233" y1="24.5402" x2="42.4889" y2="24.5402" gradientUnits="userSpaceOnUse">
<stop stop-color="#FF8200"/>
<stop offset="1" stop-color="#FFC800"/>
</linearGradient>
<linearGradient id="paint1_linear_2353_2" x1="8.32273" y1="25.6074" x2="43.6728" y2="25.6074" gradientUnits="userSpaceOnUse">
<stop stop-color="#FFA03D"/>
<stop offset="1" stop-color="#FFDD63"/>
</linearGradient>
<linearGradient id="paint2_linear_2353_2" x1="0.854757" y1="23.6915" x2="46.9093" y2="23.6915" gradientUnits="userSpaceOnUse">
<stop stop-color="#FFA531"/>
<stop offset="1" stop-color="#FFE531"/>
</linearGradient>
<linearGradient id="paint3_linear_2353_2" x1="13.7506" y1="22.5087" x2="34.1648" y2="22.5087" gradientUnits="userSpaceOnUse">
<stop stop-color="#FFCC31"/>
<stop offset="1" stop-color="#FFFF31"/>
</linearGradient>
<linearGradient id="paint4_linear_2353_2" x1="16.2062" y1="31.6748" x2="31.7089" y2="31.6748" gradientUnits="userSpaceOnUse">
<stop stop-color="#FFCC31"/>
<stop offset="1" stop-color="#FFFF31"/>
</linearGradient>
<clipPath id="clip0_2353_2">
<rect width="48" height="49" fill="white"/>
</clipPath>
</defs>
</svg>
