<svg width="23" height="25" viewBox="0 0 23 25" fill="none" xmlns="http://www.w3.org/2000/svg">
    <path d="M0.774193 10.1291C0.774193 8.16496 2.3749 6.57268 4.34946 6.57268H12.6918C14.6663 6.57268 16.267 8.16496 16.267 10.1291V20.7985C16.267 22.7627 14.6663 24.3549 12.6918 24.3549H4.34946C2.37489 24.3549 0.774193 22.7627 0.774193 20.7985V10.1291Z"
          fill="#5D3800"/>
    <path d="M10.3082 3.01623H18.6505C19.3087 3.01623 19.8423 3.54699 19.8423 4.20171V14.8711C19.8423 15.5258 19.3087 16.0566 18.6505 16.0566H17.4588V18.4275H18.6505C20.6251 18.4275 22.2258 16.8352 22.2258 14.8711V4.20171C22.2258 2.23754 20.6251 0.645264 18.6505 0.645264H10.3082C8.33368 0.645264 6.73297 2.23754 6.73297 4.20171V5.3872H9.11649V4.20171C9.11649 3.54699 9.65005 3.01623 10.3082 3.01623Z"
          fill="#5D3800"/>
</svg>
