<svg width="375" height="235" viewBox="0 0 375 235" fill="none" xmlns="http://www.w3.org/2000/svg">
<g clip-path="url(#clip0_2359_398)">
<path d="M303.845 -35.7031C303.492 -34.8465 302.835 -34.0374 302.027 -33.5139C301.219 -32.9429 300.26 -32.6574 299.3 -32.5146C298.341 -32.3719 297.331 -32.4195 296.372 -32.6574C295.412 -32.943 294.503 -33.3713 293.746 -33.9423C292.584 -34.7989 291.675 -35.7983 290.867 -36.8928C290.867 -32.1815 290.867 -27.5178 290.766 -22.8541C290.665 -18.1904 290.615 -13.4791 290.514 -8.81538C290.261 0.559616 289.958 9.88703 289.352 19.262H287.131C286.525 9.88703 286.171 0.559616 285.969 -8.81538C285.818 -13.4791 285.767 -18.1904 285.717 -22.8541C285.666 -27.5178 285.666 -32.2291 285.616 -36.8928V-50.9315L285.717 -56.9753C284.858 -56.1187 283.848 -55.3573 282.687 -54.8338C281.525 -54.2627 280.212 -53.9296 278.95 -53.7868C278.293 -53.7393 277.688 -53.6917 277.031 -53.6917C276.375 -53.6917 275.668 -53.7868 275.011 -53.9771C273.698 -54.3579 272.537 -55.0717 271.628 -55.9283C270.719 -56.8325 270.012 -57.9271 269.608 -59.0692C269.204 -60.2114 269.052 -61.4963 269.254 -62.7336C269.456 -63.9709 270.012 -65.1606 270.87 -66.1599C271.729 -67.1117 272.89 -67.8255 274.052 -68.2538C274.658 -68.4917 275.264 -68.6346 275.87 -68.7773C276.476 -68.8725 277.132 -68.9676 277.789 -68.9676C278.445 -68.9676 279.152 -68.8725 279.859 -68.6345C280.566 -68.3966 281.222 -68.0159 281.727 -67.4448C282.232 -66.9213 282.636 -66.3027 282.838 -65.6364C283.091 -64.9702 283.192 -64.304 283.192 -63.6377C283.192 -62.3052 282.788 -60.9252 281.576 -59.7354C280.97 -59.1644 280.111 -58.7361 279.152 -58.6409C278.243 -58.5457 277.384 -58.736 276.627 -58.974H276.526C276.425 -59.0692 276.324 -59.1168 276.223 -59.1644C275.415 -59.6403 275.163 -60.6873 275.718 -61.4487C276.223 -62.2101 277.334 -62.4481 278.142 -61.9246C278.445 -61.7342 278.748 -61.639 278.95 -61.639C279.152 -61.639 279.354 -61.639 279.606 -61.8293C280.111 -62.1624 280.515 -62.9239 280.616 -63.7329C280.717 -64.5419 280.515 -65.3986 280.01 -65.9696C279.556 -66.5407 278.748 -66.8738 277.789 -66.8738C277.334 -66.8738 276.829 -66.8738 276.324 -66.7786C275.819 -66.6834 275.314 -66.5406 274.86 -66.3979C273.9 -66.0648 273.092 -65.5413 272.436 -64.8751C271.173 -63.5426 270.921 -61.4962 271.678 -59.7354C272.032 -58.8788 272.587 -58.0698 273.294 -57.4512C274.001 -56.8325 274.86 -56.4042 275.718 -56.1663C276.173 -56.0711 276.627 -56.0235 277.081 -56.0235C277.586 -56.0235 278.091 -56.0711 278.596 -56.1663C279.606 -56.3566 280.515 -56.6422 281.323 -57.1181C282.131 -57.5939 282.889 -58.2126 283.495 -58.9265C284.101 -59.6403 284.606 -60.4969 284.959 -61.4011C285.313 -62.2577 285.616 -63.1143 285.818 -64.0661C285.818 -64.3516 285.818 -64.637 285.818 -64.9226C286.02 -74.2976 286.323 -83.625 286.878 -93H289.554C290.16 -83.625 290.463 -74.2976 290.615 -64.9226C290.665 -62.5907 290.716 -60.2589 290.716 -57.927L290.817 -50.9315V-44.4594C290.968 -44.2214 291.019 -43.9835 291.019 -43.7455C291.019 -43.4124 291.12 -42.9842 291.17 -42.6035C291.221 -42.2228 291.322 -41.7945 291.423 -41.4137C291.625 -40.6523 291.877 -39.8433 292.18 -39.1295C292.483 -38.368 292.837 -37.6542 293.291 -36.988C293.695 -36.3217 294.2 -35.703 294.806 -35.1796C295.412 -34.6561 296.068 -34.1803 296.775 -33.9423C297.533 -33.6568 298.29 -33.5616 299.098 -33.6567C299.906 -33.7519 300.714 -33.9423 301.371 -34.3706C302.027 -34.7989 302.532 -35.37 302.785 -36.0838C303.34 -37.5115 302.987 -39.177 302.078 -40.4143C301.623 -41.033 301.017 -41.5089 300.361 -41.7945C299.704 -42.08 298.947 -42.1752 298.24 -42.0324C297.533 -41.8897 296.877 -41.6041 296.473 -41.1758C296.069 -40.7475 295.968 -40.1765 296.069 -39.653C296.17 -39.1295 296.523 -38.6536 296.927 -38.4633C297.331 -38.2729 297.785 -38.2729 298.29 -38.4633C298.442 -38.5108 298.593 -38.5584 298.795 -38.5584C299.755 -38.6536 300.613 -37.9873 300.714 -37.0831C300.815 -36.1789 300.108 -35.37 299.149 -35.2748H298.998C298.392 -35.2272 297.735 -35.2272 297.078 -35.37C296.422 -35.5127 295.765 -35.8459 295.261 -36.2266C294.251 -37.0832 293.695 -38.2253 293.695 -39.3674C293.695 -39.9385 293.796 -40.5095 293.998 -41.033C294.2 -41.5565 294.604 -42.0324 295.008 -42.4132C295.866 -43.2222 296.977 -43.5552 298.038 -43.6504C299.098 -43.7456 300.209 -43.5552 301.118 -43.0317C302.027 -42.5558 302.734 -41.7945 303.239 -40.9855C303.744 -40.1765 304.047 -39.2723 304.148 -38.3681C304.249 -37.4639 304.148 -36.5121 303.795 -35.6079L303.845 -35.7031Z" fill="url(#paint0_linear_2359_398)"/>
<path d="M103.118 -37.987C102.765 -38.8436 102.108 -39.6526 101.3 -40.1761C100.492 -40.7471 99.5327 -41.0327 98.5733 -41.1755C97.6138 -41.3182 96.604 -41.2706 95.6445 -41.0327C94.6851 -40.7471 93.776 -40.3189 93.0185 -39.7478C91.8571 -38.8912 90.9483 -37.8919 90.1403 -36.7973C90.1403 -41.5086 90.1402 -46.1723 90.0392 -50.836C89.9382 -55.4997 89.8878 -60.211 89.7868 -64.8747C89.5343 -74.2497 89.2314 -83.5771 88.6254 -92.9521H86.4036C85.7976 -83.5771 85.444 -74.2497 85.242 -64.8747C85.0905 -60.211 85.04 -55.4997 84.9895 -50.836C84.939 -46.1723 84.9392 -41.461 84.8887 -36.7973V-22.7586L84.9895 -16.7149C84.131 -17.5715 83.1211 -18.3329 81.9597 -18.8564C80.7982 -19.4274 79.4853 -19.7605 78.2229 -19.9033C77.5664 -19.9509 76.9606 -19.9984 76.3041 -19.9984C75.6476 -19.9984 74.9407 -19.9032 74.2842 -19.7129C72.9713 -19.3321 71.8097 -18.6184 70.9008 -17.7618C69.9918 -16.8576 69.2849 -15.763 68.8809 -14.6209C68.4769 -13.4787 68.3253 -12.1939 68.5273 -10.9566C68.7293 -9.71925 69.2849 -8.52955 70.1433 -7.53019C71.0018 -6.57841 72.1631 -5.86451 73.3245 -5.43621C73.9305 -5.19827 74.5365 -5.05556 75.1425 -4.9128C75.7485 -4.81762 76.4051 -4.72237 77.0616 -4.72237C77.718 -4.72237 78.4248 -4.81764 79.1318 -5.05559C79.8387 -5.29353 80.4953 -5.67425 81.0003 -6.24531C81.5052 -6.76879 81.9093 -7.38735 82.1113 -8.0536C82.3638 -8.71983 82.4646 -9.38618 82.4646 -10.0524C82.4646 -11.3849 82.0608 -12.765 80.8489 -13.9547C80.2429 -14.5257 79.3843 -14.9541 78.4248 -15.0492C77.5159 -15.1444 76.6574 -14.954 75.9 -14.716H75.7991C75.6981 -14.6208 75.5971 -14.5733 75.4961 -14.5257C74.6881 -14.0498 74.4356 -13.0029 74.9911 -12.2414C75.4961 -11.48 76.6069 -11.2421 77.4149 -11.7655C77.7179 -11.9559 78.0209 -12.0511 78.2229 -12.0511C78.4249 -12.0511 78.6268 -12.0511 78.8793 -11.8607C79.3842 -11.5276 79.7882 -10.7662 79.8892 -9.95715C79.9902 -9.14814 79.7884 -8.29156 79.2834 -7.7205C78.8289 -7.14943 78.021 -6.81635 77.0616 -6.81635C76.6071 -6.81635 76.1019 -6.81633 75.5969 -6.91151C75.092 -7.00668 74.587 -7.14948 74.1326 -7.29224C73.1731 -7.62537 72.3652 -8.14882 71.7088 -8.81506C70.4463 -10.1475 70.1939 -12.1939 70.9513 -13.9547C71.3048 -14.8113 71.8601 -15.6203 72.5671 -16.239C73.274 -16.8576 74.1327 -17.2859 74.9911 -17.5238C75.4456 -17.619 75.8999 -17.6666 76.3544 -17.6666C76.8594 -17.6666 77.3643 -17.619 77.8693 -17.5238C78.8793 -17.3335 79.7884 -17.048 80.5964 -16.5721C81.4043 -16.0962 82.1617 -15.4775 82.7677 -14.7637C83.3736 -14.0498 83.8786 -13.1933 84.232 -12.2891C84.5855 -11.4325 84.8886 -10.5758 85.0906 -9.62405C85.0906 -9.33852 85.0906 -9.05296 85.0906 -8.76743C85.2926 0.607574 85.5956 9.93499 86.1511 19.31H88.8274C89.4333 9.93499 89.7364 0.607574 89.8879 -8.76743C89.9383 -11.0993 89.9887 -13.4312 89.9887 -15.7631L90.0898 -22.7586V-29.2306C90.2413 -29.4686 90.2917 -29.7065 90.2917 -29.9445C90.2917 -30.2776 90.3929 -30.7059 90.4434 -31.0867C90.4939 -31.4674 90.5949 -31.8957 90.6959 -32.2764C90.8979 -33.0378 91.1503 -33.8468 91.4533 -34.5607C91.7563 -35.3221 92.1096 -36.0359 92.5641 -36.7022C92.9681 -37.3684 93.4731 -37.987 94.079 -38.5104C94.685 -39.0339 95.3414 -39.5099 96.0484 -39.7478C96.8059 -40.0333 97.5634 -40.1286 98.3713 -40.0334C99.1793 -39.9382 99.9872 -39.7479 100.644 -39.3196C101.3 -38.8913 101.805 -38.3201 102.058 -37.6063C102.613 -36.1786 102.26 -34.513 101.351 -33.2757C100.896 -32.657 100.29 -32.1812 99.6338 -31.8956C98.9773 -31.6101 98.22 -31.5149 97.513 -31.6577C96.806 -31.8005 96.1496 -32.086 95.7456 -32.5143C95.3416 -32.9426 95.2405 -33.5137 95.3415 -34.0371C95.4425 -34.5606 95.7961 -35.0365 96.2 -35.2269C96.604 -35.4172 97.0583 -35.4172 97.5633 -35.2269C97.7148 -35.1793 97.8663 -35.1317 98.0683 -35.1317C99.0277 -35.0365 99.8863 -35.7027 99.9873 -36.6069C100.088 -37.5111 99.3813 -38.3201 98.4219 -38.4153H98.2705C97.6645 -38.4629 97.0079 -38.4629 96.3514 -38.3201C95.695 -38.1774 95.0384 -37.8442 94.5335 -37.4635C93.5235 -36.6069 92.9682 -35.4649 92.9682 -34.3227C92.9682 -33.7517 93.069 -33.1806 93.271 -32.6571C93.473 -32.1336 93.877 -31.6577 94.281 -31.277C95.1394 -30.468 96.2504 -30.1349 97.3108 -30.0397C98.3713 -29.9445 99.4823 -30.1348 100.391 -30.6583C101.3 -31.1342 102.007 -31.8956 102.512 -32.7046C103.017 -33.5136 103.32 -34.4178 103.421 -35.322C103.522 -36.2262 103.421 -37.178 103.068 -38.0822L103.118 -37.987Z" fill="url(#paint1_linear_2359_398)"/>
<path d="M87.1103 -92.9521H86.3528C85.7469 -83.5771 85.3932 -74.2497 85.1913 -64.8747C85.0398 -60.211 84.9893 -55.4997 84.9388 -50.836C84.8883 -46.1723 84.8884 -41.461 84.8379 -36.7973V-22.7586L84.9388 -16.7149C84.0803 -17.5715 83.0704 -18.3329 81.9089 -18.8564C80.7475 -19.4274 79.4346 -19.7605 78.1722 -19.9033C77.5157 -19.9509 76.9098 -19.9984 76.2534 -19.9984C75.5969 -19.9984 74.8899 -19.9032 74.2335 -19.7129C72.9205 -19.3321 71.759 -18.6184 70.85 -17.7618C69.9411 -16.8576 69.2341 -15.763 68.8301 -14.6209C68.4262 -13.4787 68.2748 -12.1939 68.4768 -10.9566C68.6788 -9.71925 69.2341 -8.52955 70.0926 -7.53019C70.951 -6.57841 72.1126 -5.86451 73.2741 -5.43621C73.88 -5.19827 74.4858 -5.05556 75.0918 -4.9128C75.6977 -4.81762 76.3544 -4.72237 77.0108 -4.72237C77.6673 -4.72237 78.3743 -4.81764 79.0813 -5.05559C79.7882 -5.29353 80.4446 -5.67425 80.9495 -6.24531C81.4545 -6.76879 81.8586 -7.38735 82.0606 -8.0536C82.3131 -8.71983 82.4139 -9.38618 82.4139 -10.0524C82.4139 -11.3849 82.0101 -12.765 80.7981 -13.9547C80.1922 -14.5257 79.3336 -14.9541 78.3741 -15.0492C77.4652 -15.1444 76.6067 -14.954 75.8492 -14.716H75.7484C75.6474 -14.6208 75.5463 -14.5733 75.4454 -14.5257C74.6374 -14.0498 74.3849 -13.0029 74.9404 -12.2414C75.4454 -11.48 76.5562 -11.2421 77.3642 -11.7655C77.6671 -11.9559 77.9702 -12.0511 78.1722 -12.0511C78.3742 -12.0511 78.5763 -12.0511 78.8288 -11.8607C79.3338 -11.5276 79.7377 -10.7662 79.8387 -9.95715C79.9397 -9.14814 79.7376 -8.29156 79.2327 -7.7205C78.7782 -7.14943 77.9703 -6.81635 77.0108 -6.81635C76.5563 -6.81635 76.0514 -6.81633 75.5464 -6.91151C75.0415 -7.00668 74.5363 -7.14948 74.0818 -7.29224C73.1224 -7.62537 72.3145 -8.14882 71.658 -8.81506C70.3956 -10.1475 70.1431 -12.1939 70.9006 -13.9547C71.2541 -14.8113 71.8096 -15.6203 72.5166 -16.239C73.2236 -16.8576 74.0819 -17.2859 74.9404 -17.5238C75.3949 -17.619 75.8494 -17.6666 76.3039 -17.6666C76.8089 -17.6666 77.3139 -17.619 77.8188 -17.5238C78.8288 -17.3335 79.7377 -17.048 80.5456 -16.5721C81.3536 -16.0962 82.111 -15.4775 82.7169 -14.7637C83.3229 -14.0498 83.8278 -13.1933 84.1813 -12.2891C84.5348 -11.4325 84.8379 -10.5758 85.0399 -9.62405C85.0399 -9.33852 85.0399 -9.05296 85.0399 -8.76743C85.2419 0.607574 85.5449 9.93499 86.1004 19.31H87.1103V-92.9045V-92.9521Z" fill="url(#paint2_linear_2359_398)"/>
<path d="M126.65 204.382C126.65 204.382 116.045 208.427 114.682 217.564C113.318 226.701 113.217 234.221 115.692 234.934C118.166 235.648 122.357 230.318 126.145 228.558C129.932 226.797 139.173 220.087 136.598 210.95C134.022 201.813 126.599 204.382 126.599 204.382H126.65Z" fill="url(#paint3_linear_2359_398)"/>
<path d="M137.002 213.234C129.326 214.805 121.146 223.561 118.722 229.319C117.712 231.699 117.51 233.412 117.611 234.649C120.035 233.46 123.216 229.986 126.145 228.605C129.73 226.892 137.658 221.229 137.002 213.234Z" fill="url(#paint4_linear_2359_398)"/>
<path d="M128.013 204.097C127.205 204.192 126.65 204.382 126.65 204.382C126.65 204.382 116.045 208.427 114.682 217.564C114.278 220.182 114.025 222.704 113.874 224.941C115.086 224.56 116.247 224.084 117.308 223.561C123.569 220.563 127.912 215.851 128.871 210.902C129.326 208.57 129.023 206.238 128.013 204.049V204.097Z" fill="#2A5916"/>
<path d="M136.85 211.949C136.8 211.616 136.699 211.283 136.598 210.95C136.446 210.379 136.244 209.808 136.042 209.332L124.933 205.191C124.731 205.287 124.529 205.382 124.327 205.525C124.68 206.857 126.044 210.045 130.891 211.473C133.416 212.187 135.386 212.235 136.85 211.997V211.949Z" fill="#244715"/>
<path d="M126.65 226.274C127.054 226.036 127.508 225.798 127.912 225.56C128.316 225.322 128.72 225.036 129.124 224.703C129.881 224.132 130.589 223.466 131.245 222.752C131.901 221.991 132.457 221.229 133.063 220.468C133.366 220.087 133.618 219.659 133.921 219.278C134.224 218.897 134.477 218.469 134.729 218.088C134.83 217.898 135.083 217.85 135.285 217.946C135.436 218.041 135.487 218.231 135.436 218.421C135.032 219.326 134.477 220.182 133.921 221.039C133.366 221.895 132.76 222.657 132.053 223.418C131.346 224.18 130.538 224.894 129.68 225.465C128.821 226.036 127.862 226.512 126.852 226.797C126.7 226.797 126.549 226.797 126.498 226.607C126.498 226.464 126.498 226.369 126.65 226.321V226.274Z" fill="url(#paint5_linear_2359_398)"/>
<path d="M123.418 201.861C122.812 201.242 122.004 200.814 121.146 200.671C118.116 200.1 110.491 199.244 103.421 202.765C94.4323 207.286 90.6451 217.66 89.8371 220.611C89.0796 223.561 89.5846 224.608 92.362 224.704C95.1393 224.799 107.562 225.608 116.096 221.515C124.327 217.565 130.487 209.332 123.367 201.909L123.418 201.861Z" fill="url(#paint6_linear_2359_398)"/>
<path d="M123.418 201.861C122.812 201.242 122.004 200.814 121.145 200.671C119.731 200.385 117.257 200.052 114.278 200.147C114.985 201.908 116.55 204.288 120.135 206.144C122.408 207.333 124.63 207.952 126.549 208.19C126.397 206.096 125.438 203.954 123.418 201.861Z" fill="#3B7523"/>
<path d="M90.0895 224.037C90.544 224.465 91.3015 224.656 92.4124 224.703C95.1898 224.799 107.612 225.608 116.146 221.515C122.711 218.374 127.912 212.521 126.195 206.524C121.701 206.905 116.197 207.809 109.985 209.856C99.4315 213.282 93.2203 219.802 90.0895 224.085V224.037Z" fill="url(#paint7_linear_2359_398)"/>
<path d="M126.195 206.477C124.832 206.572 123.418 206.762 121.903 207C123.569 207.666 125.135 208.047 126.498 208.237C126.498 207.666 126.347 207.095 126.195 206.524V206.477Z" fill="#4C8930"/>
<path d="M94.8363 212.902C95.0383 211.902 95.4927 211.093 96.0482 210.284C96.3512 209.903 96.6544 209.523 97.0078 209.19C97.3613 208.857 97.7652 208.523 98.1692 208.285C98.9266 207.762 99.7851 207.238 100.694 206.858C101.603 206.477 102.613 206.191 103.673 206.239C103.825 206.239 103.926 206.382 103.926 206.525C103.926 206.62 103.926 206.667 103.825 206.715C103.068 207.286 102.411 207.857 101.755 208.428C101.098 208.999 100.391 209.57 99.6841 210.094L97.6137 211.664C96.9067 212.188 96.1997 212.711 95.2907 213.187C95.1392 213.282 94.9879 213.187 94.9374 213.092C94.9374 213.044 94.9374 212.997 94.9374 212.902H94.8363Z" fill="url(#paint8_linear_2359_398)"/>
<path d="M105.34 204.716C105.643 204.383 105.996 204.145 106.4 203.954C106.754 203.764 107.158 203.574 107.562 203.431C108.37 203.145 109.228 202.955 110.137 202.955C110.289 202.955 110.39 203.05 110.39 203.193C110.39 203.288 110.339 203.383 110.238 203.383C109.834 203.574 109.481 203.716 109.127 203.859C108.774 204.002 108.37 204.145 108.016 204.288C107.663 204.43 107.259 204.573 106.855 204.716C106.451 204.859 106.047 204.954 105.643 205.049C105.491 205.049 105.34 205.001 105.34 204.859C105.34 204.763 105.34 204.716 105.39 204.621L105.34 204.716Z" fill="url(#paint9_linear_2359_398)"/>
<path d="M95.0889 223.608C97.9672 223.371 100.795 223.133 103.623 222.799C105.037 222.609 106.451 222.419 107.814 222.181C109.228 221.895 110.592 221.61 111.955 221.229C112.106 221.229 112.207 221.229 112.258 221.372C112.258 221.467 112.258 221.61 112.157 221.657C110.895 222.371 109.481 222.847 108.067 223.275C106.653 223.656 105.188 223.942 103.775 224.132C102.31 224.322 100.846 224.418 99.3811 224.418C97.9167 224.418 96.4524 224.37 94.988 224.132C94.8365 224.132 94.7353 223.989 94.7858 223.846C94.7858 223.751 94.887 223.656 94.988 223.656L95.0889 223.608Z" fill="url(#paint10_linear_2359_398)"/>
<path d="M114.227 220.325C114.783 220.135 115.338 219.849 115.843 219.563C116.348 219.278 116.853 218.945 117.358 218.564C117.863 218.183 118.317 217.85 118.772 217.422C119.226 217.041 119.63 216.613 120.085 216.185C120.236 215.994 120.54 215.994 120.742 216.185C120.944 216.328 120.944 216.613 120.742 216.803C120.287 217.232 119.832 217.66 119.327 218.041C118.823 218.421 118.318 218.802 117.813 219.135C117.308 219.468 116.752 219.801 116.146 220.087C115.591 220.373 114.985 220.61 114.379 220.801C114.227 220.801 114.126 220.801 114.076 220.658C114.076 220.515 114.076 220.42 114.227 220.373V220.325Z" fill="url(#paint11_linear_2359_398)"/>
<path d="M53.3662 47.4991C53.3662 47.4991 42.2369 43.0282 33.9255 48.9447C25.6499 54.8612 19.6214 60.3743 20.8699 62.6602C22.1184 64.9461 29.5022 63.904 33.7827 65.2486C38.2059 66.6269 50.2628 68.106 55.6134 59.433C60.964 50.7936 53.3662 47.4655 53.3662 47.4655V47.4991Z" fill="url(#paint12_linear_2359_398)"/>
<path d="M54.1507 61.4167C47.1235 57.1811 34.1037 57.9542 27.6829 60.5763C25.0432 61.652 23.5093 62.795 22.6176 63.7699C25.3642 64.6103 30.5365 64.2069 33.8182 65.249C37.8847 66.5265 48.3363 67.8375 54.1507 61.4167Z" fill="url(#paint13_linear_2359_398)"/>
<path d="M54.6144 48.2724C53.9366 47.7682 53.3659 47.5329 53.3659 47.5329C53.3659 47.5329 42.2366 43.0619 33.9252 48.9783C31.5353 50.6928 29.3593 52.34 27.4688 53.92C28.6816 54.4915 29.9299 54.9621 31.1071 55.3319C38.1699 57.5169 45.1616 57.0126 49.7988 54.0208C52.0104 52.6089 53.6156 50.6592 54.5787 48.2724H54.6144Z" fill="#2A5916"/>
<path d="M55.0067 60.3744C55.2207 60.0718 55.4349 59.7693 55.6489 59.4667C56.0056 58.8952 56.291 58.3574 56.5407 57.8531L51.511 46.8942C51.297 46.8269 51.083 46.7597 50.8333 46.7261C50.0485 47.9699 48.5147 51.3316 51.0116 55.7689C52.2958 58.0885 53.7582 59.5003 55.0424 60.3744H55.0067Z" fill="#244715"/>
<path d="M35.9584 63.904C36.4578 64.0385 36.9929 64.1729 37.4923 64.2737C38.0274 64.3746 38.5268 64.4419 39.0618 64.5091C40.0963 64.61 41.1663 64.61 42.2008 64.5091C43.2709 64.4083 44.341 64.2402 45.3755 64.0721C45.9105 64.0048 46.4458 63.9039 46.9451 63.7695C47.4802 63.6686 48.0152 63.5678 48.5146 63.4333C48.7287 63.3661 48.9783 63.5006 49.014 63.7359C49.0497 63.9376 48.9426 64.1057 48.7642 64.1729C47.7298 64.5763 46.6596 64.8453 45.5538 65.0806C44.4837 65.3159 43.378 65.4839 42.2722 65.5512C41.1307 65.6184 39.9893 65.5848 38.8835 65.3831C37.7777 65.1814 36.7075 64.8788 35.6731 64.3746C35.5304 64.3074 35.4591 64.1393 35.5304 64.0049C35.6018 63.8704 35.7445 63.8367 35.8871 63.8703L35.9584 63.904Z" fill="url(#paint14_linear_2359_398)"/>
<path d="M60.4288 37.9862C60.5001 36.8096 60.1435 35.6666 59.4301 34.6917C57.0401 31.3301 50.3695 23.2958 39.6682 20.2031C25.9706 16.2364 11.3098 23.0269 7.4217 25.2119C3.56923 27.397 2.96283 28.9098 5.63815 31.6327C8.31347 34.3556 19.7639 46.7264 32.5697 50.6595C44.8762 54.4582 59.6797 52.0378 60.3931 37.9862H60.4288Z" fill="url(#paint15_linear_2359_398)"/>
<path d="M60.4289 37.9864C60.5002 36.8099 60.1436 35.6669 59.4302 34.692C58.2887 33.0784 56.1841 30.4564 53.152 27.7671C52.0106 30.1539 51.0475 33.9861 52.6527 39.163C53.6871 42.491 55.2209 45.1467 56.8618 47.1637C58.9307 44.945 60.2149 41.9196 60.4289 37.9529V37.9864Z" fill="#3B7523"/>
<path d="M4.03308 28.8089C4.03308 29.6494 4.60385 30.5234 5.67398 31.6328C8.3493 34.3557 19.7997 46.7265 32.6056 50.6596C42.4151 53.6851 53.7585 52.7438 58.3601 45.1465C53.5088 41.3143 47.0522 37.0786 38.7766 33.2799C24.7222 26.8256 11.7023 27.4643 4.03308 28.7754V28.8089Z" fill="url(#paint16_linear_2359_398)"/>
<path d="M58.3599 45.1801C56.8974 44.0372 55.2922 42.8606 53.5443 41.6504C54.4718 43.8355 55.6131 45.6843 56.8259 47.1634C57.3967 46.5583 57.8961 45.886 58.3242 45.1465L58.3599 45.1801Z" fill="#4C8930"/>
<path d="M20.4774 22.22C21.6902 21.4132 23.0457 21.0098 24.4012 20.7408C25.0789 20.64 25.7923 20.5728 26.5057 20.5728C27.2191 20.5728 27.9325 20.64 28.6103 20.7408C29.9301 20.9425 31.2856 21.2115 32.5698 21.6821C33.8539 22.1527 35.1738 22.7915 36.1726 23.8336C36.3153 23.9681 36.2796 24.2034 36.1726 24.3379C36.1012 24.4051 35.9943 24.4386 35.8873 24.4386C34.5675 24.3042 33.3189 24.2706 32.0347 24.1698C30.7862 24.1025 29.5022 24.0017 28.218 23.9008L24.5438 23.531C23.2953 23.3965 22.0112 23.2285 20.6557 22.8923C20.4417 22.8251 20.3347 22.6234 20.3704 22.4553C20.3704 22.3545 20.4417 22.2872 20.5131 22.2536L20.4774 22.22Z" fill="url(#paint17_linear_2359_398)"/>
<path d="M39.4544 23.9007C40.0965 23.9007 40.7027 23.9679 41.2735 24.1024C41.8442 24.2368 42.4507 24.4386 42.9858 24.6739C44.0916 25.1445 45.1617 25.7496 46.0178 26.6236C46.1605 26.7581 46.1605 26.9934 46.0178 27.0943C45.9108 27.1951 45.7681 27.1951 45.6611 27.1615C45.0904 26.9934 44.5553 26.7917 44.0202 26.59C43.4851 26.3883 42.9501 26.1866 42.415 25.9849C41.8799 25.7832 41.3449 25.5479 40.8455 25.3126C40.3105 25.0773 39.811 24.8084 39.3116 24.5058C39.1332 24.405 39.0976 24.1697 39.2046 24.0016C39.276 23.9007 39.3829 23.8671 39.4899 23.8335L39.4544 23.9007Z" fill="url(#paint18_linear_2359_398)"/>
<path d="M9.38364 33.0783C12.5227 35.4987 15.5548 37.9526 18.7295 40.2722C20.299 41.4151 21.9399 42.5244 23.5808 43.6002C25.2573 44.6423 26.9338 45.6172 28.7174 46.5248C28.8957 46.6257 28.967 46.8274 28.86 46.9954C28.7887 47.1299 28.6103 47.1971 28.4676 47.1635C26.47 46.6593 24.5438 45.8525 22.7245 44.9448C20.9053 44.0035 19.1931 42.8942 17.5523 41.7513C15.9471 40.5411 14.3775 39.2973 12.915 37.919C11.4525 36.5744 10.0614 35.1289 8.84858 33.5489C8.74156 33.4144 8.7773 33.1791 8.91999 33.0783C9.06267 32.9774 9.24092 33.0111 9.34793 33.0783H9.38364Z" fill="url(#paint19_linear_2359_398)"/>
<path d="M31.8562 47.7354C32.6053 48.0715 33.4615 48.3068 34.2819 48.5085C35.138 48.7102 35.9583 48.8447 36.8144 48.9456C37.6705 49.0464 38.5267 49.1136 39.4185 49.1472C40.2746 49.1472 41.1663 49.1472 42.0224 49.1472C42.3791 49.1472 42.6644 49.3826 42.7001 49.7188C42.7001 50.0549 42.4505 50.3238 42.0938 50.3574C41.202 50.3574 40.3102 50.3238 39.3828 50.2566C38.491 50.1893 37.5992 50.0549 36.7075 49.9204C35.8157 49.7523 34.9596 49.5842 34.1035 49.3153C33.2474 49.0464 32.3913 48.7775 31.5709 48.3741C31.3925 48.2733 31.3212 48.0715 31.4282 47.9371C31.4996 47.769 31.7135 47.7017 31.8919 47.8026L31.8562 47.7354Z" fill="url(#paint20_linear_2359_398)"/>
<path d="M72.8783 42.0535C72.8783 42.0535 76.5881 26.59 65.9582 17.4127C55.3282 8.20182 45.8041 1.81474 42.8434 3.99981C39.8827 6.18487 43.1645 15.4293 42.3084 21.2786C41.4166 27.3295 42.3083 43.1965 56.1486 47.9364C70.0246 52.6763 72.914 42.0871 72.914 42.0871L72.8783 42.0535Z" fill="url(#paint21_linear_2359_398)"/>
<path d="M52.9023 46.4902C57.2898 36.4053 52.938 19.7989 47.5517 12.2016C45.3401 9.07523 43.3068 7.39438 41.6302 6.45312C41.1308 10.2182 42.9502 16.7397 42.2724 21.2443C41.452 26.791 42.1297 40.5738 52.9023 46.4902Z" fill="url(#paint22_linear_2359_398)"/>
<path d="M54.6145 47.3312C55.0782 47.5329 55.5775 47.7346 56.1126 47.9027C57.0044 48.2052 57.8605 48.4405 58.6453 48.6422L73.3061 39.4313C73.3061 39.1288 73.3773 38.8262 73.413 38.4901C71.4154 37.8177 66.1719 36.6748 60.3219 40.9777C57.2898 43.23 55.5776 45.4487 54.6145 47.3312Z" fill="#244715"/>
<path d="M44.8052 23.6988C44.7338 24.3711 44.6623 25.0771 44.6623 25.783C44.6623 26.489 44.6624 27.1613 44.7337 27.8673C44.8408 29.2456 45.0905 30.5902 45.5186 31.9013C45.9466 33.2459 46.4104 34.5569 46.9454 35.9016C47.1951 36.5739 47.4804 37.2126 47.7658 37.8513C48.0155 38.49 48.3365 39.1624 48.6218 39.8011C48.7645 40.1036 48.6219 40.4062 48.3008 40.5406C48.0511 40.6415 47.7301 40.5406 47.5874 40.3389C46.767 39.0951 46.0893 37.7841 45.4829 36.4395C44.8765 35.0948 44.377 33.7165 43.9489 32.3382C43.5565 30.8927 43.3069 29.4136 43.3426 27.9345C43.3426 26.4554 43.5209 25.0099 43.9846 23.5644C44.056 23.3627 44.27 23.2618 44.484 23.2954C44.6623 23.3627 44.8051 23.5307 44.7695 23.6988H44.8052Z" fill="url(#paint23_linear_2359_398)"/>
<path d="M210.223 182.967C208.506 182.444 206.638 183.301 206.082 184.919C206.082 184.919 206.082 184.966 206.032 185.014L205.931 185.157L205.729 185.49C205.628 185.728 205.476 185.966 205.325 186.204C205.072 186.679 204.769 187.155 204.466 187.631C203.86 188.583 203.204 189.487 202.446 190.391C201.033 192.152 199.366 193.818 197.649 195.341C195.882 196.863 194.013 198.196 191.993 199.433C189.973 200.623 187.853 201.718 185.631 202.622C185.075 202.86 184.52 203.05 183.964 203.24C183.409 203.431 182.853 203.669 182.247 203.859L180.531 204.43L178.763 204.906L177.905 205.144L176.996 205.334L175.228 205.715L173.41 206.048C172.804 206.143 172.198 206.238 171.592 206.334C166.745 207.047 161.746 207.238 156.746 207.143C151.747 207 146.798 206.429 142.001 205.382L140.183 204.953C139.577 204.811 138.971 204.62 138.416 204.478C138.113 204.382 137.759 204.287 137.456 204.24C137.406 204.144 137.305 204.049 137.204 203.954C135.588 202.479 134.628 200.099 135.133 197.958C135.941 194.579 140.133 192.438 143.314 194.484C144.627 195.293 145.435 197.101 144.778 198.481C144.071 199.719 142.153 199.29 141.446 198.244C140.436 197.006 138.618 198.577 139.779 199.671C143.819 203.05 148.465 199.338 145.536 194.96C143.415 192.105 138.668 191.962 136.143 194.389C133.467 196.673 133.113 200.052 134.022 203.145C132.003 202.431 129.932 201.67 128.013 200.718C125.791 199.671 123.62 198.481 121.549 197.244C119.479 195.959 117.459 194.532 115.591 193.009C113.672 191.486 111.904 189.82 110.188 188.059C109.329 187.203 108.521 186.251 107.764 185.347C107.36 184.871 107.006 184.395 106.653 183.919C106.299 183.443 105.946 182.92 105.643 182.492V182.396C105.138 181.73 104.279 181.445 103.471 181.778C102.613 182.111 102.259 183.063 102.613 183.872C102.916 184.538 103.219 185.109 103.573 185.68C103.876 186.251 104.229 186.822 104.583 187.346C105.289 188.44 106.047 189.535 106.855 190.582C108.42 192.676 110.238 194.627 112.107 196.483C114.025 198.339 116.045 200.052 118.217 201.622C120.388 203.24 122.661 204.62 125.034 205.953L126.852 206.905L128.67 207.809C129.276 208.094 129.882 208.38 130.538 208.665C131.144 208.903 131.8 209.189 132.406 209.427C133.669 209.903 134.982 210.426 136.244 210.807C136.901 210.997 137.557 211.235 138.214 211.426L140.183 211.997C140.84 212.187 141.496 212.33 142.153 212.52L144.172 212.996C145.536 213.234 146.849 213.52 148.212 213.71C150.939 214.091 153.666 214.424 156.393 214.566C161.846 214.9 167.351 214.709 172.804 213.995C173.158 213.995 173.511 213.9 173.814 213.853L174.824 213.662L176.895 213.282L178.915 212.806L179.925 212.568L180.934 212.282C183.611 211.616 186.287 210.664 188.863 209.57C191.438 208.475 193.912 207.19 196.286 205.667C198.609 204.144 200.83 202.431 202.85 200.575C204.87 198.672 206.688 196.625 208.254 194.341C209.062 193.199 209.768 192.057 210.425 190.867C210.728 190.249 211.082 189.63 211.334 189.011C211.486 188.678 211.637 188.393 211.738 188.059C211.788 187.917 211.889 187.726 211.94 187.536L212.041 187.25L212.142 186.917C212.698 185.299 211.789 183.539 210.072 183.015L210.223 182.967Z" fill="url(#paint24_linear_2359_398)"/>
<path d="M203.608 199.814C204.719 198.719 205.729 197.625 206.688 196.435C205.779 195.626 204.618 194.817 203.406 194.484C202.345 194.151 200.83 193.913 199.366 193.723C198.811 194.246 198.205 194.817 197.649 195.293C197.245 195.674 196.791 196.007 196.387 196.34C196.892 196.816 197.548 197.387 198.356 198.006C199.972 199.243 201.841 199.719 203.557 199.766L203.608 199.814Z" fill="#305E1B"/>
<path d="M209.263 187.06C209.263 187.06 204.365 203.003 184.267 208.19C164.169 213.377 142.859 214.567 123.418 201.86C109.329 192.676 104.784 187.298 103.32 185.062C103.421 185.252 103.522 185.395 103.623 185.585C103.926 186.156 104.279 186.727 104.633 187.251C105.34 188.345 106.097 189.44 106.905 190.487C108.47 192.581 110.289 194.532 112.157 196.388C114.076 198.244 116.096 199.957 118.267 201.527C120.438 203.145 122.711 204.525 125.084 205.858L126.902 206.81L128.72 207.714C129.326 207.999 129.932 208.285 130.589 208.57C131.195 208.808 131.851 209.094 132.457 209.332C133.719 209.808 135.032 210.331 136.295 210.712C136.951 210.902 137.608 211.14 138.264 211.331L140.233 211.902C140.89 212.092 141.547 212.235 142.203 212.425L144.223 212.901C145.586 213.139 146.899 213.424 148.263 213.615C150.99 213.996 153.716 214.329 156.443 214.471C161.897 214.805 167.401 214.614 172.855 213.9C173.208 213.9 173.562 213.805 173.865 213.758L174.875 213.567L176.945 213.187L178.965 212.711L179.975 212.473L180.985 212.187C183.661 211.521 186.338 210.569 188.913 209.475C191.488 208.38 193.963 207.095 196.336 205.572C198.659 204.05 200.881 202.336 202.901 200.48C204.921 198.577 206.739 196.53 208.304 194.246C209.112 193.104 209.819 191.962 210.475 190.772C210.778 190.154 211.132 189.535 211.384 188.916C211.536 188.583 211.687 188.298 211.788 187.964C211.839 187.822 211.94 187.631 211.99 187.441L212.091 187.156L212.192 186.822C212.192 186.775 212.192 186.727 212.192 186.68L209.112 187.06H209.263Z" fill="url(#paint25_linear_2359_398)"/>
<path d="M206.688 196.435C206.132 195.911 205.476 195.435 204.769 195.055C203.709 196.435 202.396 197.91 200.881 199.338C201.79 199.623 202.699 199.766 203.608 199.814C204.718 198.719 205.728 197.625 206.688 196.435Z" fill="#40682B"/>
<path d="M265.012 181.873L262.74 182.587C258.801 186.156 253.751 188.44 248.55 190.011C232.391 194.484 207.546 192.485 193.054 184.205L191.387 183.824C188.105 183.11 185.883 187.013 188.357 189.202C193.761 193.96 200.729 196.911 207.748 198.957C223.201 203.098 243.349 203.478 257.842 195.483C259.508 195.864 261.074 196.816 261.932 198.148C263.8 201.004 262.387 205.334 258.65 205.905C257.236 206.143 255.418 205.429 255.014 204.144C254.762 203.05 256.175 202.431 257.185 202.717C257.337 202.717 257.539 202.764 257.741 202.764C260.165 202.574 259.761 199.29 257.387 199.528C251.58 199.909 250.823 206.286 256.731 207.428C260.468 207.999 263.952 204.811 263.902 201.384C264.003 198.386 262.185 196.007 259.71 194.389C261.478 193.294 263.195 192.057 264.76 190.629C266.224 189.297 267.588 187.821 268.598 186.203C270.163 183.919 267.739 181.016 265.012 181.873Z" fill="url(#paint26_linear_2359_398)"/>
<path d="M258.902 185.49C256.529 186.965 253.954 188.154 251.277 189.106C252.691 189.201 256.277 189.439 260.518 189.392C263.094 189.392 265.215 189.011 266.78 188.63C267.436 187.869 268.093 187.06 268.649 186.203C268.8 185.965 268.901 185.727 269.002 185.442H258.953L258.902 185.49Z" fill="#305E1B"/>
<path d="M217.899 199.243C196.791 197.197 189.62 188.917 189.62 188.917L188.358 189.25C193.761 194.008 200.729 196.959 207.749 199.005C222.544 202.955 241.683 203.479 255.974 196.483C250.924 197.673 235.219 200.956 217.848 199.243H217.899Z" fill="url(#paint27_linear_2359_398)"/>
<path d="M202.901 189.915C202.749 190.058 202.648 190.248 202.497 190.391C201.638 191.486 200.679 192.485 199.669 193.484C202.295 193.532 205.022 193.484 207.546 193.199C208.152 193.151 208.708 193.056 209.213 192.961C209.667 192.247 210.122 191.533 210.526 190.772C210.677 190.439 210.879 190.106 211.031 189.772L202.85 189.868L202.901 189.915Z" fill="#1E3A0F"/>
<path d="M213.657 191.01C211.738 190.677 209.819 190.296 207.95 189.82L189.367 190.058C190.781 191.2 192.246 192.247 193.811 193.152C198.002 193.532 203.103 193.675 207.547 193.199C211.637 192.771 213.101 191.819 213.606 191.01H213.657Z" fill="#305E1B"/>
<path d="M110.238 187.917C109.884 187.536 109.581 187.203 109.228 186.822C107.259 186.632 105.39 186.442 104.077 186.299C104.279 186.632 104.431 186.917 104.633 187.251C105.037 187.869 105.441 188.44 105.845 189.059C108.218 189.392 110.389 189.487 111.803 189.487C111.248 188.964 110.743 188.44 110.238 187.917Z" fill="#305E1B"/>
<path d="M186.944 190.106C119.58 190.106 77.9198 183.872 54.8425 178.637C38.3298 174.878 26.8164 161.124 26.8164 145.135V50.9563C26.8164 31.9684 43.228 16.502 63.3765 16.502H310.561C330.71 16.502 347.122 31.9684 347.122 50.9563V145.135C347.122 161.124 335.608 174.878 319.095 178.637C296.018 183.872 254.358 190.106 186.994 190.106H186.944Z" fill="#2F2007"/>
<path d="M186.944 184.396C120.186 184.396 79.0306 178.257 56.2563 173.07C42.4705 169.929 32.8761 158.46 32.8761 145.087V50.9091C32.8761 35.0621 46.5609 22.1655 63.3765 22.1655H310.561C327.377 22.1655 341.062 35.0621 341.062 50.9091V145.087C341.062 158.412 331.417 169.929 317.682 173.07C294.907 178.209 253.752 184.396 186.994 184.396H186.944Z" fill="url(#paint28_radial_2359_398)"/>
<path d="M339.042 51.908C339.345 27.5425 311.874 23.4022 291.574 25.5437C282.03 25.5437 263.144 25.5437 253.55 25.5437C216.586 25.5437 176.693 25.5437 139.728 25.5437C115.944 25.5437 87.6152 25.5437 63.8309 25.5437C29.8461 24.9726 35.8554 65.7086 35.8554 86.6953L36.6634 89.9314C36.6129 89.979 39.3396 94.5475 38.5822 94.3572L35.8554 94.0716C39.0872 114.249 24.2914 166.74 57.3168 171.737C89.4331 182.301 225.574 187.06 280.465 177.971C280.717 177.304 281.02 174.735 281.273 174.021L283.04 172.45C283.293 175.068 283.343 177.114 286.878 177.114C298.089 175.591 308.44 173.735 317.479 171.689C348.687 166.692 336.82 120.769 338.941 100.924C337.981 100.639 336.77 100.163 335.861 99.7822C335.962 99.4967 339.345 96.0703 338.941 95.7372C339.294 94.3095 333.235 90.55 332.427 89.6458L338.941 88.8368V51.8603L339.042 51.908Z" fill="#2F2007"/>
<path d="M334.497 98.4497L337.527 94.8805V94.7854C337.527 94.4998 337.375 94.2144 337.173 94.024L330.962 89.0747C330.457 88.6464 330.71 87.885 331.366 87.7898L337.527 87.0284V50.9085C337.527 36.8698 325.458 25.4961 310.561 25.4961H63.3764C48.4796 25.4961 36.4108 36.8698 36.4108 50.9085V85.6007L37.1682 88.6465L39.289 92.977C39.6425 93.6908 39.0364 94.4523 38.2285 94.3571L36.3602 94.1667V145.134C36.3602 156.889 44.9448 167.12 57.0642 169.833C78.9801 174.83 119.883 181.064 186.943 181.064C254.004 181.064 256.377 178.922 279.152 176.162L279.808 172.879C279.808 172.688 279.96 172.546 280.111 172.403L282.535 170.261C282.889 169.976 283.394 170.166 283.495 170.594L284.05 174.449C284.05 174.687 284.252 174.83 284.505 174.877L286.474 175.258C299.098 173.545 309.147 171.641 316.823 169.881C328.942 167.12 337.527 156.936 337.527 145.182V100.734L334.901 99.8298C334.345 99.6395 334.144 98.9733 334.497 98.545V98.4497Z" fill="#EED693"/>
<path d="M83.6259 25.5435L36.4108 70.039V85.6482L37.1682 88.6938L39.289 93.0245C39.6425 93.7383 39.0364 94.4997 38.2285 94.4045L36.3602 94.2142V145.182C36.3602 148.608 37.0672 151.892 38.4307 154.89L175.683 25.5435H83.6259Z" fill="#F4DFAB"/>
<path d="M337.527 100.686L334.901 99.782C334.346 99.5916 334.144 98.9254 334.497 98.4971L337.527 94.9279V94.8328C337.527 94.5472 337.375 94.2617 337.173 94.0713L330.962 89.1221C330.457 88.6938 330.71 87.9324 331.366 87.8372L337.527 87.0758V50.9559C337.527 47.1964 336.669 43.6748 335.103 40.4863L185.883 181.111C186.237 181.111 186.59 181.111 186.944 181.111C226.13 181.111 256.378 178.97 279.152 176.21L279.809 172.926C279.809 172.736 279.96 172.593 280.111 172.45L282.535 170.261C282.889 169.976 283.394 170.166 283.495 170.594L284.05 174.449C284.05 174.687 284.252 174.83 284.505 174.877H284.555L337.476 125.004V100.734L337.527 100.686Z" fill="#CEB372"/>
<path d="M209.263 25.5435L56.3066 169.69C56.5591 169.738 56.8117 169.833 57.1146 169.88C63.9823 171.451 72.7183 173.117 83.5247 174.687L241.784 25.5435H209.213H209.263Z" fill="#F4DFAB"/>
<path d="M120.489 178.685L283.04 25.4961H265.063L104.077 177.209C109.228 177.733 114.682 178.256 120.489 178.685Z" fill="#F4DFAB"/>
<path d="M328.365 21.0674C329.43 20.5653 330.629 20.3979 331.828 20.6071C335.912 21.2765 345.989 23.6194 353.048 31.2755C362.104 41.0653 361.527 55.8756 360.994 59.9337C360.462 63.9919 359.263 65.0797 355.711 63.9082C352.116 62.7786 336.134 58.1347 327.433 49.0562C319.087 40.3541 315.535 27.1755 328.365 21.0674Z" fill="url(#paint29_linear_2359_398)"/>
<path d="M328.365 21.0674C329.431 20.5653 330.629 20.3979 331.828 20.6071C333.781 20.9418 337.067 21.6112 340.751 23.0754C338.975 24.9581 335.779 27.2592 330.319 27.9704C326.812 28.4306 323.748 28.1796 321.218 27.6357C322.505 25.0837 324.814 22.7827 328.41 21.0674H328.365Z" fill="#3B7523"/>
<path d="M358.997 64.1175C358.198 64.4103 357.177 64.3266 355.712 63.8664C352.116 62.7368 336.134 58.0929 327.433 49.0143C320.774 42.0694 317.178 32.3215 322.461 25.5439C327.921 28.0542 334.403 31.7357 341.195 37.0908C352.737 46.1694 357.221 57.2144 358.997 64.0756V64.1175Z" fill="url(#paint30_linear_2359_398)"/>
<path d="M322.505 25.5854C324.148 26.3385 325.879 27.2172 327.655 28.1794C325.258 28.2631 323.082 28.012 321.218 27.6355C321.573 26.9243 321.973 26.2548 322.505 25.5854Z" fill="#4C8930"/>
<path d="M358.686 47.9271C358.953 46.5884 358.819 45.3333 358.509 44.0782C358.331 43.4506 358.109 42.8649 357.843 42.2792C357.576 41.6934 357.221 41.1077 356.866 40.6057C356.156 39.5598 355.401 38.5975 354.424 37.6771C353.492 36.7985 352.382 35.9618 351.006 35.5434C350.829 35.5016 350.607 35.5434 350.562 35.7526C350.562 35.8362 350.562 35.9617 350.562 36.0454C351.228 37.0913 351.716 38.1373 352.294 39.1414C352.871 40.1455 353.448 41.1914 354.025 42.1955L355.801 45.0822C356.422 46.0445 357.044 47.0486 357.931 48.0527C358.065 48.22 358.287 48.2618 358.464 48.1363C358.553 48.0945 358.597 48.0108 358.597 47.9271H358.686Z" fill="url(#paint31_linear_2359_398)"/>
<path d="M349.718 32.8655C349.497 32.3216 349.142 31.8613 348.786 31.4429C348.431 31.0246 348.032 30.6062 347.588 30.2297C346.7 29.5185 345.723 28.8491 344.613 28.4726C344.436 28.4307 344.214 28.4726 344.169 28.6818C344.169 28.8073 344.169 28.9328 344.214 29.0165C344.613 29.4349 345.013 29.8113 345.412 30.1878C345.812 30.5644 346.211 30.8991 346.611 31.2756C347.01 31.6522 347.41 31.9869 347.854 32.3216C348.298 32.6562 348.698 32.991 349.23 33.2838C349.408 33.4093 349.63 33.3257 349.718 33.2002C349.763 33.1165 349.807 32.9909 349.718 32.9072V32.8655Z" fill="url(#paint32_linear_2359_398)"/>
<path d="M352.915 61.3561C349.408 59.7245 345.945 58.1348 342.571 56.4195C340.884 55.5409 339.242 54.6623 337.599 53.7001C336.001 52.7378 334.403 51.6918 332.849 50.6041C332.716 50.4786 332.494 50.5205 332.361 50.646C332.272 50.7715 332.272 50.9388 332.361 51.0225C333.604 52.4867 335.113 53.7419 336.667 54.9133C338.265 56.0429 339.952 57.047 341.683 57.9255C343.415 58.8041 345.235 59.599 347.055 60.2684C348.875 60.9378 350.784 61.5235 352.693 61.9C352.871 61.9 353.048 61.8164 353.093 61.6491C353.093 61.4817 353.048 61.3562 352.915 61.2725V61.3561Z" fill="url(#paint33_linear_2359_398)"/>
<path d="M330.452 48.5126C329.875 48.0106 329.298 47.4249 328.809 46.7974C328.277 46.1698 327.833 45.5422 327.389 44.8729C326.945 44.2035 326.545 43.5341 326.19 42.8229C325.835 42.1117 325.48 41.4004 325.213 40.6473C325.08 40.3544 324.725 40.1872 324.414 40.3127C324.103 40.4382 323.926 40.7728 324.059 41.0657C324.414 41.8187 324.814 42.53 325.213 43.2413C325.613 43.9525 326.101 44.6637 326.59 45.3331C327.078 46.0025 327.611 46.6718 328.188 47.2575C328.765 47.8851 329.342 48.4708 330.052 48.9729C330.186 49.0984 330.408 49.0565 330.541 48.931C330.674 48.8055 330.629 48.5963 330.541 48.5126H330.452Z" fill="url(#paint34_linear_2359_398)"/>
<path d="M319.708 12.3233C319.708 12.3233 332.671 3.20289 345.412 8.43249C358.153 13.6203 367.831 19.0173 366.943 22.3224C366.1 25.6275 356.156 26.5479 351.05 29.5183C345.945 32.4887 330.629 38.1366 320.774 28.5142C310.918 18.8917 319.664 12.3233 319.664 12.3233H319.708Z" fill="url(#paint35_linear_2359_398)"/>
<path d="M323.393 30.6061C331.073 23.0336 348.254 20.1469 357.443 21.6112C361.217 22.1969 363.614 23.2428 365.079 24.2469C361.794 26.1296 354.957 27.1755 351.05 29.5184C346.211 32.3633 333.115 37.2163 323.393 30.6061Z" fill="url(#paint36_linear_2359_398)"/>
<path d="M347.765 28.3886C347.188 28.7233 346.522 29.058 345.901 29.309C345.279 29.6019 344.613 29.8529 343.947 30.0621C342.616 30.5223 341.239 30.8152 339.863 30.9825C338.443 31.1498 337.022 31.2753 335.601 31.359C334.891 31.4008 334.181 31.4426 333.471 31.4426C332.76 31.4426 332.05 31.4427 331.34 31.4845C331.029 31.4845 330.807 31.7356 330.807 32.0284C330.807 32.2794 331.029 32.4886 331.295 32.5304C332.804 32.7396 334.269 32.7815 335.734 32.7396C337.199 32.7396 338.709 32.5723 340.174 32.4049C341.683 32.1539 343.148 31.7774 344.525 31.1917C345.901 30.606 347.188 29.8947 348.343 28.9324C348.52 28.8069 348.52 28.5559 348.343 28.4304C348.209 28.3049 347.987 28.2631 347.854 28.3468L347.765 28.3886Z" fill="url(#paint37_linear_2359_398)"/>
<path d="M140.133 198.386C140.133 198.577 140.234 198.815 140.385 199.005C140.537 199.195 140.688 199.338 140.89 199.433C141.092 199.576 141.344 199.671 141.546 199.719C141.748 199.814 142.001 199.862 142.253 199.862C142.354 199.862 142.455 199.957 142.405 200.052C142.405 200.147 142.304 200.195 142.203 200.195C141.9 200.195 141.597 200.195 141.344 200.1C141.092 200.004 140.84 199.909 140.587 199.766C140.335 199.624 140.132 199.386 139.981 199.148C139.829 198.91 139.779 198.624 139.88 198.339C139.88 198.291 139.93 198.244 140.031 198.244C140.031 198.244 140.082 198.244 140.133 198.339V198.386Z" fill="url(#paint38_linear_2359_398)"/>
<path d="M112.763 195.531C113.571 196.245 114.379 197.006 115.237 197.673C116.096 198.387 116.904 199.053 117.813 199.719C119.58 201.052 121.348 202.336 123.266 203.431C125.185 204.526 127.155 205.525 129.124 206.524C130.134 207.048 131.094 207.524 132.104 208C133.113 208.475 134.123 208.951 135.083 209.427C135.083 209.427 135.133 209.475 135.083 209.522C135.083 209.522 135.032 209.57 134.982 209.522C133.921 209.142 132.911 208.713 131.851 208.285C130.841 207.857 129.781 207.381 128.771 206.953C127.761 206.477 126.751 206.001 125.741 205.477C124.731 204.954 123.771 204.478 122.761 203.907C120.843 202.765 119.025 201.48 117.358 200.052C115.641 198.624 114.025 197.149 112.561 195.531C112.561 195.531 112.561 195.484 112.561 195.436C112.561 195.436 112.612 195.436 112.662 195.436L112.763 195.531Z" fill="url(#paint39_linear_2359_398)"/>
<path d="M196.437 192.152C197.447 192.581 198.507 193.009 199.517 193.437C200.578 193.865 201.588 194.246 202.648 194.579C204.769 195.293 206.89 195.959 209.061 196.388C211.233 196.816 213.455 197.149 215.677 197.482C216.788 197.673 217.898 197.815 219.009 197.958C220.12 198.101 221.231 198.244 222.342 198.386C222.342 198.386 222.443 198.386 222.393 198.482C222.393 198.482 222.393 198.529 222.292 198.529C221.181 198.529 220.019 198.434 218.908 198.339C217.797 198.244 216.686 198.149 215.525 198.006C214.414 197.863 213.303 197.72 212.192 197.53C211.081 197.339 209.97 197.197 208.859 196.959C206.638 196.435 204.466 195.817 202.396 194.96C200.325 194.151 198.255 193.247 196.336 192.152C196.336 192.152 196.336 192.105 196.336 192.057C196.336 192.057 196.387 192.057 196.437 192.057V192.152Z" fill="url(#paint40_linear_2359_398)"/>
<path d="M194.064 199.481C192.296 200.813 190.377 201.955 188.408 203.002C186.439 204.049 184.318 204.858 182.197 205.524C181.641 205.667 181.086 205.81 180.581 205.953L178.965 206.334C177.854 206.571 176.793 206.809 175.683 207C173.461 207.38 171.239 207.761 168.966 207.904C168.815 207.904 168.714 207.809 168.714 207.666C168.714 207.523 168.815 207.428 168.916 207.428C171.087 207.142 173.309 206.714 175.481 206.238C177.652 205.81 179.874 205.286 181.944 204.715C184.065 204.097 186.085 203.24 188.054 202.288C190.024 201.337 191.943 200.242 193.761 199.052C193.862 198.957 194.013 199.005 194.114 199.1C194.215 199.195 194.165 199.338 194.114 199.433L194.064 199.481Z" fill="url(#paint41_linear_2359_398)"/>
<path d="M257.943 190.154C255.974 191.201 253.903 192.057 251.782 192.771C249.661 193.485 247.44 194.008 245.218 194.341C244.662 194.436 244.107 194.484 243.551 194.532L241.885 194.675C240.774 194.77 239.663 194.817 238.501 194.865C236.229 194.912 234.007 194.96 231.735 194.722C231.583 194.722 231.482 194.579 231.482 194.484C231.482 194.341 231.583 194.246 231.735 194.246C233.957 194.246 236.179 194.246 238.401 194.103C240.622 193.961 242.895 193.818 245.066 193.58C247.237 193.294 249.409 192.771 251.53 192.105C253.651 191.438 255.721 190.677 257.69 189.725C257.791 189.678 257.943 189.725 258.044 189.82C258.094 189.916 258.044 190.058 257.943 190.154Z" fill="url(#paint42_linear_2359_398)"/>
<path d="M162.755 207.952C160.129 208.142 157.503 208.19 154.928 208.047C153.615 207.999 152.302 207.904 151.04 207.714C149.727 207.523 148.465 207.333 147.202 206.952C147.152 206.952 147.101 206.857 147.152 206.81C147.152 206.762 147.252 206.714 147.303 206.762C147.909 206.905 148.565 207 149.222 207.095C149.878 207.19 150.484 207.238 151.141 207.285C152.454 207.428 153.716 207.476 155.029 207.523C156.342 207.571 157.604 207.571 158.917 207.619C160.23 207.619 161.543 207.618 162.806 207.571C162.907 207.571 163.008 207.666 163.008 207.761C163.008 207.856 162.957 207.952 162.856 207.952H162.755Z" fill="url(#paint43_linear_2359_398)"/>
<path d="M147.808 212.52C148.869 212.711 149.98 212.901 151.04 213.044C152.101 213.186 153.212 213.329 154.272 213.377C155.383 213.472 156.443 213.567 157.554 213.567C158.615 213.567 159.726 213.615 160.786 213.52C160.837 213.52 160.887 213.52 160.887 213.615C160.887 213.662 160.887 213.71 160.786 213.71C159.675 213.9 158.564 213.9 157.504 213.9C156.393 213.9 155.282 213.853 154.221 213.71C153.11 213.615 152.05 213.472 150.939 213.329C149.828 213.187 148.768 212.949 147.707 212.711C147.657 212.711 147.606 212.615 147.606 212.568C147.606 212.52 147.657 212.473 147.758 212.473L147.808 212.52Z" fill="url(#paint44_linear_2359_398)"/>
</g>
<defs>
<linearGradient id="paint0_linear_2359_398" x1="267.335" y1="-36.8928" x2="304.199" y2="-36.8928" gradientUnits="userSpaceOnUse">
<stop stop-color="#366D20"/>
<stop offset="0.5" stop-color="#46A321"/>
<stop offset="1" stop-color="#366D20"/>
</linearGradient>
<linearGradient id="paint1_linear_2359_398" x1="66.6084" y1="-1404.12" x2="103.472" y2="-1404.12" gradientUnits="userSpaceOnUse">
<stop stop-color="#366D20"/>
<stop offset="0.5" stop-color="#46A321"/>
<stop offset="1" stop-color="#366D20"/>
</linearGradient>
<linearGradient id="paint2_linear_2359_398" x1="67.4163" y1="-36.8449" x2="87.1103" y2="-36.8449" gradientUnits="userSpaceOnUse">
<stop stop-color="#366D20"/>
<stop offset="0.5" stop-color="#60BD3B"/>
<stop offset="1" stop-color="#3A9117"/>
</linearGradient>
<linearGradient id="paint3_linear_2359_398" x1="113.773" y1="219.563" x2="137.052" y2="219.563" gradientUnits="userSpaceOnUse">
<stop stop-color="#2B5719"/>
<stop offset="0.5" stop-color="#367D19"/>
<stop offset="1" stop-color="#2D5C1B"/>
</linearGradient>
<linearGradient id="paint4_linear_2359_398" x1="117.611" y1="223.942" x2="137.052" y2="223.942" gradientUnits="userSpaceOnUse">
<stop stop-color="#3A7522"/>
<stop offset="0.5" stop-color="#4B942E"/>
<stop offset="1" stop-color="#2B6B11"/>
</linearGradient>
<linearGradient id="paint5_linear_2359_398" x1="126.195" y1="222.324" x2="135.588" y2="222.324" gradientUnits="userSpaceOnUse">
<stop stop-color="#51A330"/>
<stop offset="0.5" stop-color="#56BA2E"/>
<stop offset="1" stop-color="#398F17"/>
</linearGradient>
<linearGradient id="paint6_linear_2359_398" x1="90.0896" y1="218.422" x2="123.235" y2="206.416" gradientUnits="userSpaceOnUse">
<stop stop-color="#366D20"/>
<stop offset="0.5" stop-color="#46A321"/>
<stop offset="1" stop-color="#366D20"/>
</linearGradient>
<linearGradient id="paint7_linear_2359_398" x1="90.0895" y1="215.614" x2="126.549" y2="215.614" gradientUnits="userSpaceOnUse">
<stop stop-color="#366D20"/>
<stop offset="0.5" stop-color="#60BD3B"/>
<stop offset="1" stop-color="#3A9117"/>
</linearGradient>
<linearGradient id="paint8_linear_2359_398" x1="94.0283" y1="209.475" x2="104.731" y2="210.011" gradientUnits="userSpaceOnUse">
<stop stop-color="#5FBF38"/>
<stop offset="0.5" stop-color="#67DE37"/>
<stop offset="1" stop-color="#50C720"/>
</linearGradient>
<linearGradient id="paint9_linear_2359_398" x1="105.946" y1="203.05" x2="109.571" y2="205.234" gradientUnits="userSpaceOnUse">
<stop stop-color="#5FBF38"/>
<stop offset="0.5" stop-color="#67DE37"/>
<stop offset="1" stop-color="#50C720"/>
</linearGradient>
<linearGradient id="paint10_linear_2359_398" x1="94.3819" y1="222.799" x2="112.813" y2="222.799" gradientUnits="userSpaceOnUse">
<stop stop-color="#397322"/>
<stop offset="0.5" stop-color="#3D8221"/>
<stop offset="1" stop-color="#41A11A"/>
</linearGradient>
<linearGradient id="paint11_linear_2359_398" x1="113.823" y1="218.421" x2="120.893" y2="218.421" gradientUnits="userSpaceOnUse">
<stop stop-color="#397322"/>
<stop offset="0.5" stop-color="#3D8221"/>
<stop offset="1" stop-color="#41A11A"/>
</linearGradient>
<linearGradient id="paint12_linear_2359_398" x1="31.6949" y1="49.778" x2="48.115" y2="67.2017" gradientUnits="userSpaceOnUse">
<stop stop-color="#2B5719"/>
<stop offset="0.5" stop-color="#367D19"/>
<stop offset="1" stop-color="#2D5C1B"/>
</linearGradient>
<linearGradient id="paint13_linear_2359_398" x1="31.0893" y1="55.7685" x2="44.8045" y2="70.3218" gradientUnits="userSpaceOnUse">
<stop stop-color="#3A7522"/>
<stop offset="0.5" stop-color="#4B942E"/>
<stop offset="1" stop-color="#2B6B11"/>
</linearGradient>
<linearGradient id="paint14_linear_2359_398" x1="38.7823" y1="60.641" x2="45.4026" y2="67.6659" gradientUnits="userSpaceOnUse">
<stop stop-color="#51A330"/>
<stop offset="0.5" stop-color="#56BA2E"/>
<stop offset="1" stop-color="#398F17"/>
</linearGradient>
<linearGradient id="paint15_linear_2359_398" x1="9.92701" y1="23.322" x2="53.5825" y2="46.0266" gradientUnits="userSpaceOnUse">
<stop stop-color="#366D20"/>
<stop offset="0.5" stop-color="#46A321"/>
<stop offset="1" stop-color="#366D20"/>
</linearGradient>
<linearGradient id="paint16_linear_2359_398" x1="12.853" y1="20.5172" x2="46.8798" y2="56.6237" gradientUnits="userSpaceOnUse">
<stop stop-color="#366D20"/>
<stop offset="0.5" stop-color="#60BD3B"/>
<stop offset="1" stop-color="#3A9117"/>
</linearGradient>
<linearGradient id="paint17_linear_2359_398" x1="23.245" y1="18.0924" x2="32.7332" y2="29.1122" gradientUnits="userSpaceOnUse">
<stop stop-color="#5FBF38"/>
<stop offset="0.5" stop-color="#67DE37"/>
<stop offset="1" stop-color="#50C720"/>
</linearGradient>
<linearGradient id="paint18_linear_2359_398" x1="41.8092" y1="22.8464" x2="43.2545" y2="28.3579" gradientUnits="userSpaceOnUse">
<stop stop-color="#5FBF38"/>
<stop offset="0.5" stop-color="#67DE37"/>
<stop offset="1" stop-color="#50C720"/>
</linearGradient>
<linearGradient id="paint19_linear_2359_398" x1="9.54872" y1="31.618" x2="26.7519" y2="49.8727" gradientUnits="userSpaceOnUse">
<stop stop-color="#397322"/>
<stop offset="0.5" stop-color="#3D8221"/>
<stop offset="1" stop-color="#41A11A"/>
</linearGradient>
<linearGradient id="paint20_linear_2359_398" x1="33.4602" y1="45.5002" x2="40.033" y2="52.4746" gradientUnits="userSpaceOnUse">
<stop stop-color="#397322"/>
<stop offset="0.5" stop-color="#3D8221"/>
<stop offset="1" stop-color="#41A11A"/>
</linearGradient>
<linearGradient id="paint21_linear_2359_398" x1="64.3468" y1="14.9589" x2="46.3632" y2="42.5177" gradientUnits="userSpaceOnUse">
<stop stop-color="#2B5719"/>
<stop offset="0.5" stop-color="#367D19"/>
<stop offset="1" stop-color="#2D5C1B"/>
</linearGradient>
<linearGradient id="paint22_linear_2359_398" x1="55.5163" y1="15.6974" x2="40.5082" y2="38.6966" gradientUnits="userSpaceOnUse">
<stop stop-color="#3A7522"/>
<stop offset="0.5" stop-color="#4B942E"/>
<stop offset="1" stop-color="#2B6B11"/>
</linearGradient>
<linearGradient id="paint23_linear_2359_398" x1="50.401" y1="26.7935" x2="43.1401" y2="37.9202" gradientUnits="userSpaceOnUse">
<stop stop-color="#51A330"/>
<stop offset="0.5" stop-color="#56BA2E"/>
<stop offset="1" stop-color="#398F17"/>
</linearGradient>
<linearGradient id="paint24_linear_2359_398" x1="100.24" y1="198.053" x2="213.102" y2="198.053" gradientUnits="userSpaceOnUse">
<stop stop-color="#366D20"/>
<stop offset="0.5" stop-color="#46A321"/>
<stop offset="1" stop-color="#366D20"/>
</linearGradient>
<linearGradient id="paint25_linear_2359_398" x1="103.32" y1="199.814" x2="212.344" y2="199.814" gradientUnits="userSpaceOnUse">
<stop stop-color="#366D20"/>
<stop offset="0.5" stop-color="#6ED944"/>
<stop offset="1" stop-color="#45AD1C"/>
</linearGradient>
<linearGradient id="paint26_linear_2359_398" x1="187.348" y1="194.627" x2="269.103" y2="194.627" gradientUnits="userSpaceOnUse">
<stop stop-color="#366D20"/>
<stop offset="0.5" stop-color="#46A321"/>
<stop offset="1" stop-color="#366D20"/>
</linearGradient>
<linearGradient id="paint27_linear_2359_398" x1="188.408" y1="195.389" x2="256.024" y2="195.389" gradientUnits="userSpaceOnUse">
<stop stop-color="#366D20"/>
<stop offset="0.5" stop-color="#6ED944"/>
<stop offset="1" stop-color="#45AD1C"/>
</linearGradient>
<radialGradient id="paint28_radial_2359_398" cx="0" cy="0" r="1" gradientUnits="userSpaceOnUse" gradientTransform="translate(186.944 103.304) scale(154.27 145.384)">
<stop stop-color="#B4612B"/>
<stop offset="1" stop-color="#B48261"/>
</radialGradient>
<linearGradient id="paint29_linear_2359_398" x1="361.731" y1="56.6105" x2="326.818" y2="25.647" gradientUnits="userSpaceOnUse">
<stop stop-color="#366D20"/>
<stop offset="0.5" stop-color="#46A321"/>
<stop offset="1" stop-color="#366D20"/>
</linearGradient>
<linearGradient id="paint30_linear_2359_398" x1="363.22" y1="53.0713" x2="318.03" y2="34.6641" gradientUnits="userSpaceOnUse">
<stop stop-color="#366D20"/>
<stop offset="0.5" stop-color="#60BD3B"/>
<stop offset="1" stop-color="#3A9117"/>
</linearGradient>
<linearGradient id="paint31_linear_2359_398" x1="361.397" y1="43.5392" x2="347.858" y2="38.7719" gradientUnits="userSpaceOnUse">
<stop stop-color="#5FBF38"/>
<stop offset="0.5" stop-color="#67DE37"/>
<stop offset="1" stop-color="#50C720"/>
</linearGradient>
<linearGradient id="paint32_linear_2359_398" x1="349.687" y1="30.0263" x2="343.959" y2="30.914" gradientUnits="userSpaceOnUse">
<stop stop-color="#5FBF38"/>
<stop offset="0.5" stop-color="#67DE37"/>
<stop offset="1" stop-color="#50C720"/>
</linearGradient>
<linearGradient id="paint33_linear_2359_398" x1="354.157" y1="60.1445" x2="331.318" y2="50.8414" gradientUnits="userSpaceOnUse">
<stop stop-color="#397322"/>
<stop offset="0.5" stop-color="#3D8221"/>
<stop offset="1" stop-color="#41A11A"/>
</linearGradient>
<linearGradient id="paint34_linear_2359_398" x1="331.849" y1="45.801" x2="323.121" y2="42.2458" gradientUnits="userSpaceOnUse">
<stop stop-color="#397322"/>
<stop offset="0.5" stop-color="#3D8221"/>
<stop offset="1" stop-color="#41A11A"/>
</linearGradient>
<linearGradient id="paint35_linear_2359_398" x1="347.777" y1="8.84113" x2="332.105" y2="36.1919" gradientUnits="userSpaceOnUse">
<stop stop-color="#2B5719"/>
<stop offset="0.5" stop-color="#367D19"/>
<stop offset="1" stop-color="#2D5C1B"/>
</linearGradient>
<linearGradient id="paint36_linear_2359_398" x1="350.539" y1="16.3975" x2="337.444" y2="39.2513" gradientUnits="userSpaceOnUse">
<stop stop-color="#3A7522"/>
<stop offset="0.5" stop-color="#4B942E"/>
<stop offset="1" stop-color="#2B6B11"/>
</linearGradient>
<linearGradient id="paint37_linear_2359_398" x1="342.233" y1="25.0045" x2="335.896" y2="36.0628" gradientUnits="userSpaceOnUse">
<stop stop-color="#51A330"/>
<stop offset="0.5" stop-color="#56BA2E"/>
<stop offset="1" stop-color="#398F17"/>
</linearGradient>
<linearGradient id="paint38_linear_2359_398" x1="139.779" y1="199.291" x2="142.506" y2="199.291" gradientUnits="userSpaceOnUse">
<stop stop-color="#5FBF38"/>
<stop offset="0.5" stop-color="#67DE37"/>
<stop offset="1" stop-color="#50C720"/>
</linearGradient>
<linearGradient id="paint39_linear_2359_398" x1="112.359" y1="202.574" x2="135.386" y2="202.574" gradientUnits="userSpaceOnUse">
<stop stop-color="#5FBF38"/>
<stop offset="0.5" stop-color="#67DE37"/>
<stop offset="1" stop-color="#50C720"/>
</linearGradient>
<linearGradient id="paint40_linear_2359_398" x1="198.507" y1="198.91" x2="219.986" y2="191.083" gradientUnits="userSpaceOnUse">
<stop stop-color="#5FBF38"/>
<stop offset="0.5" stop-color="#67DE37"/>
<stop offset="1" stop-color="#50C720"/>
</linearGradient>
<linearGradient id="paint41_linear_2359_398" x1="168.462" y1="203.478" x2="194.316" y2="203.478" gradientUnits="userSpaceOnUse">
<stop stop-color="#397322"/>
<stop offset="0.5" stop-color="#3D8221"/>
<stop offset="1" stop-color="#41A11A"/>
</linearGradient>
<linearGradient id="paint42_linear_2359_398" x1="231.937" y1="190.249" x2="257.406" y2="194.628" gradientUnits="userSpaceOnUse">
<stop stop-color="#397322"/>
<stop offset="0.5" stop-color="#3D8221"/>
<stop offset="1" stop-color="#41A11A"/>
</linearGradient>
<linearGradient id="paint43_linear_2359_398" x1="146.899" y1="207.476" x2="163.008" y2="207.476" gradientUnits="userSpaceOnUse">
<stop stop-color="#397322"/>
<stop offset="0.5" stop-color="#3D8221"/>
<stop offset="1" stop-color="#41A11A"/>
</linearGradient>
<linearGradient id="paint44_linear_2359_398" x1="147.606" y1="213.234" x2="161.039" y2="213.234" gradientUnits="userSpaceOnUse">
<stop stop-color="#5FBF38"/>
<stop offset="0.5" stop-color="#CAF2BA"/>
<stop offset="1" stop-color="#3FDB00"/>
</linearGradient>
<clipPath id="clip0_2359_398">
<rect width="375" height="235" fill="white"/>
</clipPath>
</defs>
</svg>
