<svg width="75" height="74" viewBox="0 0 75 74" fill="none" xmlns="http://www.w3.org/2000/svg">
    <g transform="rotate(90, 37.5, 37)">
        <path fill-rule="evenodd" clip-rule="evenodd" d="M5.44875 36.678C5.44875 53.6764 19.3539 67.4563 36.5067 67.4563C44.1342 67.4563 51.1133 64.7348 56.5198 60.2152L60.0331 64.3426C53.6805 69.6531 45.4675 72.856 36.5067 72.856C16.3446 72.856 -7.79876e-07 56.6585 -1.65325e-06 36.678C-2.52663e-06 16.6974 16.3446 0.499992 36.5067 0.499991C56.6687 0.49999 73.0133 16.6974 73.0133 36.678C73.0133 38.1691 71.7936 39.3778 70.2889 39.3778C68.7843 39.3778 67.5646 38.1691 67.5646 36.678C67.5646 19.6796 53.6595 5.89969 36.5067 5.89969C19.3539 5.8997 5.44875 19.6796 5.44875 36.678Z" fill="url(#paint0_linear_3751_26971)"/>
        <path fill-rule="evenodd" clip-rule="evenodd" d="M46.7756 59.1659C47.1698 57.7269 48.6665 56.877 50.1185 57.2677L58.5321 59.531C60.565 60.0779 61.7656 62.1544 61.2138 64.169L58.9299 72.5068C58.5357 73.9458 57.039 74.7957 55.5869 74.405C54.1348 74.0144 53.2772 72.5312 53.6714 71.0922L55.5271 64.3177L48.6911 62.4788C47.239 62.0881 46.3814 60.6049 46.7756 59.1659Z" fill="url(#paint1_linear_3751_26971)"/>
        <path fill-rule="evenodd" clip-rule="evenodd" d="M22.9398 50.8198C18.4442 50.8198 14.7998 47.1819 14.7998 42.6943L14.7998 31.3186C14.7998 26.8311 18.4442 23.1932 22.9398 23.1932L50.0731 23.1932C54.5687 23.1932 58.2131 26.8311 58.2131 31.3186L58.2131 42.6943C58.2131 47.1819 54.5687 50.8198 50.0731 50.8198L22.9398 50.8198ZM18.0558 42.6943C18.0558 45.3869 20.2424 47.5696 22.9398 47.5696L50.0731 47.5696C52.7705 47.5696 54.9571 45.3869 54.9571 42.6943L54.9571 31.3186C54.9571 28.6261 52.7705 26.4434 50.0731 26.4434L22.9398 26.4434C20.2424 26.4434 18.0558 28.6261 18.0558 31.3186L18.0558 42.6943Z" fill="url(#paint2_linear_3751_26971)"/>
        <path d="M20.2987 42.2047L18.128 43.6943C17.4079 44.1885 16.4278 43.6739 16.4278 42.8016L16.4278 31.2114C16.4278 30.3391 17.4079 29.8245 18.128 30.3187L20.2987 31.8083C20.5932 32.0104 20.7691 32.3443 20.7691 32.7011L20.7691 41.3119C20.7691 41.6686 20.5932 42.0025 20.2987 42.2047Z" fill="url(#paint3_linear_3751_26971)"/>
    </g>
    <defs>
        <linearGradient id="paint0_linear_3751_26971" x1="36.5067" y1="74.5" x2="36.5067" y2="0.499998" gradientUnits="userSpaceOnUse">
            <stop stop-color="#FF8200"/>
            <stop offset="1" stop-color="#FFC800"/>
        </linearGradient>
        <linearGradient id="paint1_linear_3751_26971" x1="36.5067" y1="74.5" x2="36.5067" y2="0.499998" gradientUnits="userSpaceOnUse">
            <stop stop-color="#FF8200"/>
            <stop offset="1" stop-color="#FFC800"/>
        </linearGradient>
        <linearGradient id="paint2_linear_3751_26971" x1="36.5065" y1="50.8198" x2="36.5065" y2="23.1932" gradientUnits="userSpaceOnUse">
            <stop stop-color="#FF8200"/>
            <stop offset="1" stop-color="#FFC800"/>
        </linearGradient>
        <linearGradient id="paint3_linear_3751_26971" x1="36.5065" y1="50.8198" x2="36.5065" y2="23.1932" gradientUnits="userSpaceOnUse">
            <stop stop-color="#FF8200"/>
            <stop offset="1" stop-color="#FFC800"/>
        </linearGradient>
    </defs>
</svg>
