<svg width="243" height="156" viewBox="0 0 243 156" fill="none" xmlns="http://www.w3.org/2000/svg">
<path d="M145.818 116.966V111.318C145.818 110.189 146.675 109.293 147.805 109.254C151.583 109.137 153.491 109.098 157.269 109.02C158.555 109.02 159.645 110.072 159.645 111.357V130.443C159.645 131.572 158.788 132.468 157.659 132.468C147.999 132.624 138.379 133.014 128.758 133.637C127.473 133.715 126.382 132.702 126.382 131.456V75.1729C126.382 74.0434 127.239 73.1086 128.369 73.0307C137.989 72.4075 147.61 72.018 157.269 71.8232C158.555 71.8232 159.645 72.8749 159.645 74.1602V93.2457C159.645 94.3752 158.788 95.2321 157.659 95.2711C153.881 95.31 151.972 95.349 148.194 95.4658C146.909 95.5048 145.818 94.4531 145.818 93.1678V88.2601C145.818 86.9747 144.727 85.9231 143.442 86.001C142.975 86.001 142.741 86.001 142.274 86.04C141.144 86.0789 140.248 87.0137 140.248 88.1433V116.849C140.248 118.135 141.339 119.147 142.624 119.108C143.092 119.108 143.325 119.108 143.793 119.069C144.922 119.069 145.818 118.135 145.818 117.005V116.966Z" fill="#EDEDED"/>
<path d="M183.95 92.2328C177.056 91.9991 170.162 91.8433 163.268 91.8433C162.45 91.8433 161.827 92.4665 161.827 93.2844V133.714C161.827 134.61 162.605 135.389 163.54 135.389C170.434 135.389 177.329 135.545 184.223 135.818C185.041 135.818 185.664 135.233 185.664 134.454V94.0245C185.664 93.0897 184.885 92.3107 183.989 92.2717L183.95 92.2328ZM175.732 124.172C175.732 124.99 175.108 125.613 174.291 125.574C173.94 125.574 173.784 125.574 173.473 125.574C172.577 125.574 171.798 124.756 171.798 123.86V116.226C170.707 115.408 170.162 115.018 169.032 114.239C170.123 113.967 170.668 113.811 171.798 113.538C170.707 112.643 170.162 112.214 169.071 111.318C170.162 111.046 170.707 110.89 171.798 110.656V103.217C171.798 102.399 172.421 101.775 173.239 101.814C173.589 101.814 173.745 101.814 174.057 101.814C174.953 101.814 175.732 102.632 175.732 103.528V124.133V124.172Z" fill="#EDEDED"/>
<path d="M196.064 138.544C193.376 138.388 192.013 138.31 189.286 138.155C188.39 138.116 187.612 137.298 187.612 136.363V95.933C187.612 95.115 188.235 94.5308 189.053 94.5697C191.779 94.7255 193.103 94.7645 195.83 94.9592C196.726 94.9982 197.505 95.8551 197.505 96.7509V137.181C197.505 137.999 196.882 138.583 196.064 138.544Z" fill="#EDEDED"/>
<path d="M229.56 94.6867C230.729 93.0508 231.313 92.2329 232.482 90.597V84.9882C232.482 83.7029 231.391 82.4954 230.145 82.3007C220.641 81.0543 211.137 80.0805 201.633 79.3015C200.504 79.2236 199.647 80.0416 199.647 81.1711V137.454C199.647 138.739 200.738 139.908 201.984 139.985C205.762 140.258 207.632 140.414 211.371 140.803C212.5 140.92 213.357 140.141 213.357 139.012V96.1668C213.357 95.0373 214.214 94.2583 215.344 94.3751C215.811 94.4141 216.045 94.453 216.512 94.492C217.759 94.6478 218.849 95.8552 218.849 97.1016V139.245C218.849 140.531 219.94 141.738 221.186 141.894C224.925 142.322 226.795 142.556 230.534 143.063C231.664 143.218 232.521 142.478 232.521 141.349V95.7773C231.352 95.3878 230.768 95.1931 229.599 94.8036L229.56 94.6867Z" fill="#EDEDED"/>
<path d="M48.2096 127.95C44.1977 124.484 40.1859 121.056 36.1351 117.628C35.3561 117.005 35.8624 115.603 36.9141 115.33C39.1342 114.746 40.2639 114.473 42.523 113.928C43.1852 113.772 43.6915 113.149 43.6915 112.487V77.8216C43.6915 77.0816 43.0683 76.5752 42.3283 76.7699C38.5891 77.6658 34.8498 78.6396 31.1496 79.6133C30.4874 79.7691 29.9811 80.4312 29.9811 81.0934V102.165C29.9811 102.827 29.4747 103.49 28.8126 103.645C27.6441 103.957 27.0598 104.113 25.8913 104.424C25.1513 104.619 24.5281 104.152 24.5281 103.412V96.167C24.4112 96.167 24.3334 96.167 24.2166 96.167C23.0481 96.2449 22.4248 96.3228 21.2563 96.4007C22.5806 94.0248 23.2427 92.8173 24.5281 90.4414V82.6903C24.5281 81.9503 23.9049 81.4829 23.1648 81.6776C19.4646 82.7293 15.7254 83.8199 12.0641 84.9494C11.402 85.1442 10.8956 85.8063 10.8956 86.4685V144.582C10.8956 145.322 11.5188 145.789 12.2589 145.555C15.9591 144.426 19.6594 143.335 23.3596 142.284C24.0217 142.089 24.5281 141.427 24.5281 140.804V130.482C24.5281 129.352 25.8914 128.495 26.7093 129.158C30.4485 132.235 34.1876 135.39 37.8878 138.506C38.3552 138.895 39.0954 138.817 39.6018 138.311C42.4451 135.467 45.2885 132.624 48.1708 129.781C48.755 129.235 48.7938 128.34 48.2486 127.911L48.2096 127.95Z" fill="url(#paint0_linear_2250_2448)"/>
<path d="M56.1943 137.298C53.2731 137.922 51.793 138.272 48.8329 138.934C48.0928 139.09 47.4696 138.623 47.4696 137.844V96.8294C47.4696 96.1672 47.976 95.5441 48.6381 95.3883C51.5593 94.7261 53.0394 94.3756 55.9996 93.7524C56.7396 93.5966 57.3628 94.1029 57.3628 94.8429V135.857C57.3628 136.519 56.8565 137.143 56.1943 137.298Z" fill="url(#paint1_linear_2250_2448)"/>
<path d="M81.2002 93.0902C81.9792 93.0123 82.3687 93.0123 83.1477 92.9344V91.1037C83.1477 90.3637 82.5245 89.8184 81.7455 89.9352C74.6177 91.1037 67.5677 92.428 60.4788 93.8302C59.8167 93.986 59.3103 94.5703 59.3103 95.2324V136.247C59.3103 136.987 59.9335 137.493 60.6735 137.337C63.5948 136.753 65.075 136.441 68.0352 135.896C68.6974 135.779 69.2037 135.156 69.2037 134.494V123.043C68.4637 122.303 68.1131 121.913 67.412 121.134C67.6067 120.121 67.7235 119.615 67.8793 118.602C68.4246 118.057 68.6584 117.784 69.2037 117.239V103.139C69.2037 102.477 69.7101 101.854 70.3722 101.737C70.9565 101.62 71.229 101.581 71.7743 101.503C72.5143 101.387 73.1375 101.893 73.1375 102.633V133.52C73.1375 134.26 73.7608 134.806 74.5398 134.65C77.4999 134.143 78.98 133.871 81.9012 133.403C82.5634 133.286 83.0697 132.702 83.0697 132.04V97.2189C82.7192 97.2189 82.5245 97.2578 82.174 97.2968C82.3298 96.7515 82.4077 96.4788 82.5635 95.9335C81.395 95.8167 80.8107 95.7777 79.6422 95.6609C80.1096 95.2324 80.3823 94.9987 80.8497 94.5313C80.9666 93.9081 81.0054 93.5965 81.1222 93.0123L81.2002 93.0902Z" fill="url(#paint2_linear_2250_2448)"/>
<path d="M107.141 95.0767C110.919 94.6482 114.658 94.2587 118.436 93.9471C119.099 93.9082 119.605 93.3239 119.605 92.6618V71.7846C119.605 71.0446 118.982 70.4603 118.203 70.5382C107.92 71.512 97.715 72.7194 87.5102 74.1995C86.848 74.3164 86.3417 74.9006 86.3417 75.5628V133.676C86.3417 134.416 86.9647 134.961 87.7437 134.845C97.9486 133.364 108.193 132.157 118.436 131.183C119.099 131.105 119.605 130.56 119.605 129.898V100.763C119.605 100.023 118.982 99.4391 118.203 99.517C113.996 99.9065 109.828 100.335 105.622 100.802C105.622 100.802 105.622 100.802 105.622 100.88C105.31 100.88 105.154 100.88 104.843 100.88C104.531 100.88 104.414 100.919 104.103 100.958C103.441 101.036 102.934 101.62 102.934 102.282V113.5C102.934 114.24 103.557 114.824 104.336 114.707C105.115 114.591 105.739 115.175 105.739 115.954V117.512C105.739 118.174 105.232 118.758 104.57 118.836C103.363 118.953 102.778 119.031 101.61 119.187C100.87 119.265 100.208 118.719 100.208 117.979V100.296C99.195 99.9454 98.6498 99.7896 97.6371 99.478C98.3772 98.5043 98.7666 98.0369 99.5067 97.0631C97.9876 95.8557 97.2475 95.2714 95.7674 94.064C97.5591 93.7524 98.4549 93.5966 100.208 93.285V87.4425C100.208 86.7803 100.714 86.1961 101.376 86.1182C102.584 85.9624 103.168 85.9234 104.336 85.7676C105.076 85.6897 105.739 86.235 105.739 86.9751V93.8692C105.739 94.6093 106.362 95.1935 107.141 95.1156V95.0767Z" fill="url(#paint3_linear_2250_2448)"/>
<path d="M113.373 78.8349C110.646 78.8349 107.959 78.718 105.349 78.5233C99.3508 78.0169 93.1188 76.9263 92.3009 72.525L91.2104 67.6952C90.0029 67.1109 89.1849 66.0203 88.8344 64.9687L88.7564 64.735V64.5013C88.7175 64.5013 88.1723 61.3853 87.8996 59.9831C87.627 58.542 87.9775 57.2566 88.6396 56.2439L88.5227 55.6207L84.2772 34.9383C82.096 34.1983 80.4991 32.2508 80.2264 29.9527C80.0317 28.2389 80.5769 26.5251 81.7064 25.2398C82.836 23.9544 84.4719 23.2533 86.1857 23.2533C87.8995 23.2533 87.0037 23.2923 87.3932 23.3702C90.0028 23.8765 91.9894 26.0967 92.1841 28.7842C92.1841 29.2516 92.1841 29.719 92.1451 30.1475L96.2349 32.7961L97.2086 27.382C96.118 26.2914 95.4948 24.7724 95.6116 23.1365C95.8064 20.2931 98.1823 18.073 101.026 18.073C103.869 18.073 101.727 18.073 102.077 18.1899C104.375 18.6183 106.167 20.5658 106.44 22.8638C106.556 23.6818 106.44 24.5387 106.167 25.2787L108.543 28.5116L111.542 19.5921L109.945 18.3846C109.166 17.8004 108.66 16.9435 108.543 15.9697C108.426 14.996 108.66 14.0222 109.283 13.2432L112.944 8.45238C113.645 7.55653 114.736 7.01123 115.866 7.01123C116.995 7.01123 117.463 7.28388 118.086 7.75128L122.877 11.4126C123.656 11.9968 124.162 12.8927 124.279 13.8664C124.396 14.8402 124.162 15.8139 123.539 16.5929L122.331 18.1509L128.252 26.9146L129.81 23.6039C129.264 22.6691 129.031 21.6174 129.109 20.4879C129.303 17.6446 131.679 15.4244 134.523 15.4244C137.366 15.4244 135.535 15.5023 136.042 15.6192C138.145 16.2034 139.703 18.073 139.937 20.2542C140.053 21.5785 139.742 22.8638 139.002 23.9155L140.17 27.0704L141.962 24.8892C141.689 24.1102 141.573 23.2923 141.651 22.4354C141.884 19.3194 144.494 16.8656 147.649 16.8656C150.804 16.8656 147.999 16.8656 148.194 16.8656C151.31 17.1382 153.686 19.8257 153.647 22.9417C153.647 24.9282 152.634 26.7199 151.076 27.8105L151.7 48.5708V48.9992C152.595 49.8172 153.141 50.8688 153.335 51.7257L153.413 51.9594V52.2321C153.452 52.5826 153.647 55.5818 153.647 56.7113C153.647 58.0356 153.18 59.1262 152.479 59.9442L152.868 65.7477C153.024 66.7214 152.868 67.5004 152.751 67.851C151.739 71.9407 141.962 74.823 136.236 76.1863C129.07 77.9001 121.124 78.7959 113.334 78.7959L113.373 78.8349Z" fill="#A56900"/>
<path d="M113.373 78.8349C110.646 78.8349 107.959 78.718 105.349 78.5233C99.3508 78.0169 93.1188 76.9263 92.3009 72.525L91.2104 67.6952C90.0029 67.1109 89.1849 66.0203 88.8344 64.9687L88.7564 64.735V64.5013C88.7175 64.5013 88.1723 61.3853 87.8996 59.9831C87.627 58.542 87.9775 57.2566 88.6396 56.2439L88.5227 55.6207L84.2772 34.9383C82.096 34.1983 80.4991 32.2508 80.2264 29.9527C80.0317 28.2389 80.5769 26.5251 81.7064 25.2398C82.836 23.9544 84.4719 23.2533 86.1857 23.2533C87.8995 23.2533 87.0037 23.2923 87.3932 23.3702C90.0028 23.8765 91.9894 26.0967 92.1841 28.7842C92.1841 29.2516 92.1841 29.719 92.1451 30.1475L96.2349 32.7961L97.2086 27.382C96.118 26.2914 95.4948 24.7724 95.6116 23.1365C95.8064 20.2931 98.1823 18.073 101.026 18.073C103.869 18.073 101.727 18.073 102.077 18.1899C104.375 18.6183 106.167 20.5658 106.44 22.8638C106.556 23.6818 106.44 24.5387 106.167 25.2787L108.543 28.5116L111.542 19.5921L109.945 18.3846C109.166 17.8004 108.66 16.9435 108.543 15.9697C108.426 14.996 108.66 14.0222 109.283 13.2432L112.944 8.45238C113.645 7.55653 114.736 7.01123 115.866 7.01123C116.995 7.01123 117.463 7.28388 118.086 7.75128L122.877 11.4126C123.656 11.9968 124.162 12.8927 124.279 13.8664C124.396 14.8402 124.162 15.8139 123.539 16.5929L122.331 18.1509L128.252 26.9146L129.81 23.6039C129.264 22.6691 129.031 21.6174 129.109 20.4879C129.303 17.6446 131.679 15.4244 134.523 15.4244C137.366 15.4244 135.535 15.5023 136.042 15.6192C138.145 16.2034 139.703 18.073 139.937 20.2542C140.053 21.5785 139.742 22.8638 139.002 23.9155L140.17 27.0704L141.962 24.8892C141.689 24.1102 141.573 23.2923 141.651 22.4354C141.884 19.3194 144.494 16.8656 147.649 16.8656C150.804 16.8656 147.999 16.8656 148.194 16.8656C151.31 17.1382 153.686 19.8257 153.647 22.9417C153.647 24.9282 152.634 26.7199 151.076 27.8105L151.7 48.5708V48.9992C152.595 49.8172 153.141 50.8688 153.335 51.7257L153.413 51.9594V52.2321C153.452 52.5826 153.647 55.5818 153.647 56.7113C153.647 58.0356 153.18 59.1262 152.479 59.9442L152.868 65.7477C153.024 66.7214 152.868 67.5004 152.751 67.851C151.739 71.9407 141.962 74.823 136.236 76.1863C129.07 77.9001 121.124 78.7959 113.334 78.7959L113.373 78.8349Z" fill="#A56900"/>
<path d="M148.739 50.8689L148.584 48.8045L147.921 26.5641C147.921 26.1746 148.155 25.8241 148.545 25.7072C149.674 25.3567 150.531 24.305 150.57 22.9807C150.57 21.5006 149.44 20.2153 147.96 20.0595C146.363 19.9037 144.922 21.1111 144.805 22.747C144.766 23.4871 145 24.1882 145.429 24.7335C145.662 25.0451 145.662 25.4735 145.429 25.7462L139.197 33.2635L135.574 23.6039C135.457 23.3313 135.574 23.0197 135.847 22.8639C136.548 22.3965 136.976 21.6175 136.899 20.6827C136.821 19.7479 136.119 18.9689 135.263 18.6963C133.782 18.2678 132.38 19.3195 132.264 20.7606C132.225 21.5786 132.575 22.3186 133.159 22.747C133.393 22.9418 133.471 23.2534 133.354 23.526L128.797 33.2635L119.137 19.0079C118.787 18.5015 118.787 17.8004 119.176 17.2941L121.085 14.8013C121.28 14.5676 121.241 14.217 120.968 14.0223L116.177 10.361C115.943 10.1662 115.593 10.2052 115.398 10.4778L111.737 15.2687C111.542 15.5024 111.581 15.8529 111.854 16.0477L114.386 17.9562C114.892 18.3457 115.087 19.0079 114.892 19.5921L109.595 35.3279L102.739 25.902C102.584 25.6683 102.623 25.3567 102.817 25.1619C103.246 24.6945 103.48 24.0324 103.402 23.3313C103.285 22.3575 102.506 21.5396 101.532 21.3449C100.13 21.0722 98.8445 22.0849 98.7666 23.4481C98.6887 24.4608 99.3118 25.3956 100.208 25.7462C100.48 25.863 100.636 26.1357 100.597 26.4083L98.5329 38.0544L89.0292 31.8613C88.6786 31.6276 88.5227 31.1602 88.7564 30.7707C89.0291 30.2644 89.1849 29.6801 89.1459 29.0569C89.0291 27.7716 88.0943 26.7199 86.8479 26.4862C84.9394 26.0967 83.1867 27.6937 83.3814 29.6801C83.4983 30.8097 84.3161 31.7834 85.4457 32.095C85.7183 32.1729 85.991 32.2119 86.2637 32.2119C86.6532 32.2119 87.0038 32.4845 87.0817 32.874L91.6387 55.0755L92.1062 57.2177C92.1062 57.2177 90.743 58.0357 91.0156 59.4768C91.2883 60.9179 91.8334 64.0339 91.8334 64.0339C91.8334 64.0339 92.262 65.3193 93.8589 65.0856L95.4169 71.9797C95.5727 72.9145 96.7022 74.7452 105.661 75.4852C114.619 76.2253 125.369 75.7189 135.613 73.2651C145.857 70.8502 149.596 68.0847 149.83 67.1889C149.908 66.9162 149.986 66.6046 149.869 66.2541L149.324 58.542C149.479 58.542 150.609 58.2304 150.609 56.8282C150.609 55.7766 150.375 52.5827 150.375 52.5827C150.375 52.5827 150.064 51.2584 148.778 50.9078L148.739 50.8689ZM149.09 56.0492V56.8672C149.129 56.8672 149.09 56.0492 149.09 56.0492Z" fill="#A56900"/>
<path d="M11.8304 155.8C5.5984 155.8 0.690674 150.892 0.690674 144.66V86.5467C0.690674 81.4443 4.11842 76.8092 9.02611 75.3291C12.8821 74.1606 16.6991 73.0311 20.3604 71.9794C21.3341 71.7068 22.3859 71.551 23.4376 71.551C24.4892 71.551 24.2166 71.551 24.6061 71.6289C25.7746 70.772 27.0988 70.1488 28.4621 69.7982C32.4739 68.7466 36.213 67.7728 39.8743 66.9159C40.7312 66.7212 41.627 66.6043 42.5618 66.6043C48.7549 66.6043 53.7795 71.6289 53.7795 77.8219V83.8981H53.8573C54.6363 83.7034 55.4543 83.6255 56.2333 83.6255C57.0123 83.6255 57.8303 83.7034 58.6093 83.8981C64.4128 82.7296 70.3333 81.639 76.2147 80.6263V75.5628C76.2147 71.4731 78.3958 67.7728 81.7845 65.7085C81.7845 65.6306 81.2781 62.6314 81.0055 61.3072C80.6549 59.3597 80.7327 57.3732 81.317 55.5036L78.0062 39.4173C75.3576 37.2751 73.644 34.198 73.2545 30.7315C72.826 27.0312 73.9944 23.331 76.4872 20.5656C78.9411 17.8001 82.4855 16.2032 86.1857 16.2032C89.886 16.2032 87.8996 16.2811 88.7565 16.4758C89.3407 16.5927 89.8861 16.7485 90.4314 16.9432C92.6516 13.3598 96.6243 11.0618 100.987 11.0618C105.349 11.0618 101.922 11.0618 102.389 11.1397C102.739 10.3607 103.168 9.65958 103.674 8.95848L107.336 4.16764C109.361 1.558 112.516 0 115.827 0C119.137 0 120.462 0.778997 122.331 2.22014L127.122 5.88144C128.33 6.81623 129.303 7.94578 130.004 9.27008C131.446 8.72478 132.965 8.41318 134.523 8.41318C136.081 8.41318 136.86 8.56898 137.95 8.88058C139.508 9.30903 140.949 10.088 142.235 11.0618C143.91 10.2828 145.779 9.85432 147.649 9.85432C149.518 9.85432 148.428 9.85432 148.817 9.89327C155.556 10.5165 160.736 16.2811 160.658 23.0194C160.658 25.7459 159.723 28.3555 158.165 30.4978L158.633 46.4283C159.334 47.5578 159.84 48.8042 160.152 50.0506L160.346 50.8686V51.7255C160.463 52.7771 160.658 55.4257 160.658 56.6721C160.658 58.3859 160.307 60.0218 159.645 61.5409V61.8135C165.449 62.9041 169.811 68.0065 169.811 74.0438V81.639C174.719 81.7169 179.549 81.8337 184.301 81.9895L188.157 82.1454L189.52 83.4307V81.0158C189.52 74.2775 194.778 69.0192 201.477 69.0192C208.177 69.0192 202.101 69.0192 202.412 69.0192C212.15 69.7982 221.926 70.8109 231.469 72.0573H231.508C237.74 72.9142 242.609 78.4841 242.609 84.7939V141.077C242.609 144.232 241.401 147.192 239.22 149.412C237 151.671 234.001 152.956 230.768 152.956C227.535 152.956 229.677 152.956 229.171 152.839C225.432 152.333 223.64 152.099 220.018 151.71C218.343 151.515 216.746 151.009 215.266 150.152C214.097 150.541 212.851 150.736 211.566 150.736C210.28 150.736 210.786 150.736 210.436 150.697C206.775 150.347 204.944 150.191 201.244 149.918C199.569 149.801 197.933 149.334 196.453 148.555C196.375 148.555 196.297 148.555 196.18 148.555C195.947 148.555 195.713 148.555 195.44 148.555C192.675 148.399 191.39 148.321 188.78 148.165C186.365 148.049 184.067 147.192 182.158 145.751C175.888 145.556 169.578 145.439 163.462 145.4C160.658 145.4 157.932 144.387 155.789 142.557C147.026 142.712 138.145 143.102 129.42 143.647C129.147 143.647 128.875 143.647 128.602 143.647C125.72 143.647 122.994 142.674 120.812 140.882C120.345 140.999 119.838 141.077 119.332 141.116C109.361 142.05 99.195 143.258 89.146 144.699C88.6007 144.777 88.0554 144.816 87.4712 144.816C85.6405 144.816 83.8489 144.387 82.2519 143.53C80.0707 143.881 78.7074 144.115 76.3315 144.543C75.6693 144.66 75.0071 144.738 74.345 144.738C73.6828 144.738 73.4881 144.738 73.0207 144.66C72.047 145.166 70.9953 145.517 69.9047 145.712C67.0614 146.257 65.6202 146.53 62.699 147.114C61.92 147.27 61.18 147.347 60.401 147.347C59.622 147.347 58.843 147.27 58.064 147.114C55.2596 147.698 53.8574 148.049 51.053 148.672C50.2351 148.867 49.3782 148.944 48.5213 148.944C46.7296 148.944 44.9378 148.516 43.3408 147.659C41.8218 148.399 40.108 148.789 38.4721 148.789C36.8362 148.789 34.3823 148.204 32.6296 147.153C31.1106 149.451 28.7736 151.204 26.0081 151.983C22.3858 152.995 18.7245 154.086 15.1411 155.176C14.0116 155.527 12.9209 155.683 11.7914 155.683L11.8304 155.8Z" fill="white"/>
<path d="M231.079 75.3287H231.041C221.537 74.0823 211.838 73.0696 202.14 72.2906C201.906 72.2906 201.672 72.2906 201.439 72.2906C196.492 72.2906 192.597 76.1856 192.597 81.1712V87.8316C191.74 87.7927 190.883 87.7537 189.831 87.6758C189.208 87.0916 188.468 86.5463 187.689 86.1568L186.832 85.3388L184.184 85.2609C178.341 85.0662 172.499 84.9104 166.695 84.8714V74.1991C166.695 69.0578 162.489 64.8512 157.347 64.8512H157.191C157.036 64.8512 156.919 64.8512 156.763 64.8512L156.49 61.073C157.152 59.8656 157.542 58.4244 157.542 56.8275C157.542 55.62 157.347 52.8936 157.308 52.0756V51.4914C157.269 51.4914 157.152 50.9071 157.152 50.9071C156.919 49.8555 156.373 48.648 155.594 47.5574L155.049 29.5626C156.607 27.8098 157.542 25.5507 157.581 23.0969C157.659 17.9555 153.686 13.5541 148.583 13.1257C148.272 13.1257 147.999 13.0867 147.688 13.0867C145.507 13.0867 143.442 13.8268 141.806 15.0732C140.638 13.632 139.002 12.5025 137.132 11.9962C136.275 11.7625 135.418 11.6456 134.562 11.6456C132.108 11.6456 129.888 12.5804 128.213 14.1384C128.213 13.9047 128.213 13.7099 128.174 13.4762C127.901 11.4898 126.888 9.69811 125.292 8.45171L120.501 4.79042C119.176 3.77772 117.54 3.23242 115.905 3.23242C114.269 3.23242 111.309 4.32302 109.906 6.19261L106.245 10.9835C105.349 12.1909 104.804 13.5541 104.687 15.0342C104.103 14.8005 103.48 14.5668 102.856 14.45C102.272 14.3331 101.688 14.2942 101.065 14.2942C96.7412 14.2942 93.0798 17.2544 92.0282 21.3052C90.8986 20.4872 89.6133 19.903 88.2111 19.6303C87.549 19.5135 86.8868 19.4356 86.2636 19.4356C83.4593 19.4356 80.7718 20.643 78.9022 22.7463C77.0326 24.8496 76.1366 27.654 76.4482 30.4584C76.7987 33.4575 78.4736 36.1061 80.9274 37.6641L84.6667 55.7758C84.0824 57.2559 83.8488 58.9308 84.1994 60.7614C84.472 62.1247 84.9784 65.1628 84.9784 65.2017L85.0562 65.7081L85.2119 66.2144C85.3677 66.6429 85.5237 67.0713 85.7574 67.4608C82.0961 68.3956 79.4474 71.7453 79.4474 75.5624V83.2355C72.748 84.3651 65.9708 85.6115 59.2325 86.9358H59.1935C59.0377 86.9747 58.843 87.0137 58.6872 87.0916C57.9471 86.8579 57.1681 86.741 56.3502 86.741C55.5322 86.741 55.1817 86.8189 54.5975 86.9358C53.0784 87.2474 51.9487 87.52 50.7802 87.7537V77.7825C50.7802 73.3033 47.158 69.681 42.6787 69.681C38.1995 69.681 41.3544 69.7589 40.7312 69.9146C37.07 70.8105 33.3697 71.7453 29.3968 72.797C27.9167 73.1865 26.6313 73.9265 25.6186 74.9392C24.9564 74.7444 24.2554 74.6665 23.5543 74.6665C22.8532 74.6665 22.0353 74.7834 21.2953 74.9781C17.6729 75.9908 13.8946 77.1204 10.0386 78.2889C6.41626 79.3795 3.92358 82.7681 3.92358 86.5463V144.66C3.92358 149.178 7.42911 152.683 11.9473 152.683C16.4655 152.683 13.5441 152.566 14.3621 152.333C17.9844 151.242 21.6847 150.151 25.307 149.1C28.5399 148.204 30.9158 145.477 31.4611 142.284C32.0843 142.829 32.7466 143.374 33.3698 143.919C34.8109 145.166 36.6805 145.828 38.589 145.828C40.4975 145.828 42.0944 145.244 43.5745 144.192C44.9767 145.322 46.7295 145.984 48.677 145.984C50.6245 145.984 49.9233 145.906 50.5465 145.789C53.3899 145.127 54.87 144.815 57.7912 144.192L58.2977 144.075C59.0377 144.309 59.7778 144.426 60.5957 144.426C61.4136 144.426 61.7252 144.387 62.2705 144.27C65.1917 143.686 66.6718 143.374 69.5152 142.829C70.6447 142.595 71.6964 142.167 72.6312 141.582C73.2544 141.738 73.8775 141.816 74.5397 141.816C75.2018 141.816 75.5135 141.777 75.9809 141.699C78.7853 141.193 80.2263 140.959 83.0697 140.492C84.394 141.388 85.9911 141.933 87.7049 141.933C89.4187 141.933 88.5227 141.933 88.9122 141.855C99.0002 140.375 109.205 139.168 119.254 138.233C120.15 138.155 121.007 137.921 121.825 137.571C121.981 137.765 122.137 137.921 122.292 138.077C124.045 139.791 126.343 140.765 128.797 140.765C131.251 140.765 129.225 140.765 129.42 140.765C138.69 140.18 148.038 139.791 157.23 139.635C158.827 141.388 161.125 142.517 163.657 142.517C170.201 142.517 176.9 142.673 183.522 142.907C185.002 144.309 186.949 145.166 189.091 145.283C191.701 145.4 193.025 145.477 195.752 145.672C195.947 145.672 196.102 145.672 196.297 145.672C196.609 145.672 196.959 145.672 197.271 145.594C198.556 146.412 199.997 146.919 201.594 147.035C205.334 147.308 207.164 147.464 210.864 147.814C211.137 147.814 211.449 147.853 211.721 147.853C213.201 147.853 214.565 147.503 215.772 146.88C217.135 147.931 218.732 148.632 220.524 148.827C224.185 149.256 225.977 149.489 229.755 149.996C230.145 150.035 230.573 150.074 230.963 150.074C233.339 150.074 235.559 149.139 237.195 147.464C238.791 145.828 239.687 143.647 239.687 141.31V85.0272C239.687 80.2753 235.987 76.0298 231.313 75.4066L231.079 75.3287Z" fill="#231500"/>
<path d="M116.684 45.0647L102.701 25.8624C102.545 25.6287 102.584 25.3171 102.778 25.1224C103.207 24.655 103.441 23.9928 103.363 23.2918C103.285 22.5907 102.467 21.5001 101.493 21.3053C100.091 21.0327 98.8056 22.0453 98.7277 23.4086C98.6498 24.7718 99.273 25.3561 100.169 25.7066C101.065 26.0572 100.597 26.0961 100.558 26.3688L96.3517 50.2061L116.723 45.1037L116.684 45.0647Z" fill="#A56900"/>
<path d="M105.583 47.6351L108.699 41.7536L98.9224 35.4048L97.6759 42.2989L105.583 47.6351Z" fill="#845100"/>
<path d="M142.975 43.4289L135.535 23.6034C135.419 23.3308 135.535 23.0192 135.808 22.8634C136.509 22.396 136.938 21.617 136.86 20.6822C136.782 19.7474 136.081 18.9684 135.224 18.6957C133.744 18.2673 132.341 19.3189 132.225 20.7601C132.108 22.2012 132.536 22.3181 133.12 22.7465C133.705 23.175 133.432 23.2529 133.315 23.5255L123.889 43.5847L142.975 43.4679V43.4289Z" fill="#A56900"/>
<path d="M130.706 42.7277L139.197 43.3119L130.199 30.1079L127.083 36.7683L130.706 42.7277Z" fill="#845100"/>
<path d="M148.623 48.8038L147.96 26.5634C147.96 26.1739 148.194 25.8234 148.584 25.7065C149.713 25.356 150.57 24.3043 150.609 22.98C150.648 21.6557 149.479 20.2146 147.999 20.0588C146.519 19.903 144.961 21.1104 144.844 22.7463C144.727 24.3822 145.039 24.1875 145.468 24.7328C145.896 25.2781 145.701 25.4728 145.468 25.7455L133.51 40.1569L119.176 18.9292C118.826 18.4229 118.826 17.7218 119.215 17.2154L121.124 14.7227C121.319 14.489 121.28 14.1384 121.007 13.9437L116.216 10.2824C115.982 10.0876 115.632 10.1266 115.437 10.3992L111.776 15.1901C111.581 15.4238 111.62 15.7743 111.893 15.9691L114.424 17.8776C114.931 18.2671 115.126 18.9292 114.931 19.5135L106.868 43.4287L89.0292 31.7827C88.6786 31.549 88.5227 31.0816 88.7564 30.6921C88.9901 30.3026 89.1849 29.6015 89.1459 28.9783C89.0291 27.693 88.0943 26.6413 86.8479 26.4076C84.9394 26.0181 83.1867 27.6151 83.3814 29.6015C83.5762 31.588 84.3161 31.7048 85.4457 32.0164C86.5752 32.328 85.991 32.1333 86.2637 32.1333C86.6532 32.1333 87.0038 32.4059 87.0817 32.7954L91.6387 54.9969L95.4559 71.9011L149.908 66.2144L148.7 48.8038H148.623Z" fill="url(#paint4_linear_2250_2448)"/>
<path d="M149.791 66.2146L148.584 48.804L147.921 26.5636C147.921 26.1741 148.116 25.8235 148.506 25.7067C149.674 25.3561 150.531 24.3045 150.57 23.0191C150.609 21.539 149.44 20.2147 147.921 20.0589C146.324 19.9031 144.922 21.1106 144.805 22.7465C144.766 23.4865 145 24.1876 145.429 24.7329C145.662 25.0445 145.662 25.473 145.429 25.7456L133.471 40.1571L128.953 33.4577L112.204 70.1485L149.83 66.2146H149.791Z" fill="url(#paint5_linear_2250_2448)"/>
<path d="M120.423 57.217C137.756 55.1137 149.207 57.8402 149.207 57.8402V56.8664C149.168 56.8664 149.09 56.0485 149.09 56.0485C148.895 56.0095 138.028 53.4388 120.89 55.3474C120.189 55.4253 119.488 55.5032 118.787 55.62L117.891 57.5675C118.709 57.4507 119.527 57.3338 120.423 57.2559V57.217Z" fill="url(#paint6_linear_2250_2448)"/>
<path d="M149.168 56.8663V56.0483C149.129 56.0483 149.129 56.0483 149.129 56.0483V56.8663H149.168Z" fill="#775200"/>
<path d="M118.826 55.5811C102.818 57.6454 93.1968 62.0857 93.1968 62.0857L93.5863 63.9163C93.5863 63.9163 99.7404 59.9824 117.93 57.5285L118.826 55.5811Z" fill="url(#paint7_linear_2250_2448)"/>
<path d="M93.1966 62.1245C93.1966 62.1245 104.843 56.8273 121.708 55.2694C138.612 53.7114 149.09 56.0484 149.09 56.0484L149.246 58.5022C149.246 58.5022 150.531 58.2685 150.531 56.7884C150.531 55.3083 150.297 52.5429 150.297 52.5429C150.297 52.5429 149.986 51.2186 148.7 50.868C147.415 50.5175 141.105 48.0636 121.241 50.089C101.376 52.1144 91.9893 57.1389 91.9893 57.1389C91.9893 57.1389 90.6259 57.9569 90.8986 59.398C91.1712 60.8392 91.7166 63.9552 91.7166 63.9552C91.7166 63.9552 92.1451 65.2405 93.7421 65.0068L93.1188 62.1245H93.1966Z" fill="#A56900"/>
<path d="M95.3779 71.9014C95.2221 70.8887 98.3771 68.318 108.894 65.6304C119.41 62.9429 135.107 61.8133 142.78 63.1766C150.453 64.5398 150.025 66.2536 149.791 67.1495C149.557 68.0453 145.818 70.7718 135.574 73.2256C125.33 75.6405 114.58 76.1858 105.622 75.4458C96.6633 74.7057 95.5337 72.8362 95.3779 71.9403V71.9014Z" fill="url(#paint8_linear_2250_2448)"/>
<path d="M147.454 64.3447C146.792 64.5784 146.286 64.89 146.286 64.89C146.286 64.89 148.584 65.3574 149.791 66.8765C149.908 66.2143 149.791 65.2795 147.415 64.3837L147.454 64.3447Z" fill="#D8691E"/>
<path d="M126.538 71.6287C134.367 70.616 139.859 69.1359 144.455 66.9158C146.208 66.0589 147.454 65.3188 148.311 64.7346C147.259 64.1893 145.546 63.644 142.78 63.1766C135.107 61.8133 119.449 62.9429 108.894 65.6304C102.116 67.3442 98.4162 69.0191 96.6635 70.2655C97.4035 70.8108 99.3509 71.6287 104.181 72.174C111.932 73.0309 118.709 72.6025 126.577 71.6287H126.538Z" fill="#A56900"/>
<path d="M147.454 65.2799C147.766 65.0851 148.038 64.9293 148.272 64.7346C147.22 64.1893 145.507 63.644 142.741 63.1766C135.068 61.8133 119.41 62.9429 108.855 65.6304C102.077 67.3442 98.3773 69.0191 96.6245 70.2655C96.6245 70.2655 107.102 66.0589 122.409 64.3451C135.419 62.9039 144.143 64.0335 147.454 65.2409V65.2799Z" fill="#845100"/>
<path d="M94.2875 54.3733C94.0538 54.3733 93.82 54.2175 93.781 53.9838L93.3527 51.9974C93.3138 51.7247 93.4696 51.4521 93.7422 51.4131C94.0149 51.3742 94.2875 51.53 94.3265 51.8026L94.7548 53.7891C94.7937 54.0617 94.6379 54.3344 94.3653 54.3733C94.3653 54.3733 94.3264 54.3733 94.2875 54.3733Z" fill="white"/>
<path d="M93.2747 49.5828C93.041 49.5828 92.8074 49.427 92.7684 49.1933L90.1977 36.8851C90.1587 36.6124 90.3145 36.3398 90.5872 36.3008C90.8598 36.2619 91.1325 36.4177 91.1714 36.6903L93.7422 48.9985C93.7811 49.2712 93.6253 49.5438 93.3527 49.5828C93.3527 49.5828 93.3136 49.5828 93.2747 49.5828Z" fill="white"/>
<path d="M84.9004 31.2372C84.0435 30.4582 83.6151 29.2508 83.9657 28.1602C83.9657 28.4328 84.0045 28.6665 84.0824 28.9002C84.2382 29.3676 84.5109 29.7571 84.9004 30.0297C85.0562 30.1466 85.2899 30.3024 85.4457 30.3413C85.7183 30.4192 85.8742 30.7308 85.7574 31.0035C85.6405 31.354 85.1341 31.4709 84.8614 31.1982L84.9004 31.2372Z" fill="white"/>
<path d="M109.361 43.1561C109.283 43.1561 109.166 43.1561 109.088 43.1561C108.738 43.0392 108.582 42.6887 108.699 42.3381L116.06 20.9157C116.177 20.5651 116.528 20.4093 116.878 20.5262C117.229 20.643 117.385 20.9936 117.268 21.3441L109.906 42.7666C109.828 43.0003 109.595 43.156 109.361 43.195V43.1561Z" fill="white"/>
<path d="M116.099 18.0337C115.944 17.9168 112.477 15.424 112.438 15.3851L112.711 15.0735L115.866 11.1006L113.412 15.2293" fill="white"/>
<path d="M136.743 40.5074C136.548 40.5853 136.353 40.5074 136.198 40.3905C135.925 40.1958 135.925 39.8063 136.12 39.5726L144.922 28.8224C145.117 28.5497 145.507 28.5497 145.74 28.7445C146.013 28.9392 146.013 29.3287 145.818 29.5624L137.015 40.3126C136.938 40.3905 136.86 40.4684 136.743 40.5074Z" fill="white"/>
<path d="M157.308 109.059C153.53 109.098 151.622 109.137 147.844 109.254C146.714 109.254 145.857 110.189 145.857 111.318V116.966C145.857 118.135 144.961 119.031 143.793 119.031C142.624 119.031 142.975 119.07 142.585 119.07C141.339 119.07 140.326 118.057 140.326 116.81V88.1043C140.326 86.9748 141.183 86.04 142.352 86.001C142.819 86.001 143.053 86.001 143.52 85.9621C144.805 85.9231 145.896 86.9748 145.896 88.2212V93.1678C145.896 94.4532 146.948 95.5048 148.272 95.4659C152.089 95.349 153.959 95.3101 157.776 95.2711C158.905 95.2711 159.762 94.3753 159.762 93.2457V74.1603C159.762 72.8749 158.672 71.7843 157.386 71.8233C155.127 71.8622 152.868 71.9012 150.57 71.9791C148.272 72.057 150.025 72.057 149.791 72.2128C146.324 74.3161 141.066 75.913 136.509 77.0036C133.705 77.6658 130.822 78.2111 127.862 78.6006C124.902 78.9901 126.499 79.3796 126.499 80.1586V131.456C126.499 132.741 127.589 133.754 128.875 133.637C138.495 133.014 148.116 132.624 157.776 132.468C158.905 132.468 159.762 131.572 159.762 130.443V111.357C159.762 110.072 158.672 109.02 157.386 109.02L157.308 109.059Z" fill="#EDEDED"/>
<path d="M183.95 92.2332C177.056 91.9995 170.162 91.8438 163.268 91.8438C162.45 91.8438 161.827 92.4669 161.827 93.2849V133.715C161.827 134.611 162.605 135.39 163.54 135.39C170.434 135.39 177.329 135.546 184.223 135.818C185.041 135.818 185.664 135.234 185.664 134.455V94.0249C185.664 93.0901 184.885 92.3112 183.989 92.2722L183.95 92.2332ZM175.732 124.172C175.732 124.99 175.108 125.613 174.291 125.574C173.94 125.574 173.784 125.574 173.473 125.574C172.577 125.574 171.798 124.756 171.798 123.861V116.226C170.707 115.408 170.162 115.019 169.032 114.24C170.123 113.967 170.668 113.811 171.798 113.539C170.707 112.643 170.162 112.215 169.071 111.319C170.162 111.046 170.707 110.89 171.798 110.657V103.217C171.798 102.399 172.421 101.776 173.239 101.815C173.589 101.815 173.745 101.815 174.057 101.815C174.953 101.815 175.732 102.633 175.732 103.529V124.133V124.172Z" fill="#EDEDED"/>
<path d="M196.064 138.545C193.376 138.389 192.013 138.311 189.286 138.155C188.39 138.116 187.612 137.298 187.612 136.363V95.9334C187.612 95.1155 188.235 94.5312 189.053 94.5702C191.779 94.726 193.103 94.7649 195.83 94.9597C196.726 94.9986 197.505 95.8555 197.505 96.7514V137.181C197.505 137.999 196.882 138.584 196.064 138.545Z" fill="#EDEDED"/>
<path d="M229.56 94.6867C230.729 93.0508 231.313 92.2329 232.482 90.597V84.9882C232.482 83.7029 231.391 82.4954 230.145 82.3007C220.641 81.0543 211.137 80.0805 201.633 79.3015C200.504 79.2236 199.647 80.0416 199.647 81.1711V137.454C199.647 138.739 200.738 139.908 201.984 139.985C205.762 140.258 207.632 140.414 211.371 140.803C212.5 140.92 213.357 140.141 213.357 139.012V96.1668C213.357 95.0373 214.214 94.2583 215.344 94.3751C215.811 94.4141 216.045 94.453 216.512 94.492C217.759 94.6478 218.849 95.8552 218.849 97.1016V139.245C218.849 140.531 219.94 141.738 221.186 141.894C224.925 142.322 226.795 142.556 230.534 143.063C231.664 143.218 232.521 142.478 232.521 141.349V95.7773C231.352 95.3878 230.768 95.1931 229.599 94.8036L229.56 94.6867Z" fill="#EDEDED"/>
<path d="M126.421 109.761V131.456C126.421 132.741 127.512 133.754 128.797 133.637C138.418 133.014 148.038 132.625 157.698 132.469C158.827 132.469 159.684 131.573 159.684 130.443V111.358C159.684 110.073 158.594 109.021 157.308 109.021C153.53 109.06 151.622 109.099 147.844 109.216C146.714 109.216 145.857 110.15 145.857 111.28V116.928C145.857 118.057 145 118.953 143.832 118.992C143.364 118.992 143.131 118.992 142.663 119.031C141.378 119.07 140.287 118.057 140.287 116.772V106.957C135.652 107.852 131.056 108.787 126.421 109.683V109.761Z" fill="#DBDBDB"/>
<path d="M185.625 134.416V99.9453C177.718 100.685 169.772 101.776 161.827 103.1V133.676C161.827 134.611 162.605 135.39 163.54 135.39C170.434 135.39 177.329 135.546 184.223 135.818C185.041 135.818 185.664 135.273 185.664 134.455L185.625 134.416ZM175.732 124.172C175.732 124.99 175.108 125.613 174.291 125.574C173.94 125.574 173.784 125.574 173.434 125.574C172.538 125.574 171.759 124.756 171.759 123.861V116.226C170.668 115.447 170.123 115.019 168.993 114.24C170.084 113.967 170.629 113.811 171.759 113.539C170.668 112.643 170.123 112.215 169.032 111.319C170.123 111.046 170.668 110.929 171.759 110.657V103.217C171.759 102.399 172.382 101.776 173.2 101.815C173.551 101.815 173.706 101.815 174.057 101.815C174.953 101.815 175.732 102.633 175.732 103.568V124.172Z" fill="#DBDBDB"/>
<path d="M189.286 138.155C192.013 138.272 193.337 138.35 196.064 138.545C196.882 138.584 197.505 137.999 197.505 137.182V99.1274C194.233 99.2443 190.922 99.478 187.612 99.7506V136.364C187.612 137.298 188.39 138.116 189.286 138.155Z" fill="#DBDBDB"/>
<path d="M201.984 139.947C205.762 140.219 207.632 140.375 211.371 140.765C212.5 140.882 213.357 140.103 213.357 138.973V99.2831C208.8 99.0494 204.243 99.0104 199.647 99.1273V137.454C199.647 138.739 200.738 139.908 201.984 139.986V139.947Z" fill="#DBDBDB"/>
<path d="M218.81 99.6338V139.168C218.81 140.453 219.901 141.661 221.147 141.817C224.886 142.245 226.756 142.479 230.495 142.985C231.625 143.141 232.482 142.401 232.482 141.271V101.581C227.963 100.685 223.406 100.062 218.849 99.6338H218.81Z" fill="#DBDBDB"/>
<path d="M48.2096 127.95C44.1977 124.484 40.1859 121.056 36.1351 117.628C35.3561 117.005 35.8624 115.603 36.9141 115.33C39.1342 114.746 40.2639 114.473 42.523 113.928C43.1852 113.772 43.6915 113.149 43.6915 112.487V77.8216C43.6915 77.0816 43.0683 76.5752 42.3283 76.7699C38.5891 77.6658 34.8498 78.6396 31.1496 79.6133C30.4874 79.7691 29.9811 80.4312 29.9811 81.0934V102.165C29.9811 102.827 29.4747 103.49 28.8126 103.645C27.6441 103.957 27.0598 104.113 25.8913 104.424C25.1513 104.619 24.5281 104.152 24.5281 103.412V96.167C24.4112 96.167 24.3334 96.167 24.2166 96.167C23.0481 96.2449 22.4248 96.3228 21.2563 96.4007C22.5806 94.0248 23.2427 92.8173 24.5281 90.4414V82.6903C24.5281 81.9503 23.9049 81.4829 23.1648 81.6776C19.4646 82.7293 15.7254 83.8199 12.0641 84.9494C11.402 85.1442 10.8956 85.8063 10.8956 86.4685V144.582C10.8956 145.322 11.5188 145.789 12.2589 145.555C15.9591 144.426 19.6594 143.335 23.3596 142.284C24.0217 142.089 24.5281 141.427 24.5281 140.804V130.482C24.5281 129.352 25.8914 128.495 26.7093 129.158C30.4485 132.235 34.1876 135.39 37.8878 138.506C38.3552 138.895 39.0954 138.817 39.6018 138.311C42.4451 135.467 45.2885 132.624 48.1708 129.781C48.755 129.235 48.7938 128.34 48.2486 127.911L48.2096 127.95Z" fill="url(#paint9_linear_2250_2448)"/>
<path d="M56.1943 137.298C53.2731 137.921 51.793 138.272 48.8329 138.934C48.0928 139.09 47.4696 138.622 47.4696 137.843V96.8289C47.4696 96.1668 47.976 95.5436 48.6381 95.3878C51.5593 94.7256 53.0394 94.3751 55.9996 93.7519C56.7396 93.5961 57.3628 94.1024 57.3628 94.8425V135.857C57.3628 136.519 56.8565 137.142 56.1943 137.298Z" fill="url(#paint10_linear_2250_2448)"/>
<path d="M81.2002 93.0897C81.9792 93.0118 82.3687 93.0118 83.1477 92.9339V91.1032C83.1477 90.3632 82.5245 89.8179 81.7455 89.9347C74.6177 91.1032 67.5677 92.4275 60.4788 93.8297C59.8167 93.9855 59.3103 94.5698 59.3103 95.2319V136.246C59.3103 136.986 59.9335 137.493 60.6735 137.337C63.5948 136.753 65.075 136.441 68.0352 135.896C68.6974 135.779 69.2037 135.156 69.2037 134.493V123.042C68.4637 122.302 68.1131 121.913 67.412 121.134C67.6067 120.121 67.7235 119.615 67.8793 118.602C68.4246 118.057 68.6584 117.784 69.2037 117.239V103.139C69.2037 102.477 69.7101 101.853 70.3722 101.737C70.9565 101.62 71.229 101.581 71.7743 101.503C72.5143 101.386 73.1375 101.892 73.1375 102.632V133.52C73.1375 134.26 73.7608 134.805 74.5398 134.649C77.4999 134.143 78.98 133.87 81.9012 133.403C82.5634 133.286 83.0697 132.702 83.0697 132.04V97.2184C82.7192 97.2184 82.5245 97.2573 82.174 97.2963C82.3298 96.751 82.4077 96.4783 82.5635 95.933C81.395 95.8162 80.8107 95.7772 79.6422 95.6604C80.1096 95.2319 80.3823 94.9982 80.8497 94.5308C80.9666 93.9076 81.0054 93.596 81.1222 93.0118L81.2002 93.0897Z" fill="url(#paint11_linear_2250_2448)"/>
<path d="M118.436 93.9469C119.099 93.869 119.605 93.3237 119.605 92.6616V80.9766C119.605 80.1586 118.904 79.4965 118.086 79.5354C116.489 79.6133 114.931 79.6523 113.334 79.6523C110.568 79.6523 107.881 79.5354 105.271 79.3407C99.8182 78.8733 94.2096 77.9385 92.1842 74.5109C90.1588 71.0833 91.3272 73.7319 90.7429 73.8098C89.6523 73.9656 88.6008 74.1214 87.5102 74.2772C86.848 74.3941 86.3417 74.9783 86.3417 75.6404V133.754C86.3417 134.494 87.0037 135.039 87.7437 134.922C97.9486 133.442 108.193 132.235 118.436 131.261C119.099 131.222 119.605 130.638 119.605 129.976V100.841C119.605 100.101 118.982 99.5167 118.203 99.5946C113.996 99.9841 109.828 100.413 105.622 100.88C105.622 100.88 105.622 100.88 105.622 100.958C105.31 100.958 105.154 100.958 104.843 100.958C104.531 100.958 104.375 100.997 104.103 101.036C103.441 101.114 102.934 101.698 102.934 102.36V113.578C102.934 114.318 103.557 114.902 104.336 114.785C105.076 114.707 105.739 115.253 105.739 116.032V117.59C105.739 118.252 105.232 118.836 104.57 118.914C103.363 119.031 102.778 119.109 101.571 119.264C100.831 119.342 100.169 118.797 100.169 118.057V100.374C99.1172 100.023 98.6109 99.8673 97.5982 99.5557C98.3382 98.5819 98.7276 98.1145 99.4677 97.1408C97.9876 95.9334 97.2085 95.3491 95.7284 94.1417C97.5201 93.8301 98.4161 93.6743 100.169 93.3627V87.5202C100.169 86.858 100.675 86.2738 101.337 86.1959C102.545 86.0401 103.129 86.0011 104.336 85.8453C105.076 85.7674 105.739 86.3127 105.739 87.0917V93.9859C105.739 94.7259 106.401 95.3101 107.141 95.2322C110.919 94.8038 114.658 94.4143 118.436 94.1027V93.9469Z" fill="url(#paint12_linear_2250_2448)"/>
<path d="M48.8329 138.934C51.7541 138.272 53.2342 137.921 56.1943 137.298C56.8565 137.142 57.3628 136.519 57.3628 135.857V118.057C54.0521 118.018 50.7414 117.862 47.4696 117.589V137.843C47.4696 138.583 48.0928 139.09 48.8329 138.934Z" fill="url(#paint13_linear_2250_2448)"/>
<path d="M47.3918 133.287C48.054 132.624 48.716 131.962 49.4171 131.3C50.1182 130.638 50.4689 129.703 50.4689 128.768C50.4689 127.912 50.0793 127.133 49.4171 126.548C48.755 125.964 48.0928 125.38 47.4306 124.834V133.326L47.3918 133.287Z" fill="#231500"/>
<path d="M48.0928 129.82C48.677 129.236 48.716 128.379 48.1707 127.911C44.1589 124.445 40.1471 121.017 36.0963 117.59C35.6678 117.239 35.6288 116.655 35.8625 116.148C27.3715 114.707 19.0361 112.448 10.8176 109.06V144.621C10.8176 145.361 11.4408 145.828 12.1809 145.595C15.8811 144.465 19.5814 143.374 23.2816 142.323C23.9437 142.128 24.4501 141.466 24.4501 140.804V130.482C24.4501 129.352 25.8134 128.496 26.6313 129.158C30.3705 132.274 34.1098 135.39 37.81 138.506C38.2774 138.895 39.0174 138.817 39.5238 138.311C42.3671 135.468 45.2105 132.624 48.0928 129.781V129.82Z" fill="url(#paint14_linear_2250_2448)"/>
<path d="M73.2156 117.667V133.598C73.2156 134.338 73.8778 134.883 74.6178 134.728C77.578 134.221 79.0581 133.949 81.9793 133.481C82.6415 133.364 83.1478 132.78 83.1478 132.118V116.811C79.8371 117.161 76.5263 117.473 73.2156 117.667Z" fill="url(#paint15_linear_2250_2448)"/>
<path d="M60.7125 137.337C63.6338 136.714 65.1138 136.441 68.074 135.896C68.7362 135.779 69.2425 135.156 69.2425 134.493V123.042C68.5414 122.263 68.1521 121.913 67.451 121.134C67.6457 120.121 67.7625 119.615 67.9183 118.602C68.1909 118.329 68.3858 118.096 68.6195 117.862C65.5035 118.018 62.4263 118.057 59.3103 118.057V136.207C59.3103 136.947 59.9335 137.454 60.6735 137.298L60.7125 137.337Z" fill="url(#paint16_linear_2250_2448)"/>
<path d="M103.129 114.006C103.363 114.435 103.83 114.746 104.375 114.668C105.115 114.59 105.778 115.136 105.778 115.915V117.473C105.778 118.135 105.271 118.719 104.609 118.797C103.402 118.914 102.817 118.992 101.61 119.148C100.87 119.225 100.208 118.68 100.208 117.94V114.513C95.5727 115.253 90.9378 115.915 86.3417 116.46V133.676C86.3417 134.416 87.0037 134.961 87.7437 134.844C97.9486 133.364 108.193 132.157 118.436 131.183C119.099 131.144 119.605 130.56 119.605 129.898V111.085C114.113 112.137 108.582 113.149 103.09 114.045L103.129 114.006Z" fill="url(#paint17_linear_2250_2448)"/>
<path d="M88.4449 133.17L115.71 130.015C115.71 130.015 118.436 129.625 118.436 127.288V116.071L116.995 126.47C116.995 126.47 116.723 127.444 115.749 127.717C114.775 127.989 88.4839 133.17 88.4839 133.17H88.4449Z" fill="#703500"/>
<path d="M12.5704 144.154L21.8016 141.31C21.8016 141.31 23.5934 141.038 23.5934 139.519V132.118L22.6586 138.973C22.6586 138.973 22.5028 139.713 21.8796 140.064C21.2564 140.414 12.5704 144.154 12.5704 144.154Z" fill="#703500"/>
<path d="M48.8328 138.116L55.4153 136.48C55.4153 136.48 56.8175 136.286 56.8175 135.078V129.313L56.0775 134.65C56.0775 134.65 55.9606 135.234 55.4542 135.507C54.9479 135.779 48.8328 138.116 48.8328 138.116Z" fill="#703500"/>
<path d="M60.6348 136.286L67.2173 134.962C67.2173 134.962 68.6195 134.767 68.6195 133.56V127.795L67.8793 133.131C67.8793 133.131 67.7626 133.715 67.2562 133.988C66.7499 134.261 60.6348 136.286 60.6348 136.286Z" fill="#703500"/>
<path d="M74.423 133.715L81.0055 132.508C81.0055 132.508 82.4077 132.313 82.4077 131.105V125.341L81.6677 130.677C81.6677 130.677 81.5508 131.261 81.0445 131.534C80.5381 131.807 74.423 133.676 74.423 133.676V133.715Z" fill="#703500"/>
<path d="M39.2511 137.415L46.4958 130.171C46.4958 130.171 47.6644 128.924 46.418 127.561C45.1716 126.198 42.0166 123.471 42.0166 123.471L45.7948 128.145C45.7948 128.145 46.2232 128.613 45.7948 129.197C45.3663 129.781 39.2123 137.376 39.2123 137.376L39.2511 137.415Z" fill="#703500"/>
<path d="M131.368 132.079L156.374 131.495C156.374 131.495 158.711 131.183 158.711 128.846V117.629L157.308 127.834C157.308 127.834 157.036 129.041 156.023 129.275C155.01 129.509 131.368 132.079 131.368 132.079Z" fill="#919191"/>
<path d="M168.137 134.143H182.587C182.587 134.143 184.301 133.91 184.301 132.196V123.938L183.249 131.456C183.249 131.456 183.054 132.352 182.314 132.546C181.574 132.741 168.098 134.182 168.098 134.182L168.137 134.143Z" fill="#919191"/>
<path d="M189.013 137.221L195.168 137.688C195.168 137.688 196.687 137.922 196.609 136.208C196.531 134.494 196.609 127.717 196.609 127.717L195.791 135.74C195.791 135.74 195.713 136.558 195.09 136.558C194.466 136.558 189.013 137.221 189.013 137.221Z" fill="#919191"/>
<path d="M204.516 139.012L210.67 139.479C210.67 139.479 212.189 139.713 212.111 137.999C212.033 136.286 212.111 129.508 212.111 129.508L211.293 137.532C211.293 137.532 211.215 138.35 210.592 138.35C209.969 138.35 204.516 139.012 204.516 139.012Z" fill="#919191"/>
<path d="M223.796 140.96L229.95 141.778C229.95 141.778 231.469 142.012 231.391 140.298C231.313 138.584 231.391 131.807 231.391 131.807L230.573 139.83C230.573 139.83 230.495 140.648 229.872 140.648C229.249 140.648 223.796 140.96 223.796 140.96Z" fill="#919191"/>
<path d="M49.378 124.055C48.9106 124.055 48.5212 123.666 48.5212 123.199V120.433C48.5212 119.966 48.9106 119.576 49.378 119.576C49.8454 119.576 50.235 119.966 50.235 120.433V123.199C50.235 123.666 49.8454 124.055 49.378 124.055Z" fill="white"/>
<path d="M49.378 118.485C48.9106 118.485 48.5212 118.096 48.5212 117.628V101.269C48.5212 100.802 48.9106 100.413 49.378 100.413C49.8454 100.413 50.235 100.802 50.235 101.269V117.628C50.235 118.096 49.8454 118.485 49.378 118.485Z" fill="white"/>
<path d="M61.4915 129.158C61.0242 129.158 60.6348 128.769 60.6348 128.301V104.97C60.6348 104.503 61.0242 104.113 61.4915 104.113C61.9589 104.113 62.3485 104.503 62.3485 104.97V128.301C62.3485 128.769 61.9589 129.158 61.4915 129.158Z" fill="white"/>
<path d="M11.9474 104.308V89.8964C11.9474 89.8964 11.7137 87.0141 14.4401 86.0793C17.1666 85.1445 22.8144 83.937 22.8144 83.937L14.5179 87.3257C14.5179 87.3257 13.038 88.1047 13.1159 89.9742C13.1938 91.8438 11.9862 104.308 11.9862 104.308H11.9474Z" fill="white"/>
<path d="M163.151 111.163V94.8823C163.151 94.8823 163.112 93.4411 165.449 93.3632C167.786 93.2853 176.277 93.3632 176.277 93.3632L165.994 94.6875C165.994 94.6875 164.475 94.8433 164.397 96.5961C164.319 98.3488 163.151 111.163 163.151 111.163Z" fill="white"/>
<path d="M201.01 103.101V83.0025C201.01 83.0025 200.971 80.8992 203.853 81.1329C205.762 81.2887 217.213 82.3403 217.213 82.3403L204.516 82.7688C204.516 82.7688 202.646 82.9635 202.529 85.1058C202.412 87.248 201.01 103.101 201.01 103.101Z" fill="white"/>
<path d="M188.234 109.215V97.0631C188.234 97.0631 188.235 95.8946 189.948 95.9336C191.662 95.9725 195.168 96.3231 195.168 96.3231L190.377 96.9463C190.377 96.9463 189.247 97.0631 189.169 98.3485C189.091 99.6338 188.234 109.254 188.234 109.254V109.215Z" fill="white"/>
<defs>
<linearGradient id="paint0_linear_2250_2448" x1="29.7084" y1="73.3813" x2="29.7084" y2="145.205" gradientUnits="userSpaceOnUse">
<stop stop-color="#FFA531"/>
<stop offset="1" stop-color="#FFE531"/>
</linearGradient>
<linearGradient id="paint1_linear_2250_2448" x1="52.4162" y1="71.2783" x2="52.4162" y2="138.506" gradientUnits="userSpaceOnUse">
<stop stop-color="#FFA531"/>
<stop offset="1" stop-color="#FFE531"/>
</linearGradient>
<linearGradient id="paint2_linear_2250_2448" x1="71.268" y1="68.1233" x2="71.268" y2="136.909" gradientUnits="userSpaceOnUse">
<stop stop-color="#FFA531"/>
<stop offset="1" stop-color="#FFE531"/>
</linearGradient>
<linearGradient id="paint3_linear_2250_2448" x1="102.973" y1="67.4222" x2="102.973" y2="134.377" gradientUnits="userSpaceOnUse">
<stop stop-color="#FFA531"/>
<stop offset="1" stop-color="#FFE531"/>
</linearGradient>
<linearGradient id="paint4_linear_2250_2448" x1="154.129" y1="33.3452" x2="84.0455" y2="52.2591" gradientUnits="userSpaceOnUse">
<stop stop-color="#FFA531"/>
<stop offset="1" stop-color="#FFE531"/>
</linearGradient>
<linearGradient id="paint5_linear_2250_2448" x1="155.528" y1="42.1537" x2="107.786" y2="55.0153" gradientUnits="userSpaceOnUse">
<stop stop-color="#ED812C"/>
<stop offset="1" stop-color="#F3B436"/>
</linearGradient>
<linearGradient id="paint6_linear_2250_2448" x1="148.213" y1="53.7737" x2="118.745" y2="61.7362" gradientUnits="userSpaceOnUse">
<stop stop-color="#EB6928"/>
<stop offset="1" stop-color="#EF932F"/>
</linearGradient>
<linearGradient id="paint7_linear_2250_2448" x1="118.827" y1="56.7828" x2="93.2226" y2="63.6947" gradientUnits="userSpaceOnUse">
<stop stop-color="#F3B035"/>
<stop offset="1" stop-color="#F7D03C"/>
</linearGradient>
<linearGradient id="paint8_linear_2250_2448" x1="150.114" y1="64.2975" x2="89.7475" y2="77.3085" gradientUnits="userSpaceOnUse">
<stop stop-color="#FF9127"/>
<stop offset="1" stop-color="#FFC224"/>
</linearGradient>
<linearGradient id="paint9_linear_2250_2448" x1="29.7084" y1="73.3813" x2="29.7084" y2="145.205" gradientUnits="userSpaceOnUse">
<stop stop-color="#FFA531"/>
<stop offset="1" stop-color="#FFE531"/>
</linearGradient>
<linearGradient id="paint10_linear_2250_2448" x1="52.4162" y1="71.2778" x2="52.4162" y2="138.505" gradientUnits="userSpaceOnUse">
<stop stop-color="#FFA531"/>
<stop offset="1" stop-color="#FFE531"/>
</linearGradient>
<linearGradient id="paint11_linear_2250_2448" x1="71.268" y1="68.1228" x2="71.268" y2="136.908" gradientUnits="userSpaceOnUse">
<stop stop-color="#FFA531"/>
<stop offset="1" stop-color="#FFE531"/>
</linearGradient>
<linearGradient id="paint12_linear_2250_2448" x1="102.973" y1="137.766" x2="102.973" y2="74.1604" gradientUnits="userSpaceOnUse">
<stop stop-color="#FFA531"/>
<stop offset="1" stop-color="#FFE531"/>
</linearGradient>
<linearGradient id="paint13_linear_2250_2448" x1="2.91109" y1="128.301" x2="118.086" y2="128.301" gradientUnits="userSpaceOnUse">
<stop stop-color="#FF8200"/>
<stop offset="1" stop-color="#FFC800"/>
</linearGradient>
<linearGradient id="paint14_linear_2250_2448" x1="2.91077" y1="127.366" x2="118.086" y2="127.366" gradientUnits="userSpaceOnUse">
<stop stop-color="#FF8200"/>
<stop offset="1" stop-color="#FFC800"/>
</linearGradient>
<linearGradient id="paint15_linear_2250_2448" x1="2.911" y1="125.769" x2="118.086" y2="125.769" gradientUnits="userSpaceOnUse">
<stop stop-color="#FF8200"/>
<stop offset="1" stop-color="#FFC800"/>
</linearGradient>
<linearGradient id="paint16_linear_2250_2448" x1="2.91084" y1="127.638" x2="118.086" y2="127.638" gradientUnits="userSpaceOnUse">
<stop stop-color="#FF8200"/>
<stop offset="1" stop-color="#FFC800"/>
</linearGradient>
<linearGradient id="paint17_linear_2250_2448" x1="2.91107" y1="122.965" x2="118.086" y2="122.965" gradientUnits="userSpaceOnUse">
<stop stop-color="#FF8200"/>
<stop offset="1" stop-color="#FFC800"/>
</linearGradient>
</defs>
</svg>
