<svg width="97" height="67" viewBox="0 0 97 67" fill="none" xmlns="http://www.w3.org/2000/svg">
    <path d="M0 12C0 5.37258 5.37258 0 12 0H85C91.6274 0 97 5.37258 97 12V67H95V12C95 6.47715 90.5228 2 85 2H12C6.47715 2 2 6.47715 2 12V67H0V12Z"
          fill="white"/>
    <path d="M2 12C2 6.47715 6.47715 2 12 2H85C90.5228 2 95 6.47715 95 12V67H2V12Z"
          fill="url(#paint0_radial_2503_5863)"/>
    <path d="M95 21.1116C95 19.9258 92.9562 19.6337 92.5488 20.7474C85.1305 41.0302 69.0301 57.1305 48.7474 64.5489C47.6337 64.9562 47.9258 67.0001 49.1116 67.0001H94C94.5523 67.0001 95 66.5523 95 66.0001V21.1116Z"
          fill="#703500" fill-opacity="0.2"/>
    <path d="M2.46271 67.0001C3.01088 67.0001 3.12169 66.1405 2.59608 65.9848C2.29825 65.8966 2 66.1195 2 66.4301V66.5376C2 66.793 2.20728 67.0001 2.46271 67.0001Z"
          fill="#703500" fill-opacity="0.2"/>
    <path d="M19.2661 5.63794C20.4021 5.41585 20.6071 3.99841 19.4495 4C14.7303 4.00651 10.0557 6.07262 6.87218 10.0398C5.57354 11.6582 4.63749 13.4502 4.05325 15.3178C3.70551 16.4293 5.15384 16.6402 5.70541 15.6144C6.26422 14.5752 6.92494 13.5727 7.68913 12.6204C10.7083 8.85797 14.8409 6.50309 19.2661 5.63794Z"
          fill="white"/>
    <defs>
        <radialGradient id="paint0_radial_2503_5863" cx="0" cy="0" r="1" gradientUnits="userSpaceOnUse"
                        gradientTransform="translate(48.5 -5.67361) rotate(90) scale(78.0903 111.729)">
            <stop stop-color="white"/>
            <stop offset="0.2" stop-color="#FFE531"/>
            <stop offset="0.740319" stop-color="#FFA531"/>
            <stop offset="1" stop-color="#FF8200"/>
        </radialGradient>
    </defs>
</svg>
