<svg width="133" height="67" viewBox="0 0 133 67" fill="none" xmlns="http://www.w3.org/2000/svg">
<path d="M0 12C0 5.37258 5.37258 0 12 0H121C127.627 0 133 5.37258 133 12V67H131V12C131 6.47715 126.523 2 121 2H12C6.47715 2 2 6.47715 2 12V67H0V12Z" fill="white"/>
<path d="M2 12C2 6.47715 6.47715 2 12 2H121C126.523 2 131 6.47715 131 12V67H2V12Z" fill="url(#paint0_radial_2481_11690)"/>
<path d="M131 21.1116C131 19.9258 128.956 19.6337 128.549 20.7474C121.13 41.0302 105.03 57.1305 84.7474 64.5489C83.6337 64.9562 83.9258 67.0001 85.1116 67.0001H130C130.552 67.0001 131 66.5523 131 66.0001V21.1116Z" fill="#703500" fill-opacity="0.2"/>
<path d="M38.4627 67.0001C39.0109 67.0001 39.1217 66.1405 38.5961 65.9848C38.2982 65.8966 38 66.1195 38 66.4301V66.5376C38 66.793 38.2073 67.0001 38.4627 67.0001Z" fill="#703500" fill-opacity="0.2"/>
<path d="M19.2661 5.63794C20.4021 5.41585 20.6071 3.99841 19.4495 4C14.7303 4.00651 10.0557 6.07262 6.87218 10.0398C5.57354 11.6582 4.63749 13.4502 4.05325 15.3178C3.70551 16.4293 5.15384 16.6402 5.70541 15.6144C6.26422 14.5752 6.92494 13.5727 7.68913 12.6204C10.7083 8.85797 14.8409 6.50309 19.2661 5.63794Z" fill="white"/>
<defs>
<radialGradient id="paint0_radial_2481_11690" cx="0" cy="0" r="1" gradientUnits="userSpaceOnUse" gradientTransform="translate(66.5 -5.67361) rotate(90) scale(78.0903 154.979)">
<stop stop-color="white"/>
<stop offset="0.2" stop-color="#FFE531"/>
<stop offset="0.740319" stop-color="#FFA531"/>
<stop offset="1" stop-color="#FF8200"/>
</radialGradient>
</defs>
</svg>
