<svg width="232" height="72" viewBox="0 0 232 72" fill="none" xmlns="http://www.w3.org/2000/svg">
    <path d="M41.4064 46.1046C41.4064 46.1046 32.801 36.8041 22.188 39.2263C11.6015 41.6605 3.32165 44.6517 3.46673 47.5296C3.62376 50.3808 11.1486 52.4837 14.6224 55.7068C18.2172 59.0161 29.0623 65.6794 38.1233 59.1718C47.1603 52.7174 41.4183 46.078 41.4183 46.078L41.4064 46.1046Z" fill="url(#paint0_linear_3920_35505)"/>
    <path d="M35.8178 60.5332C31.0406 53.2406 18.249 48.4193 10.9379 48.3301C7.92171 48.2852 5.93335 48.798 4.64028 49.3996C6.8905 51.4335 11.9893 53.2453 14.6611 55.6924C17.958 58.7401 27.3325 64.5508 35.8178 60.5332Z" fill="url(#paint1_linear_3920_35505)"/>
    <path d="M42.2448 47.4399C41.8337 46.6479 41.3828 46.1576 41.3828 46.1576C41.3828 46.1576 32.7774 36.8571 22.1643 39.2794C19.1007 39.9802 16.2737 40.7234 13.7485 41.5064C14.6557 42.6172 15.6106 43.6216 16.5868 44.5077C22.3493 49.7501 29.2509 52.2441 35.0274 51.1963C37.7735 50.7043 40.2001 49.4296 42.2182 47.428L42.2448 47.4399Z" fill="#2F4E1D"/>
    <path d="M37.1074 59.8661C37.4636 59.6426 37.7812 59.4337 38.1373 59.2102C38.7459 58.7805 39.2508 58.3682 39.7172 57.9705L39.8989 44.6922C39.722 44.5168 39.5598 44.38 39.3324 44.2458C38.0262 45.1611 35.0341 47.9076 35.3694 53.4918C35.541 56.3815 36.3051 58.4508 37.134 59.878L37.1074 59.8661Z" fill="#273D1A"/>
    <path d="M17.3177 55.2562C17.7366 55.6042 18.1821 55.9642 18.613 56.2857C19.0705 56.6191 19.5252 56.8873 19.9946 57.1942C20.9307 57.7427 21.9678 58.2087 22.9995 58.5445C24.0578 58.8922 25.1666 59.1987 26.2341 59.4547C26.7752 59.6019 27.3163 59.7492 27.8667 59.8047C28.4197 59.9254 28.9728 60.0461 29.5112 60.1282C29.7598 60.144 29.9274 60.4111 29.8464 60.6624C29.7774 60.8871 29.5993 60.9989 29.4039 61.0069C28.2408 60.9637 27.0723 60.7902 25.9276 60.5634C24.8096 60.3487 23.6742 60.0302 22.5747 59.632C21.4486 59.2219 20.3822 58.6788 19.4022 58.0146C18.4221 57.3505 17.555 56.5774 16.7982 55.63C16.7011 55.4904 16.693 55.295 16.8325 55.1979C16.972 55.1008 17.1169 55.134 17.238 55.2203L17.3177 55.2562Z" fill="url(#paint2_linear_3920_35505)"/>
    <path d="M49.2851 37.4669C49.7804 36.5069 49.9327 35.4567 49.7328 34.408C49.1261 30.7793 46.8895 21.8158 39.7253 15.4962C30.5317 7.43362 16.5758 7.9062 12.7317 8.35221C8.91429 8.81016 7.87402 9.8449 8.95907 13.0492C10.0441 16.2536 14.3638 30.468 22.866 38.2199C31.0556 45.6715 43.4928 48.8632 49.2732 37.4935L49.2997 37.5054L49.2851 37.4669Z" fill="url(#paint3_linear_3920_35505)"/>
    <path d="M49.285 37.4668C49.7803 36.5068 49.9326 35.4566 49.7327 34.4079C49.4526 32.6839 48.7838 29.7625 47.4089 26.4919C45.6471 28.0653 43.4539 30.8833 42.7799 35.7262C42.3349 38.8502 42.5516 41.5685 43.0752 43.8174C45.5219 42.7115 47.629 40.654 49.285 37.4668Z" fill="#406829"/>
    <path d="M8.73414 10.1356C8.42345 10.827 8.5529 11.7481 8.95902 13.0492C10.0175 16.2416 14.3637 30.468 22.8659 38.2199C29.4011 44.161 38.5762 47.3571 44.9862 42.6946C42.6322 37.8333 39.1836 32.0647 34.1318 26.0231C25.5778 15.7549 15.1807 11.722 8.73414 10.1356Z" fill="url(#paint4_linear_3920_35505)"/>
    <path d="M45.0124 42.7067C44.2991 41.2355 43.4795 39.7166 42.5774 38.0967C42.4828 40.2276 42.7058 42.1496 43.0868 43.7911C43.7659 43.489 44.3892 43.0978 45.0097 42.6416L45.0363 42.6535L45.0124 42.7067Z" fill="#507C34"/>
    <path d="M24.0008 10.4444C25.2568 10.2098 26.4493 10.3301 27.6086 10.5953C28.1762 10.7546 28.7586 10.9523 29.317 11.2033C29.8754 11.4542 30.41 11.7583 30.906 12.0771C31.8714 12.7027 32.8009 13.408 33.6441 14.2344C34.4753 15.0874 35.2468 16.0733 35.6622 17.2827C35.7208 17.4369 35.5986 17.6377 35.471 17.7082C35.3939 17.7375 35.3022 17.7282 35.2224 17.6924C34.2331 17.12 33.2878 16.6632 32.3131 16.1293C31.3531 15.634 30.4051 15.1121 29.4304 14.5782L26.7019 12.9686C25.7658 12.4201 24.8416 11.845 23.9094 11.0745C23.7738 10.9496 23.7657 10.7542 23.864 10.6066C23.8998 10.5268 23.9769 10.4976 24.042 10.4949L24.0154 10.4829L24.0008 10.4444Z" fill="url(#paint5_linear_3920_35505)"/>
    <path d="M38.192 18.4832C38.6972 18.7102 39.152 18.9785 39.5297 19.276C39.9339 19.5855 40.3409 19.9602 40.6442 20.3522C41.3159 21.1334 41.9517 21.9945 42.2819 23.0378C42.3405 23.192 42.2449 23.4047 42.1027 23.4367C41.9871 23.4806 41.8807 23.4328 41.8129 23.3703C41.4206 23.0342 41.1053 22.6689 40.7516 22.3181C40.3978 21.9674 40.0825 21.602 39.7288 21.2512C39.375 20.9005 39.0717 20.5085 38.7565 20.1431C38.4146 19.7658 38.1499 19.3592 37.8586 18.9406C37.7615 18.8011 37.8185 18.603 37.97 18.4793C38.059 18.4234 38.1507 18.4327 38.2425 18.4419L38.2186 18.4951L38.192 18.4832Z" fill="url(#paint6_linear_3920_35505)"/>
    <path d="M11.3196 15.5483C12.8699 18.6421 14.3164 21.7532 15.9291 24.7791C16.7222 26.2861 17.5923 27.7638 18.4624 29.2415C19.3831 30.678 20.3156 32.0878 21.3904 33.4657C21.4875 33.6053 21.469 33.7887 21.3175 33.9124C21.2166 33.9949 21.0597 33.9883 20.9387 33.902C19.561 32.7715 18.3705 31.4375 17.2958 30.0596C16.2329 28.6551 15.295 27.115 14.4368 25.6107C13.641 24.0385 12.8719 22.4784 12.2423 20.8211C11.6007 19.1904 11.0482 17.5038 10.703 15.7826C10.671 15.6404 10.7932 15.4396 10.9354 15.4076C11.0776 15.3756 11.1986 15.462 11.2811 15.5629L11.3077 15.5749L11.3196 15.5483Z" fill="url(#paint7_linear_3920_35505)"/>
    <path d="M23.3953 35.5492C23.8609 36.078 24.4301 36.5894 24.9966 37.0358C25.5897 37.4941 26.1801 37.8872 26.7971 38.2923C27.4141 38.6975 28.0669 39.0228 28.7464 39.3601L30.7674 40.2682C31.0333 40.3877 31.189 40.6814 31.0841 40.9859C30.9646 41.2518 30.6709 41.4075 30.3665 41.3026C29.6751 40.9919 28.9956 40.6547 28.3016 40.2788C27.6341 39.915 26.9905 39.4979 26.3469 39.0808C25.7152 38.6372 25.1102 38.2055 24.5529 37.6674C23.9957 37.1294 23.4265 36.6179 22.9317 36.012C22.8345 35.8725 22.8531 35.689 22.9926 35.5919C23.1055 35.4829 23.289 35.5014 23.4127 35.6528L23.4366 35.5997L23.3953 35.5492Z" fill="url(#paint8_linear_3920_35505)"/>
    <path d="M57.4747 45.2057C57.4747 45.2057 66.1209 33.7175 61.2299 22.4105C56.3507 11.0769 51.3096 2.45119 48.1835 3.21983C45.0574 3.98847 44.1807 12.7675 41.3411 17.3085C38.4032 21.9971 33.1915 35.4443 42.2312 44.2048C51.2976 52.9773 57.4627 45.2323 57.4627 45.2323L57.4361 45.2203L57.4747 45.2057Z" fill="url(#paint9_linear_3920_35505)"/>
    <path d="M40.2689 41.8852C47.4515 35.0768 50.2137 19.8258 48.8322 11.6621C48.2629 8.30594 47.3273 6.19157 46.3442 4.82292C44.5472 7.75494 43.5574 13.7984 41.3526 17.2823C38.6472 21.5959 34.0646 33.2162 40.2689 41.8852Z" fill="url(#paint10_linear_3920_35505)"/>
    <path d="M41.2882 43.1739C41.5888 43.5007 41.8774 43.8541 42.2431 44.1783C42.827 44.7283 43.3962 45.2398 43.9361 45.6742L58.7882 43.2072C58.8958 42.9679 59.0685 42.7258 59.2145 42.4719C57.8966 41.2084 54.2462 38.4494 48.0831 39.9308C44.88 40.7287 42.7258 41.9661 41.2762 43.2005L41.2882 43.1739Z" fill="#273D1A"/>
    <path d="M42.4124 20.1878C42.1083 20.7223 41.7922 21.2834 41.5293 21.8684C41.2664 22.4535 41.0155 23.0119 40.8058 23.6208C40.3717 24.8001 40.056 26.0006 39.9237 27.2196C39.7675 28.4919 39.6233 29.7375 39.5588 31.0189C39.494 31.661 39.4944 32.3004 39.4681 32.9278C39.4153 33.5433 39.4302 34.2212 39.404 34.8487C39.4028 35.1358 39.1769 35.3539 38.8898 35.3528C38.6678 35.3489 38.4378 35.1496 38.4031 34.9422C38.2309 33.6184 38.177 32.3157 38.2003 30.9837C38.2235 29.6518 38.365 28.3411 38.5332 27.0423C38.7518 25.7022 39.1153 24.3953 39.6916 23.184C40.2413 21.9608 40.912 20.8239 41.822 19.7946C41.9469 19.6589 42.1423 19.6508 42.3165 19.7611C42.4256 19.874 42.4722 20.0548 42.3739 20.2024L42.4005 20.2143L42.4124 20.1878Z" fill="url(#paint11_linear_3920_35505)"/>
    <path d="M181.66 43.2399C181.718 42.1811 182.101 41.1517 182.807 40.3281C185.189 37.4751 191.601 30.7103 201.101 28.7985C213.248 26.3573 225.248 33.828 228.396 36.1515C231.513 38.5045 231.896 39.9458 229.337 42.1517C226.778 44.4164 215.837 54.7107 204.425 57.1813C193.483 59.5931 181.012 56.1225 181.66 43.2399Z" fill="url(#paint12_linear_3920_35505)"/>
    <path d="M181.66 43.239C181.719 42.1802 182.101 41.1508 182.807 40.3272C183.954 38.9449 185.954 36.7095 188.837 34.533C189.601 36.8272 190.101 40.3861 188.248 45.0038C187.072 47.945 185.484 50.2392 183.895 51.9451C182.337 49.7392 181.484 46.8273 181.66 43.239Z" fill="#406829"/>
    <path d="M230.955 39.7099C230.837 40.4746 230.308 41.2394 229.278 42.1511C226.719 44.4159 215.778 54.7102 204.366 57.1808C195.631 59.0926 185.954 57.2984 182.719 49.9454C187.219 46.8571 193.16 43.5629 200.631 40.7982C213.278 36.0922 224.455 37.7981 230.925 39.6805L230.955 39.7099Z" fill="url(#paint13_linear_3920_35505)"/>
    <path d="M182.777 49.9456C184.13 49.0045 185.63 48.0927 187.218 47.1515C186.218 49.0339 185.042 50.6221 183.924 51.9163C183.483 51.2986 183.101 50.6809 182.777 49.9456Z" fill="#507C34"/>
    <path d="M217.425 32.2978C216.425 31.4743 215.337 30.9743 214.161 30.6213C213.572 30.4448 212.955 30.3566 212.366 30.2978C211.778 30.239 211.131 30.239 210.572 30.2684C209.396 30.3272 208.249 30.4743 207.043 30.7978C205.896 31.1213 204.719 31.5919 203.749 32.4449C203.631 32.5625 203.572 32.739 203.719 32.886L203.954 33.0037C205.102 32.9743 206.219 33.0919 207.307 33.1214C208.396 33.1508 209.513 33.2096 210.631 33.2096L213.808 33.2096C214.896 33.1802 215.984 33.1508 217.219 32.9743C217.425 32.9449 217.572 32.7978 217.543 32.5919C217.572 32.5037 217.484 32.4155 217.455 32.3861L217.514 32.3272L217.425 32.2978Z" fill="url(#paint14_linear_3920_35505)"/>
    <path d="M200.955 32.18C200.396 32.0918 199.866 32.1506 199.366 32.2389C198.866 32.3271 198.337 32.4448 197.837 32.5918C196.837 32.9448 195.866 33.386 195.043 34.0919C194.925 34.2095 194.866 34.386 195.013 34.533C195.101 34.6213 195.249 34.6507 195.307 34.6507C195.837 34.5331 196.307 34.4154 196.807 34.2683C197.307 34.1212 197.749 33.9742 198.249 33.8272C198.749 33.6801 199.19 33.533 199.66 33.3566C200.131 33.1801 200.602 33.0036 201.043 32.7389C201.219 32.6801 201.278 32.4448 201.19 32.2977C201.131 32.2389 201.043 32.1506 200.955 32.18Z" fill="url(#paint15_linear_3920_35505)"/>
    <path d="M225.984 43.151C223.072 45.1216 220.19 47.0628 217.308 48.8864C215.837 49.7687 214.366 50.6511 212.837 51.4746C211.337 52.2688 209.749 53.0335 208.16 53.7394C207.984 53.7982 207.925 53.9747 207.984 54.1512C208.043 54.2688 208.19 54.3571 208.278 54.3277C210.043 54.0335 211.749 53.4453 213.425 52.8276C215.072 52.1217 216.66 51.2982 218.16 50.3276C219.661 49.4158 221.131 48.357 222.484 47.2393C223.837 46.1216 225.19 44.9452 226.337 43.6216C226.425 43.4745 226.425 43.298 226.308 43.1804C226.161 43.0921 226.043 43.0922 225.925 43.151L225.984 43.2098L225.984 43.151Z" fill="url(#paint16_linear_3920_35505)"/>
    <path d="M205.307 54.593C204.63 54.7989 203.895 55.0048 203.13 55.0636C202.366 55.1812 201.66 55.2401 200.924 55.2695C200.189 55.2989 199.424 55.2989 198.689 55.2106C197.924 55.1518 197.218 55.093 196.454 54.9165C196.13 54.8871 195.866 55.093 195.807 55.3871C195.777 55.7107 195.983 55.9754 196.277 56.0342C197.071 56.1224 197.836 56.1224 198.601 56.1812C199.366 56.2401 200.16 56.1519 200.924 56.093C201.689 56.0342 202.483 55.9459 203.219 55.7401C204.013 55.593 204.719 55.4165 205.454 55.093C205.63 55.0342 205.689 54.8577 205.63 54.6812C205.572 54.5048 205.395 54.4459 205.277 54.5047L205.219 54.5636L205.307 54.593Z" fill="url(#paint17_linear_3920_35505)"/>
    <path d="M174.631 44.3866C174.631 44.3866 172.572 27.5629 184.219 18.8568C195.837 10.1214 206.072 4.29777 208.808 6.91546C211.573 9.50374 207.278 19.0333 207.514 25.3275C207.749 31.6217 205.22 48.622 190.837 52.2985C176.425 55.9457 174.631 44.3866 174.631 44.3866Z" fill="url(#paint18_linear_3920_35505)"/>
    <path d="M194.19 51.122C190.866 39.9747 197.014 22.7686 203.22 15.2096C205.749 12.0919 207.984 10.5037 209.72 9.70953C209.808 13.739 207.308 20.5333 207.514 25.3863C207.749 31.3275 205.631 45.916 194.19 51.122Z" fill="url(#paint19_linear_3920_35505)"/>
    <path d="M204.69 27.7396C204.69 28.4455 204.69 29.2102 204.602 29.9456C204.572 30.6809 204.484 31.4162 204.307 32.1221C204.072 33.5927 203.631 34.9751 203.072 36.3574C202.513 37.7398 201.866 39.0927 201.219 40.4457C200.896 41.1222 200.572 41.7987 200.19 42.4164C199.807 43.034 199.454 43.6811 199.131 44.3576C198.954 44.6517 199.101 44.9752 199.396 45.1517C199.69 45.3282 199.954 45.1811 200.131 45.0046C201.102 43.7399 201.925 42.4458 202.631 41.0928C203.396 39.7398 204.013 38.2987 204.602 36.8869C205.16 35.3868 205.543 33.828 205.69 32.2691C205.837 30.7103 205.837 29.122 205.484 27.5338C205.455 27.3279 205.219 27.1514 204.984 27.269C204.807 27.3279 204.631 27.5044 204.66 27.6514L204.66 27.7691L204.69 27.7396Z" fill="url(#paint20_linear_3920_35505)"/>
    <path d="M119.726 71.9025C70.4476 71.9025 42.6698 68.3453 39.3741 67.8745C32.992 67.8221 27.5515 63.4802 26.0345 57.255L21.3787 37.7426C20.3847 33.6099 21.3787 29.3203 23.9943 25.9723C26.5576 22.7289 30.3241 20.8456 34.4567 20.6887C37.3862 20.1656 54.9632 17.3931 112.925 17.3931C170.887 17.3931 191.08 20.2179 193.957 20.6887C197.88 20.7933 201.595 22.572 204.106 25.5538C206.721 28.6402 207.872 32.7206 207.244 36.7486L204.419 54.2209C203.373 60.6554 197.985 65.4681 191.551 65.8343C187.993 66.8282 167.435 71.9025 119.778 71.9025H119.726Z" fill="#281E0E"/>
    <path d="M192.701 60.8644C192.701 60.8644 172.823 67.0896 119.83 67.0896C66.8378 67.0896 37.8568 62.9569 37.8568 62.9569C33.1487 63.0092 29.016 59.8182 27.9175 55.2147L23.1571 35.2314C21.64 28.9016 26.4527 22.8334 32.9395 22.8334C32.9395 22.8334 48.0577 19.4331 112.873 19.4331C177.688 19.4331 195.421 22.8334 195.421 22.8334C201.647 22.8334 206.355 28.3785 205.361 34.5513L202.484 52.4422C201.699 57.2549 197.566 60.8644 192.649 60.9167L192.701 60.8644Z" fill="#9E5A30"/>
    <path d="M166.545 65.1019C154.252 61.3877 117.424 50.4022 92.8894 55.6857C79.759 58.5106 74.2139 62.6432 71.8599 65.8866C77.0388 66.1482 82.7932 66.4097 89.0706 66.619C93.2033 63.9511 100.161 60.8647 110.937 60.2369C125.271 59.3999 141.226 63.2187 153.362 66.1482C158.227 65.8343 162.622 65.4681 166.493 65.1019H166.545Z" fill="#82401C"/>
    <path d="M52.2416 32.0925C33.4092 34.8128 25.667 36.8529 23.6791 37.4284L24.8823 42.555C40.6283 36.3298 88.9126 30.0001 88.9126 30.0001C88.9126 30.0001 74.6313 28.8492 52.2416 32.0925Z" fill="#82401C"/>
    <path d="M203.531 46.0603C200.967 46.8973 194.219 48.8328 184.541 49.4606C171.986 50.2452 145.935 45.851 129.98 41.0906C114.024 36.3302 90.7977 35.0224 64.7462 41.0906C44.3967 45.851 31.894 51.2392 27.4474 53.384L27.9183 55.2673C28.4937 57.7783 30.0631 59.8708 32.051 61.2832C58.4687 46.2696 103.039 41.5614 118.575 44.334C134.531 47.2112 154.88 53.0702 178.63 52.1285C194.847 51.5008 201.072 48.7282 203.374 47.0019L203.531 46.0603Z" fill="#82401C"/>
    <path d="M204.471 40.4106L205.151 36.278C198.036 35.7025 182.238 34.2378 172.665 31.9884C159.953 29.0066 150.014 30.8375 150.014 30.8375C163.301 31.4129 175.123 35.7025 187.521 38.6843C194.688 40.4106 200.704 40.5676 204.523 40.4106H204.471Z" fill="#82401C"/>
    <g filter="url(#filter0_d_3920_35505)">
        <mask id="path-35-outside-1_3920_35505" maskUnits="userSpaceOnUse" x="78" y="30.3389" width="73" height="23" fill="black">
            <rect fill="white" x="78" y="30.3389" width="73" height="23"/>
            <path d="M87.1045 51.4727L82.71 51.8418V36.9004L79.6338 37.1553V32.7607L90.1807 31.8818V36.2764L87.1045 36.5312V51.4727ZM97.2119 36.6455L95.4541 36.7861V47.333L97.2119 47.1924V36.6455ZM91.0596 32.7607L101.606 31.8818V51.2178L91.0596 52.0967V32.7607ZM106.88 51.7275L102.485 52.0967V32.7607L113.032 31.8818V51.2178L108.638 51.5869V36.6455L106.88 36.7861V51.7275ZM126.198 39.5723L126.515 43.958L120.38 44.4062L120.063 40.0205L126.198 39.5723ZM137.94 51.7275L133.546 52.0967V32.7607L137.94 32.3916V51.7275ZM144.972 36.6455L143.214 36.7861V47.333L144.972 47.1924V36.6455ZM138.819 32.7607L149.366 31.8818V51.2178L138.819 52.0967V32.7607Z"/>
        </mask>
        <path d="M87.1045 51.4727L82.71 51.8418V36.9004L79.6338 37.1553V32.7607L90.1807 31.8818V36.2764L87.1045 36.5312V51.4727ZM97.2119 36.6455L95.4541 36.7861V47.333L97.2119 47.1924V36.6455ZM91.0596 32.7607L101.606 31.8818V51.2178L91.0596 52.0967V32.7607ZM106.88 51.7275L102.485 52.0967V32.7607L113.032 31.8818V51.2178L108.638 51.5869V36.6455L106.88 36.7861V51.7275ZM126.198 39.5723L126.515 43.958L120.38 44.4062L120.063 40.0205L126.198 39.5723ZM137.94 51.7275L133.546 52.0967V32.7607L137.94 32.3916V51.7275ZM144.972 36.6455L143.214 36.7861V47.333L144.972 47.1924V36.6455ZM138.819 32.7607L149.366 31.8818V51.2178L138.819 52.0967V32.7607Z" fill="white"/>
        <path d="M87.1045 51.4727L87.1843 52.4225L88.0577 52.3491V51.4727H87.1045ZM82.71 51.8418H81.7568V52.8784L82.7897 52.7916L82.71 51.8418ZM82.71 36.9004H83.6631V35.865L82.6313 35.9505L82.71 36.9004ZM79.6338 37.1553H78.6806V38.1907L79.7125 38.1052L79.6338 37.1553ZM79.6338 32.7607L79.5546 31.8109L78.6806 31.8837V32.7607H79.6338ZM90.1807 31.8818H91.1338V30.8459L90.1015 30.932L90.1807 31.8818ZM90.1807 36.2764L90.2594 37.2263L91.1338 37.1538V36.2764H90.1807ZM87.1045 36.5312L87.0258 35.5813L86.1513 35.6538V36.5312H87.1045ZM87.0247 50.5228L82.6302 50.892L82.7897 52.7916L87.1843 52.4225L87.0247 50.5228ZM83.6631 51.8418V36.9004H81.7568V51.8418H83.6631ZM82.6313 35.9505L79.5551 36.2054L79.7125 38.1052L82.7887 37.8503L82.6313 35.9505ZM80.587 37.1553V32.7607H78.6806V37.1553H80.587ZM79.7129 33.7106L90.2598 32.8317L90.1015 30.932L79.5546 31.8109L79.7129 33.7106ZM89.2275 31.8818V36.2764H91.1338V31.8818H89.2275ZM90.102 35.3265L87.0258 35.5813L87.1832 37.4812L90.2594 37.2263L90.102 35.3265ZM86.1513 36.5312V51.4727H88.0577V36.5312H86.1513ZM97.2119 36.6455H98.1651V35.613L97.1359 35.6954L97.2119 36.6455ZM95.4541 36.7861L95.3781 35.836L94.5009 35.9062V36.7861H95.4541ZM95.4541 47.333H94.5009V48.3655L95.5301 48.2831L95.4541 47.333ZM97.2119 47.1924L97.2879 48.1425L98.1651 48.0723V47.1924H97.2119ZM91.0596 32.7607L90.9804 31.8109L90.1064 31.8837V32.7607H91.0596ZM101.606 31.8818H102.56V30.8459L101.527 30.932L101.606 31.8818ZM101.606 51.2178L101.686 52.1676L102.56 52.0948V51.2178H101.606ZM91.0596 52.0967H90.1064V53.1326L91.1387 53.0466L91.0596 52.0967ZM97.1359 35.6954L95.3781 35.836L95.5301 37.7363L97.2879 37.5956L97.1359 35.6954ZM94.5009 36.7861V47.333H96.4073V36.7861H94.5009ZM95.5301 48.2831L97.2879 48.1425L97.1359 46.2423L95.3781 46.3829L95.5301 48.2831ZM98.1651 47.1924V36.6455H96.2588V47.1924H98.1651ZM91.1387 33.7106L101.686 32.8317L101.527 30.932L90.9804 31.8109L91.1387 33.7106ZM100.653 31.8818V51.2178H102.56V31.8818H100.653ZM101.527 50.2679L90.9804 51.1468L91.1387 53.0466L101.686 52.1676L101.527 50.2679ZM92.0127 52.0967V32.7607H90.1064V52.0967H92.0127ZM106.88 51.7275L106.96 52.6774L107.833 52.604V51.7275H106.88ZM102.485 52.0967H101.532V53.1333L102.565 53.0465L102.485 52.0967ZM102.485 32.7607L102.406 31.8109L101.532 31.8837V32.7607H102.485ZM113.032 31.8818H113.985V30.8459L112.953 30.932L113.032 31.8818ZM113.032 51.2178L113.112 52.1676L113.985 52.0942V51.2178H113.032ZM108.638 51.5869H107.685V52.6235L108.717 52.5367L108.638 51.5869ZM108.638 36.6455H109.591V35.613L108.562 35.6954L108.638 36.6455ZM106.88 36.7861L106.804 35.836L105.927 35.9062V36.7861H106.88ZM106.8 50.7777L102.406 51.1469L102.565 53.0465L106.96 52.6774L106.8 50.7777ZM103.439 52.0967V32.7607H101.532V52.0967H103.439ZM102.565 33.7106L113.111 32.8317L112.953 30.932L102.406 31.8109L102.565 33.7106ZM112.079 31.8818V51.2178H113.985V31.8818H112.079ZM112.952 50.268L108.558 50.6371L108.717 52.5367L113.112 52.1676L112.952 50.268ZM109.591 51.5869V36.6455H107.685V51.5869H109.591ZM108.562 35.6954L106.804 35.836L106.956 37.7363L108.714 37.5956L108.562 35.6954ZM105.927 36.7861V51.7275H107.833V36.7861H105.927ZM126.198 39.5723L127.149 39.5037L127.08 38.5521L126.129 38.6216L126.198 39.5723ZM126.515 43.958L126.584 44.9086L127.534 44.8392L127.465 43.8894L126.515 43.958ZM120.38 44.4062L119.429 44.4748L119.498 45.4264L120.449 45.3569L120.38 44.4062ZM120.063 40.0205L119.994 39.0699L119.044 39.1393L119.113 40.0891L120.063 40.0205ZM125.248 39.6409L125.564 44.0266L127.465 43.8894L127.149 39.5037L125.248 39.6409ZM126.445 43.0074L120.31 43.4556L120.449 45.3569L126.584 44.9086L126.445 43.0074ZM121.331 44.3377L121.014 39.9519L119.113 40.0891L119.429 44.4748L121.331 44.3377ZM120.133 40.9711L126.268 40.5229L126.129 38.6216L119.994 39.0699L120.133 40.9711ZM137.94 51.7275L138.02 52.6774L138.894 52.604V51.7275H137.94ZM133.546 52.0967H132.593V53.1333L133.626 53.0465L133.546 52.0967ZM133.546 32.7607L133.466 31.8109L132.593 31.8843V32.7607H133.546ZM137.94 32.3916H138.894V31.355L137.861 31.4418L137.94 32.3916ZM137.861 50.7777L133.466 51.1469L133.626 53.0465L138.02 52.6774L137.861 50.7777ZM134.499 52.0967V32.7607H132.593V52.0967H134.499ZM133.626 33.7106L138.02 33.3414L137.861 31.4418L133.466 31.8109L133.626 33.7106ZM136.987 32.3916V51.7275H138.894V32.3916H136.987ZM144.972 36.6455H145.925V35.613L144.896 35.6954L144.972 36.6455ZM143.214 36.7861L143.138 35.836L142.261 35.9062V36.7861H143.214ZM143.214 47.333H142.261V48.3655L143.29 48.2831L143.214 47.333ZM144.972 47.1924L145.048 48.1425L145.925 48.0723V47.1924H144.972ZM138.819 32.7607L138.74 31.8109L137.866 31.8837V32.7607H138.819ZM149.366 31.8818H150.319V30.8459L149.287 30.932L149.366 31.8818ZM149.366 51.2178L149.445 52.1676L150.319 52.0948V51.2178H149.366ZM138.819 52.0967H137.866V53.1326L138.898 53.0466L138.819 52.0967ZM144.896 35.6954L143.138 35.836L143.29 37.7363L145.048 37.5956L144.896 35.6954ZM142.261 36.7861V47.333H144.167V36.7861H142.261ZM143.29 48.2831L145.048 48.1425L144.896 46.2423L143.138 46.3829L143.29 48.2831ZM145.925 47.1924V36.6455H144.019V47.1924H145.925ZM138.898 33.7106L149.445 32.8317L149.287 30.932L138.74 31.8109L138.898 33.7106ZM148.413 31.8818V51.2178H150.319V31.8818H148.413ZM149.287 50.2679L138.74 51.1468L138.898 53.0466L149.445 52.1676L149.287 50.2679ZM139.772 52.0967V32.7607H137.866V52.0967H139.772Z" fill="#392200" mask="url(#path-35-outside-1_3920_35505)"/>
    </g>
    <defs>
        <filter id="filter0_d_3920_35505" x="79.6338" y="31.8818" width="69.7324" height="22.1212" filterUnits="userSpaceOnUse" color-interpolation-filters="sRGB">
            <feFlood flood-opacity="0" result="BackgroundImageFix"/>
            <feColorMatrix in="SourceAlpha" type="matrix" values="0 0 0 0 0 0 0 0 0 0 0 0 0 0 0 0 0 0 127 0" result="hardAlpha"/>
            <feOffset dy="1.90633"/>
            <feComposite in2="hardAlpha" operator="out"/>
            <feColorMatrix type="matrix" values="0 0 0 0 0.223503 0 0 0 0 0.134102 0 0 0 0 0 0 0 0 1 0"/>
            <feBlend mode="normal" in2="BackgroundImageFix" result="effect1_dropShadow_3920_35505"/>
            <feBlend mode="normal" in="SourceGraphic" in2="effect1_dropShadow_3920_35505" result="shape"/>
        </filter>
        <linearGradient id="paint0_linear_3920_35505" x1="19.6831" y1="39.1136" x2="28.8565" y2="63.2598" gradientUnits="userSpaceOnUse">
            <stop stop-color="#2F4C1E"/>
            <stop offset="0.5" stop-color="#407025"/>
            <stop offset="1" stop-color="#325120"/>
        </linearGradient>
        <linearGradient id="paint1_linear_3920_35505" x1="16.3984" y1="44.9151" x2="24.0601" y2="65.0823" gradientUnits="userSpaceOnUse">
            <stop stop-color="#406828"/>
            <stop offset="0.5" stop-color="#538634"/>
            <stop offset="1" stop-color="#355F1E"/>
        </linearGradient>
        <linearGradient id="paint2_linear_3920_35505" x1="21.4734" y1="53.1847" x2="25.1696" y2="62.914" gradientUnits="userSpaceOnUse">
            <stop stop-color="#5B9638"/>
            <stop offset="0.5" stop-color="#65AE3B"/>
            <stop offset="1" stop-color="#478127"/>
        </linearGradient>
        <linearGradient id="paint3_linear_3920_35505" x1="15.3767" y1="7.66175" x2="42.5659" y2="40.4008" gradientUnits="userSpaceOnUse">
            <stop stop-color="#3B6126"/>
            <stop offset="0.5" stop-color="#559630"/>
            <stop offset="1" stop-color="#3B6126"/>
        </linearGradient>
        <linearGradient id="paint4_linear_3920_35505" x1="18.708" y1="6.33376" x2="34.2386" y2="47.2132" gradientUnits="userSpaceOnUse">
            <stop stop-color="#3B6126"/>
            <stop offset="0.5" stop-color="#6CB144"/>
            <stop offset="1" stop-color="#498328"/>
        </linearGradient>
        <linearGradient id="paint5_linear_3920_35505" x1="27.6991" y1="8.00164" x2="31.7097" y2="20.2" gradientUnits="userSpaceOnUse">
            <stop stop-color="#6CB342"/>
            <stop offset="0.5" stop-color="#7BD548"/>
            <stop offset="1" stop-color="#66BC37"/>
        </linearGradient>
        <linearGradient id="paint6_linear_3920_35505" x1="40.4314" y1="18.4463" x2="39.6549" y2="23.544" gradientUnits="userSpaceOnUse">
            <stop stop-color="#6CB342"/>
            <stop offset="0.5" stop-color="#7BD548"/>
            <stop offset="1" stop-color="#66BC37"/>
        </linearGradient>
        <linearGradient id="paint7_linear_3920_35505" x1="12.0103" y1="14.3982" x2="19.8585" y2="35.0559" gradientUnits="userSpaceOnUse">
            <stop stop-color="#3F6628"/>
            <stop offset="0.5" stop-color="#45752A"/>
            <stop offset="1" stop-color="#51932C"/>
        </linearGradient>
        <linearGradient id="paint8_linear_3920_35505" x1="25.4823" y1="34.2607" x2="28.4746" y2="42.1369" gradientUnits="userSpaceOnUse">
            <stop stop-color="#3F6628"/>
            <stop offset="0.5" stop-color="#45752A"/>
            <stop offset="1" stop-color="#51932C"/>
        </linearGradient>
        <linearGradient id="paint9_linear_3920_35505" x1="60.8325" y1="19.6404" x2="35.7701" y2="34.7604" gradientUnits="userSpaceOnUse">
            <stop stop-color="#2F4C1E"/>
            <stop offset="0.5" stop-color="#407025"/>
            <stop offset="1" stop-color="#325120"/>
        </linearGradient>
        <linearGradient id="paint10_linear_3920_35505" x1="53.6213" y1="17.1133" x2="32.7027" y2="29.7334" gradientUnits="userSpaceOnUse">
            <stop stop-color="#406828"/>
            <stop offset="0.5" stop-color="#538634"/>
            <stop offset="1" stop-color="#355F1E"/>
        </linearGradient>
        <linearGradient id="paint11_linear_3920_35505" x1="45.5096" y1="24.4928" x2="35.3998" y2="30.592" gradientUnits="userSpaceOnUse">
            <stop stop-color="#5B9638"/>
            <stop offset="0.5" stop-color="#65AE3B"/>
            <stop offset="1" stop-color="#478127"/>
        </linearGradient>
        <linearGradient id="paint12_linear_3920_35505" x1="227.728" y1="35.5695" x2="187.448" y2="50.5847" gradientUnits="userSpaceOnUse">
            <stop stop-color="#3B6126"/>
            <stop offset="0.5" stop-color="#559630"/>
            <stop offset="1" stop-color="#3B6126"/>
        </linearGradient>
        <linearGradient id="paint13_linear_3920_35505" x1="225.644" y1="32.7598" x2="191.395" y2="60.7916" gradientUnits="userSpaceOnUse">
            <stop stop-color="#3B6126"/>
            <stop offset="0.5" stop-color="#6CB144"/>
            <stop offset="1" stop-color="#498328"/>
        </linearGradient>
        <linearGradient id="paint14_linear_3920_35505" x1="216.937" y1="29.6736" x2="207.263" y2="38.3441" gradientUnits="userSpaceOnUse">
            <stop stop-color="#6CB342"/>
            <stop offset="0.5" stop-color="#7BD548"/>
            <stop offset="1" stop-color="#66BC37"/>
        </linearGradient>
        <linearGradient id="paint15_linear_3920_35505" x1="200.686" y1="32.2783" x2="198.752" y2="37.1398" gradientUnits="userSpaceOnUse">
            <stop stop-color="#6CB342"/>
            <stop offset="0.5" stop-color="#7BD548"/>
            <stop offset="1" stop-color="#66BC37"/>
        </linearGradient>
        <linearGradient id="paint16_linear_3920_35505" x1="227.416" y1="43.1342" x2="210.131" y2="57.2818" gradientUnits="userSpaceOnUse">
            <stop stop-color="#3F6628"/>
            <stop offset="0.5" stop-color="#45752A"/>
            <stop offset="1" stop-color="#51932C"/>
        </linearGradient>
        <linearGradient id="paint17_linear_3920_35505" x1="205.629" y1="53.8182" x2="199.03" y2="59.219" gradientUnits="userSpaceOnUse">
            <stop stop-color="#3F6628"/>
            <stop offset="0.5" stop-color="#45752A"/>
            <stop offset="1" stop-color="#51932C"/>
        </linearGradient>
        <linearGradient id="paint18_linear_3920_35505" x1="187.641" y1="16.3443" x2="204.378" y2="46.5396" gradientUnits="userSpaceOnUse">
            <stop stop-color="#2F4C1E"/>
            <stop offset="0.5" stop-color="#407025"/>
            <stop offset="1" stop-color="#325120"/>
        </linearGradient>
        <linearGradient id="paint19_linear_3920_35505" x1="196.406" y1="18.0009" x2="210.361" y2="43.1759" gradientUnits="userSpaceOnUse">
            <stop stop-color="#406828"/>
            <stop offset="0.5" stop-color="#538634"/>
            <stop offset="1" stop-color="#355F1E"/>
        </linearGradient>
        <linearGradient id="paint20_linear_3920_35505" x1="200.41" y1="30.287" x2="207.165" y2="42.4743" gradientUnits="userSpaceOnUse">
            <stop stop-color="#5B9638"/>
            <stop offset="0.5" stop-color="#65AE3B"/>
            <stop offset="1" stop-color="#478127"/>
        </linearGradient>
    </defs>
</svg>
