<svg width="26" height="26" viewBox="0 0 26 26" fill="none" xmlns="http://www.w3.org/2000/svg">
    <path d="M12.6143 3.17713C12.7252 2.99867 12.985 2.99867 13.0959 3.17713L14.2509 5.03474C14.2899 5.09753 14.3519 5.14259 14.4237 5.16031L16.5473 5.68472C16.7513 5.7351 16.8316 5.98213 16.6962 6.1428L15.2864 7.81528C15.2387 7.87181 15.215 7.94472 15.2204 8.01846L15.3778 10.2002C15.393 10.4098 15.1828 10.5624 14.9882 10.4833L12.9619 9.65932C12.8934 9.63147 12.8168 9.63147 12.7483 9.65932L10.722 10.4833C10.5273 10.5624 10.3172 10.4098 10.3323 10.2002L10.4898 8.01846C10.4951 7.94472 10.4715 7.87181 10.4238 7.81528L9.01402 6.1428C8.87858 5.98213 8.95884 5.7351 9.16286 5.68472L11.2865 5.16031C11.3582 5.14259 11.4203 5.09753 11.4593 5.03474L12.6143 3.17713Z" fill="#5D3800"/>
    <path d="M9.95654 12.9035C9.95654 12.1204 10.5914 11.4856 11.3745 11.4856H14.3357C15.1188 11.4856 15.7536 12.1204 15.7536 12.9035V22.2102H9.95654V12.9035Z" fill="#5D3800"/>
    <path d="M3 14.6425C3 13.8594 3.63482 13.2246 4.41791 13.2246H8.7971V22.2101H4.41791C3.63482 22.2101 3 21.5753 3 20.7922V14.6425Z" fill="#5D3800"/>
    <path d="M17.2029 14.9636H21.5821C22.3652 14.9636 23 15.5984 23 16.3815V20.7921C23 21.5752 22.3652 22.21 21.5821 22.21H17.2029V14.9636Z" fill="#5D3800"/>
</svg>
