<svg width="22" height="22" viewBox="0 0 22 22" fill="none" xmlns="http://www.w3.org/2000/svg">
    <path fill-rule="evenodd" clip-rule="evenodd"
          d="M14.0253 0.900433C13.9742 0.389259 13.544 0 13.0303 0H8.96973C8.456 0 8.02585 0.389259 7.9747 0.900433L7.69839 3.66171C7.63034 4.3418 6.91529 4.75472 6.29224 4.47372L3.75977 3.33156C3.29163 3.12043 2.73966 3.29822 2.48276 3.7429L0.45299 7.2563C0.195879 7.70134 0.318006 8.26882 0.735433 8.5687L2.98934 10.1879C3.54475 10.5869 3.54475 11.4132 2.98934 11.8122L0.735436 13.4314C0.318009 13.7312 0.195882 14.2987 0.452993 14.7438L2.48276 18.2572C2.73966 18.7018 3.29163 18.8796 3.75977 18.6685L6.29224 17.5264C6.91529 17.2454 7.63035 17.6583 7.6984 18.3384L7.9747 21.0996C8.02585 21.6107 8.456 22 8.96973 22H13.0303C13.544 22 13.9742 21.6107 14.0253 21.0996L14.3016 18.3384C14.3697 17.6583 15.0847 17.2453 15.7078 17.5263L18.2403 18.6685C18.7084 18.8796 19.2604 18.7018 19.5173 18.2572L21.5471 14.7438C21.8042 14.2987 21.6821 13.7313 21.2646 13.4314L19.0107 11.8122C18.4553 11.4132 18.4553 10.5869 19.0107 10.1879L21.2646 8.5687C21.6821 8.26882 21.8042 7.70135 21.5471 7.2563L19.5173 3.7429C19.2604 3.29822 18.7084 3.12043 18.2403 3.33156L15.7078 4.47373C15.0848 4.75473 14.3697 4.34181 14.3016 3.66172L14.0253 0.900433ZM11 14.6667C13.0251 14.6667 14.6667 13.025 14.6667 11C14.6667 8.97496 13.0251 7.33333 11 7.33333C8.97499 7.33333 7.33336 8.97496 7.33336 11C7.33336 13.025 8.97499 14.6667 11 14.6667Z"
          fill="#5D3800"/>
</svg>
