<svg width="167" height="141" viewBox="0 0 167 141" fill="none" xmlns="http://www.w3.org/2000/svg">
    <path d="M-0.00490433 10.0415C-0.00502728 4.51866 4.47203 0.0414042 9.99487 0.0412813L156.995 0.0380087C162.518 0.0378858 166.995 4.51494 166.995 10.0378L166.998 140.038L-0.00201025 140.042L-0.00490433 10.0415Z" fill="#5D3800" fill-opacity="0.5"/>
    <g filter="url(#filter0_b_2359_273)">
        <circle cx="83.4963" cy="63.5397" r="31.5" fill="#EED693" fill-opacity="0.2"/>
    </g>
    <path fill-rule="evenodd" clip-rule="evenodd" d="M73.4862 53.3549C73.4861 47.6139 77.9676 42.9598 83.496 42.9597C89.0243 42.9596 93.5061 47.6135 93.5062 53.3545L93.5063 57.3452C97.1536 58.2046 99.8764 61.5918 99.8765 65.6394L99.8766 72.2544C99.8767 76.9515 96.21 80.7594 91.6868 80.7595L75.3068 80.7599C70.7836 80.76 67.1167 76.9523 67.1166 72.2551L67.1165 65.6401C67.1164 61.5925 69.839 58.2052 73.4863 57.3457L73.4862 53.3549ZM89.8662 53.3546L89.8663 57.1346L77.1263 57.1349L77.1262 53.3549C77.1261 49.7015 79.978 46.7398 83.4961 46.7397C87.0141 46.7396 89.8661 49.7012 89.8662 53.3546ZM87.1365 67.5296C87.1365 68.9288 86.4046 70.1504 85.3166 70.804L85.3167 74.1447L81.6767 74.1448L81.6766 70.8041C80.5886 70.1505 79.8565 68.9289 79.8565 67.5298C79.8565 65.4422 81.4861 63.7498 83.4964 63.7497C85.5067 63.7497 87.1365 65.442 87.1365 67.5296Z" fill="#EED693"/>
    <defs>
        <filter id="filter0_b_2359_273" x="47.9963" y="28.0397" width="71" height="71" filterUnits="userSpaceOnUse" color-interpolation-filters="sRGB">
            <feFlood flood-opacity="0" result="BackgroundImageFix"/>
            <feGaussianBlur in="BackgroundImageFix" stdDeviation="2"/>
            <feComposite in2="SourceAlpha" operator="in" result="effect1_backgroundBlur_2359_273"/>
            <feBlend mode="normal" in="SourceGraphic" in2="effect1_backgroundBlur_2359_273" result="shape"/>
        </filter>
    </defs>
</svg>
