<svg width="20" height="21" viewBox="0 0 20 21" fill="none" xmlns="http://www.w3.org/2000/svg">
    <g clip-path="url(#clip0_3703_30087)">
        <circle cx="10" cy="10.25" r="10" fill="#392200"/>
        <path d="M13.6313 6.61867C13.3448 6.33218 12.8802 6.33219 12.5938 6.61867L9.99999 9.21245L7.40622 6.61867C7.11972 6.33218 6.65519 6.33219 6.36871 6.61867C6.08222 6.90516 6.08221 7.36969 6.36871 7.65619L8.96248 10.25L6.36871 12.8437C6.08222 13.1302 6.08221 13.5948 6.36871 13.8812C6.6552 14.1677 7.11974 14.1677 7.40622 13.8812L9.99999 11.2875L12.5938 13.8812C12.8803 14.1677 13.3448 14.1677 13.6313 13.8812C13.9178 13.5948 13.9178 13.1302 13.6313 12.8437L11.0375 10.25L13.6313 7.65619C13.9178 7.36971 13.9178 6.90517 13.6313 6.61867Z" fill="#A07432"/>
    </g>
    <defs>
        <clipPath id="clip0_3703_30087">
            <rect width="20" height="20" fill="white" transform="translate(0 0.25)"/>
        </clipPath>
    </defs>
</svg>
