<svg width="40" height="40" viewBox="0 0 40 40" fill="none" xmlns="http://www.w3.org/2000/svg">
    <circle cx="20" cy="20" r="20" fill="#392200"/>
    <mask id="mask0_3602_27144" style="mask-type:alpha" maskUnits="userSpaceOnUse" x="1" y="0" width="38" height="38">
        <circle cx="20.0001" cy="18.9474" r="18.9474" fill="#392200"/>
    </mask>
    <g mask="url(#mask0_3602_27144)">
        <path d="M56.9814 0H-17V37.9349H56.9814V0Z" fill="white"/>
        <path d="M56.9852 15.182H24.4103V0.00732422H15.5191V15.182H-16.9702V22.7675H15.5191V37.9386H24.4103V22.7675H56.9852V15.182Z" fill="#CE1124"/>
        <path d="M-8.09776 0L-8.33203 0.0108571L12.5888 10.7775V0H-8.09776Z" fill="#00247D"/>
        <path d="M7.83276 12.6269L-17 0.00366211V2.97852L1.91648 12.6269H7.83276Z" fill="#CE1124"/>
        <path d="M32.1672 25.3115L57 37.9348V34.9599L38.0835 25.3115H32.1672Z" fill="#CE1124"/>
        <path d="M-8.09776 38.0002L-8.33203 37.9893L12.5888 27.2227V38.0002H-8.09776Z" fill="#00247D"/>
        <path d="M7.7063 25.3081L-16.9814 37.9277L-11.2102 37.935L12.6148 25.822V25.3081H7.7063Z" fill="#CE1124"/>
        <path d="M48.0977 0L48.3357 0.0108571L27.4111 10.7775V0H48.0977Z" fill="#00247D"/>
        <path d="M56.9778 0.0180664H51.4222L27.4336 12.2143V12.6413H32.5095L56.9778 0.0180664Z" fill="#CE1124"/>
        <path d="M48.0977 37.9963L48.3357 37.9854L27.4111 27.2188V37.9963H48.0977Z" fill="#00247D"/>
    </g>
    <path fill-rule="evenodd" clip-rule="evenodd" d="M1.57886 19.2101C1.57886 19.9039 2.49791 19.8836 2.64716 19.206C4.57945 10.4332 11.4862 3.5264 20.259 1.59405C20.9365 1.44482 20.9568 0.525879 20.2631 0.525879C9.94406 0.525879 1.57886 8.89109 1.57886 19.2101Z" fill="white" fill-opacity="0.8"/>
    <path fill-rule="evenodd" clip-rule="evenodd" d="M38.2928 13.9916C38.0209 12.9856 36.6431 13.2247 36.4531 14.2492C34.4576 25.0094 25.0225 33.1577 13.6843 33.1577C12.4616 33.1577 11.2611 33.063 10.0896 32.8804C9.0595 32.7199 8.37378 33.9455 9.23107 34.5388C12.2891 36.6549 15.9998 37.8946 20.0001 37.8946C30.4644 37.8946 38.9475 29.4116 38.9475 18.9473C38.9475 17.2326 38.7197 15.5712 38.2928 13.9916Z" fill="black" fill-opacity="0.2"/>
    <path fill-rule="evenodd" clip-rule="evenodd" d="M12.4154 5.0772C13.4465 4.55116 13.4902 3.29153 12.3999 3.68015C10.8754 4.22351 9.47778 5.18271 8.39052 6.53762C8.10288 6.89607 7.84699 7.26972 7.62246 7.65518C7.1337 8.49429 8.2406 8.74106 8.84836 7.98368C9.85038 6.73499 11.0712 5.76298 12.4154 5.0772Z" fill="white"/>
</svg>
