<svg width="40" height="40" viewBox="0 0 40 40" fill="none" xmlns="http://www.w3.org/2000/svg">
    <circle cx="20" cy="20" r="20" fill="#392200"/>
    <mask id="mask0_3602_27093" style="mask-type:alpha" maskUnits="userSpaceOnUse" x="1" y="0" width="38" height="38">
        <circle cx="20.0001" cy="18.9474" r="18.9474" fill="#392200"/>
    </mask>
    <g mask="url(#mask0_3602_27093)">
        <g filter="url(#filter0_d_3602_27093)">
            <rect x="-2.96362" width="45.4444" height="12.7786" fill="#F0F0F0"/>
            <rect x="-2.96362" y="12.7812" width="45.4444" height="12.7786" fill="#4079E9"/>
            <rect x="-2.96362" y="25.5552" width="45.4444" height="12.7786" fill="#E9404A"/>
        </g>
    </g>
    <path fill-rule="evenodd" clip-rule="evenodd"
          d="M1.57886 19.2101C1.57886 19.9039 2.49791 19.8836 2.64716 19.206C4.57945 10.4332 11.4862 3.5264 20.259 1.59405C20.9365 1.44482 20.9568 0.525879 20.2631 0.525879C9.94406 0.525879 1.57886 8.89109 1.57886 19.2101Z"
          fill="white" fill-opacity="0.8"/>
    <path fill-rule="evenodd" clip-rule="evenodd"
          d="M38.2928 13.9916C38.0209 12.9856 36.6431 13.2247 36.4531 14.2492C34.4576 25.0094 25.0225 33.1577 13.6843 33.1577C12.4616 33.1577 11.2611 33.063 10.0896 32.8804C9.0595 32.7199 8.37378 33.9455 9.23107 34.5388C12.2891 36.6549 15.9998 37.8946 20.0001 37.8946C30.4644 37.8946 38.9475 29.4116 38.9475 18.9473C38.9475 17.2326 38.7197 15.5712 38.2928 13.9916Z"
          fill="black" fill-opacity="0.2"/>
    <defs>
        <filter id="filter0_d_3602_27093" x="-9.96362" y="-5" width="59.4443" height="52.334"
                filterUnits="userSpaceOnUse" color-interpolation-filters="sRGB">
            <feFlood flood-opacity="0" result="BackgroundImageFix"/>
            <feColorMatrix in="SourceAlpha" type="matrix" values="0 0 0 0 0 0 0 0 0 0 0 0 0 0 0 0 0 0 127 0"
                           result="hardAlpha"/>
            <feOffset dy="2"/>
            <feGaussianBlur stdDeviation="3.5"/>
            <feColorMatrix type="matrix" values="0 0 0 0 0 0 0 0 0 0 0 0 0 0 0 0 0 0 0.15 0"/>
            <feBlend mode="normal" in2="BackgroundImageFix" result="effect1_dropShadow_3602_27093"/>
            <feBlend mode="normal" in="SourceGraphic" in2="effect1_dropShadow_3602_27093" result="shape"/>
        </filter>
    </defs>
</svg>
