<svg width="24" height="24" viewBox="0 0 24 24" fill="none" xmlns="http://www.w3.org/2000/svg">
<path d="M16.1 15.3C15.7134 15.6866 15.0866 15.6866 14.7 15.3C14.3134 14.9134 14.3134 14.2866 14.7 13.9L15.8929 12.7071C16.2834 12.3166 16.2834 11.6834 15.8929 11.2929L14.7 10.1C14.3134 9.7134 14.3134 9.0866 14.7 8.7C15.0866 8.3134 15.7134 8.3134 16.1 8.7L17.2929 9.89289C17.6834 10.2834 18.3166 10.2834 18.7071 9.89289L19.9 8.7C20.2866 8.3134 20.9134 8.3134 21.3 8.7C21.6866 9.0866 21.6866 9.7134 21.3 10.1L20.1071 11.2929C19.7166 11.6834 19.7166 12.3166 20.1071 12.7071L21.3 13.9C21.6866 14.2866 21.6866 14.9134 21.3 15.3C20.9134 15.6866 20.2866 15.6866 19.9 15.3L18.7071 14.1071C18.3166 13.7166 17.6834 13.7166 17.2929 14.1071L16.1 15.3ZM4 15C3.44772 15 3 14.5523 3 14V10C3 9.44772 3.44772 9 4 9H6.58579C6.851 9 7.10536 8.89464 7.29289 8.70711L10.2929 5.70711C10.9229 5.07714 12 5.52331 12 6.41421V17.5858C12 18.4767 10.9229 18.9229 10.2929 18.2929L7.29289 15.2929C7.10536 15.1054 6.851 15 6.58579 15H4Z" fill="#EED693"/>
</svg>
