<svg width="24" height="24" viewBox="0 0 24 24" fill="none" xmlns="http://www.w3.org/2000/svg">
    <path d="M4 15C3.44772 15 3 14.5523 3 14V10C3 9.44772 3.44772 9 4 9H6.58579C6.851 9 7.10536 8.89464 7.29289 8.70711L10.2929 5.70711C10.9229 5.07714 12 5.52331 12 6.41421V17.5858C12 18.4767 10.9229 18.9229 10.2929 18.2929L7.29289 15.2929C7.10536 15.1054 6.851 15 6.58579 15H4Z" fill="#5D3800"/>
    <path fill-rule="evenodd" clip-rule="evenodd" d="M18.0303 5.96967C18.3232 6.26256 18.3232 6.73744 18.0303 7.03033L15.5303 9.53033C15.2374 9.82322 14.7626 9.82322 14.4697 9.53033C14.1768 9.23744 14.1768 8.76256 14.4697 8.46967L16.9697 5.96967C17.2626 5.67678 17.7374 5.67678 18.0303 5.96967ZM13.75 12C13.75 11.5858 14.0858 11.25 14.5 11.25H20C20.4142 11.25 20.75 11.5858 20.75 12C20.75 12.4142 20.4142 12.75 20 12.75H14.5C14.0858 12.75 13.75 12.4142 13.75 12ZM14.4697 14.4697C14.7626 14.1768 15.2374 14.1768 15.5303 14.4697L18.0303 16.9697C18.3232 17.2626 18.3232 17.7374 18.0303 18.0303C17.7374 18.3232 17.2626 18.3232 16.9697 18.0303L14.4697 15.5303C14.1768 15.2374 14.1768 14.7626 14.4697 14.4697Z" fill="#5D3800"/>
</svg>
