<svg width="22" height="22" viewBox="0 0 22 22" fill="none" xmlns="http://www.w3.org/2000/svg">
    <path d="M15.8125 4.8125V17.1875C15.8125 17.7345 15.5952 18.2591 15.2084 18.6459C14.8216 19.0327 14.297 19.25 13.75 19.25H8.25C7.70299 19.25 7.17839 19.0327 6.79159 18.6459C6.4048 18.2591 6.1875 17.7345 6.1875 17.1875V4.8125C6.1875 4.26549 6.4048 3.74089 6.79159 3.35409C7.17839 2.9673 7.70299 2.75 8.25 2.75H13.75C14.297 2.75 14.8216 2.9673 15.2084 3.35409C15.5952 3.74089 15.8125 4.26549 15.8125 4.8125ZM17.875 6.875C17.6927 6.875 17.5178 6.94743 17.3889 7.07636C17.2599 7.2053 17.1875 7.38016 17.1875 7.5625V14.4375C17.1875 14.6198 17.2599 14.7947 17.3889 14.9236C17.5178 15.0526 17.6927 15.125 17.875 15.125C18.0573 15.125 18.2322 15.0526 18.3611 14.9236C18.4901 14.7947 18.5625 14.6198 18.5625 14.4375V7.5625C18.5625 7.38016 18.4901 7.2053 18.3611 7.07636C18.2322 6.94743 18.0573 6.875 17.875 6.875ZM20.625 8.25C20.4427 8.25 20.2678 8.32243 20.1389 8.45136C20.0099 8.5803 19.9375 8.75516 19.9375 8.9375V13.0625C19.9375 13.2448 20.0099 13.4197 20.1389 13.5486C20.2678 13.6776 20.4427 13.75 20.625 13.75C20.8073 13.75 20.9822 13.6776 21.1111 13.5486C21.2401 13.4197 21.3125 13.2448 21.3125 13.0625V8.9375C21.3125 8.75516 21.2401 8.5803 21.1111 8.45136C20.9822 8.32243 20.8073 8.25 20.625 8.25ZM4.125 6.875C3.94266 6.875 3.7678 6.94743 3.63886 7.07636C3.50993 7.2053 3.4375 7.38016 3.4375 7.5625V14.4375C3.4375 14.6198 3.50993 14.7947 3.63886 14.9236C3.7678 15.0526 3.94266 15.125 4.125 15.125C4.30734 15.125 4.4822 15.0526 4.61114 14.9236C4.74007 14.7947 4.8125 14.6198 4.8125 14.4375V7.5625C4.8125 7.38016 4.74007 7.2053 4.61114 7.07636C4.4822 6.94743 4.30734 6.875 4.125 6.875ZM1.375 8.25C1.19266 8.25 1.0178 8.32243 0.888864 8.45136C0.759933 8.5803 0.6875 8.75516 0.6875 8.9375V13.0625C0.6875 13.2448 0.759933 13.4197 0.888864 13.5486C1.0178 13.6776 1.19266 13.75 1.375 13.75C1.55734 13.75 1.7322 13.6776 1.86114 13.5486C1.99007 13.4197 2.0625 13.2448 2.0625 13.0625V8.9375C2.0625 8.75516 1.99007 8.5803 1.86114 8.45136C1.7322 8.32243 1.55734 8.25 1.375 8.25Z" fill="#5D3800"/>
</svg>
