<svg width="22" height="22" viewBox="0 0 22 22" fill="none" xmlns="http://www.w3.org/2000/svg">
    <path d="M15.8125 4.8125V17.1875C15.8125 17.7345 15.5952 18.2591 15.2084 18.6459C14.8216 19.0327 14.297 19.25 13.75 19.25H8.25C7.70299 19.25 7.17839 19.0327 6.79159 18.6459C6.4048 18.2591 6.1875 17.7345 6.1875 17.1875V4.8125C6.1875 4.26549 6.4048 3.74089 6.79159 3.35409C7.17839 2.9673 7.70299 2.75 8.25 2.75H13.75C14.297 2.75 14.8216 2.9673 15.2084 3.35409C15.5952 3.74089 15.8125 4.26549 15.8125 4.8125Z" fill="#EED693"/>
    <path d="M17.1953 10.0488C17.3203 10.0176 17.4899 10 17.6667 10C17.8435 10 18.013 10.0176 18.1381 10.0488C18.2631 10.0801 18.3333 10.1225 18.3333 10.1667V11.8333C18.3333 11.8775 18.2631 11.9199 18.1381 11.9512C18.013 11.9824 17.8435 12 17.6667 12C17.4899 12 17.3203 11.9824 17.1953 11.9512C17.0702 11.9199 17 11.8775 17 11.8333V10.1667C17 10.1225 17.0702 10.0801 17.1953 10.0488Z" fill="#EED693"/>
    <path d="M19.8619 10.3821C19.987 10.3509 20.1565 10.3333 20.3333 10.3333C20.5101 10.3333 20.6797 10.3509 20.8047 10.3821C20.9298 10.4134 21 10.4558 21 10.5V11.5C21 11.5442 20.9298 11.5866 20.8047 11.6179C20.6797 11.6491 20.5101 11.6667 20.3333 11.6667C20.1565 11.6667 19.987 11.6491 19.8619 11.6179C19.7369 11.5866 19.6667 11.5442 19.6667 11.5V10.5C19.6667 10.4558 19.7369 10.4134 19.8619 10.3821Z" fill="#EED693"/>
    <path d="M3.86193 10.0488C3.98695 10.0176 4.15652 10 4.33333 10C4.51014 10 4.67971 10.0176 4.80474 10.0488C4.92976 10.0801 5 10.1225 5 10.1667V11.8333C5 11.8775 4.92976 11.9199 4.80474 11.9512C4.67971 11.9824 4.51014 12 4.33333 12C4.15652 12 3.98695 11.9824 3.86193 11.9512C3.7369 11.9199 3.66667 11.8775 3.66667 11.8333V10.1667C3.66667 10.1225 3.7369 10.0801 3.86193 10.0488Z" fill="#EED693"/>
    <path d="M1.19526 10.3821C1.32029 10.3509 1.48986 10.3333 1.66667 10.3333C1.84348 10.3333 2.01305 10.3509 2.13807 10.3821C2.2631 10.4134 2.33333 10.4558 2.33333 10.5V11.5C2.33333 11.5442 2.2631 11.5866 2.13807 11.6179C2.01305 11.6491 1.84348 11.6667 1.66667 11.6667C1.48986 11.6667 1.32029 11.6491 1.19526 11.6179C1.07024 11.5866 1 11.5442 1 11.5V10.5C1 10.4558 1.07024 10.4134 1.19526 10.3821Z" fill="#EED693"/>
</svg>
