<svg width="54" height="52" viewBox="0 0 54 52" fill="none" xmlns="http://www.w3.org/2000/svg">
    <path d="M26.7905 27.6614L15.7694 12.5264C15.6466 12.3422 15.6773 12.0966 15.8308 11.9431C16.1685 11.5747 16.3527 11.0528 16.2913 10.5002C16.2299 9.94764 15.5851 9.08803 14.8176 8.93454C13.7124 8.71964 12.6995 9.51784 12.6381 10.5923C12.5767 11.6668 13.0678 12.1273 13.7739 12.4036C14.48 12.6799 14.1116 12.7106 14.0809 12.9255L10.7654 31.7137L26.8212 27.6921L26.7905 27.6614Z"
          fill="#A56900"/>
    <path d="M18.0411 29.6876L20.4971 25.0826L12.7916 20.0479L11.8091 25.4817L18.0411 29.6876Z" fill="#845100"/>
    <path d="M47.5128 26.3722L41.6493 10.7461C41.5572 10.5312 41.6492 10.2856 41.8641 10.1628C42.4167 9.79439 42.7544 9.1804 42.693 8.44361C42.6316 7.70682 42.079 7.09281 41.4036 6.87791C40.237 6.54022 39.1319 7.36912 39.0398 8.50501C38.9477 9.6409 39.2853 9.73299 39.7458 10.0707C40.2063 10.4084 39.9914 10.4698 39.8993 10.6847L32.47 26.495L47.5128 26.4029V26.3722Z"
          fill="#A56900"/>
    <path d="M37.8424 25.8197L44.5043 26.3109L37.4434 15.873L34.9874 21.1227L37.8424 25.8197Z" fill="#845100"/>
    <path d="M51.9337 30.6088L51.4117 13.0793C51.4117 12.7723 51.596 12.496 51.903 12.4039C52.7933 12.1276 53.4686 11.2987 53.4993 10.2549C53.53 9.21112 52.6091 8.07523 51.4425 7.95243C50.2759 7.82963 49.0479 8.78133 48.9558 10.0707C48.8637 11.3601 49.1093 11.2066 49.447 11.6364C49.7847 12.0662 49.6312 12.2197 49.447 12.4346L40.0221 23.7935L28.7247 7.06215C28.4484 6.66306 28.4484 6.11046 28.7554 5.71136L30.2597 3.74659C30.4132 3.56239 30.3824 3.28609 30.1675 3.1326L26.3915 0.246817C26.2073 0.0933184 25.931 0.124014 25.7775 0.338912L22.8917 4.11497C22.7382 4.29917 22.7689 4.57547 22.9838 4.72897L24.9793 6.23326C25.3784 6.54025 25.5319 7.06215 25.3784 7.52265L19.0236 26.3723L4.96315 17.1931C4.68685 17.0089 4.564 16.6405 4.74819 16.3335C4.93239 16.0265 5.08589 15.4739 5.05519 14.9827C4.96309 13.9696 4.22633 13.1407 3.24394 12.9565C1.73965 12.6495 0.358197 13.9082 0.511696 15.4739C0.665194 17.0395 1.24843 17.1316 2.13872 17.3772C3.02901 17.6228 2.56855 17.4693 2.78344 17.4693C3.09044 17.4693 3.36677 17.6842 3.42817 17.9912L7.01994 35.4901L10.0286 48.8137L52.9467 44.3316L51.995 30.6088H51.9337Z"
          fill="url(#paint0_linear_2435_1158)"/>
    <path d="M52.8852 44.3317L51.9337 30.609L51.4117 13.0794C51.4117 12.7724 51.5652 12.4961 51.8722 12.404C52.7932 12.1277 53.4685 11.2988 53.4992 10.2857C53.5299 9.11916 52.609 8.07536 51.4117 7.95256C50.153 7.82976 49.0478 8.78146 48.9557 10.0708C48.925 10.6541 49.1093 11.2067 49.447 11.6365C49.6312 11.8821 49.6312 12.2198 49.447 12.4347L40.0221 23.7936L36.4609 18.5133L23.26 47.4324L52.916 44.3317H52.8852Z"
          fill="url(#paint1_linear_2435_1158)"/>
    <path d="M29.7377 37.2401C43.3991 35.5824 52.4248 37.7313 52.4248 37.7313V36.9638C52.3941 36.9638 52.3327 36.3191 52.3327 36.3191C52.1792 36.2884 43.614 34.2623 30.1062 35.7666C29.5536 35.828 29.001 35.8894 28.4484 35.9815L27.7422 37.5164C28.3869 37.4243 29.0316 37.3322 29.7377 37.2708V37.2401Z"
          fill="url(#paint2_linear_2435_1158)"/>
    <path d="M52.3942 36.964V36.3193C52.3635 36.3193 52.3634 36.3193 52.3634 36.3193V36.964H52.3942Z" fill="#775200"/>
    <path d="M28.4484 35.9814C15.8308 37.6085 8.24792 41.1083 8.24792 41.1083L8.55492 42.5512C8.55492 42.5512 13.4055 39.4505 27.7422 37.5164L28.4484 35.9814Z"
          fill="url(#paint3_linear_2435_1158)"/>
    <path d="M8.27859 41.108C8.27859 41.108 17.4579 36.9329 30.7508 35.7049C44.0745 34.4769 52.3327 36.3189 52.3327 36.3189L52.4554 38.2529C52.4554 38.2529 53.4686 38.0687 53.4686 36.9022C53.4686 35.7356 53.2844 33.5559 53.2844 33.5559C53.2844 33.5559 53.0387 32.5121 52.0257 32.2358C51.0126 31.9595 46.0392 30.0254 30.3824 31.6218C14.7255 33.2182 7.32687 37.1784 7.32687 37.1784C7.32687 37.1784 6.25244 37.8231 6.46734 38.959C6.68223 40.0949 7.11206 42.5509 7.11206 42.5509C7.11206 42.5509 7.44967 43.564 8.70835 43.3798L8.21713 41.108H8.27859Z"
          fill="#A56900"/>
    <path d="M9.96708 48.8138C9.84428 48.0156 12.331 45.9894 20.6199 43.8711C28.9088 41.7528 41.2808 40.8626 47.3287 41.937C53.3765 43.0115 53.0388 44.3623 52.8546 45.0684C52.6704 45.7745 49.7232 47.9235 41.6492 49.8576C33.5752 51.7609 25.102 52.1907 18.041 51.6075C10.9801 51.0242 10.0899 49.5506 9.96708 48.8445V48.8138Z"
          fill="url(#paint4_linear_2435_1158)"/>
    <path d="M51.0433 42.8887C50.5214 43.0729 50.1223 43.3185 50.1223 43.3185C50.1223 43.3185 51.9336 43.6869 52.8853 44.8842C52.9774 44.3623 52.8854 43.6255 51.0127 42.9194L51.0433 42.8887Z"
          fill="#D8691E"/>
    <path d="M34.5576 48.5989C40.7283 47.8007 45.0569 46.6341 48.6795 44.8842C50.061 44.2088 51.0433 43.6255 51.7187 43.165C50.8898 42.7352 49.539 42.3054 47.3593 41.937C41.3115 40.8626 28.9702 41.7528 20.6506 43.8711C15.3088 45.2219 12.3924 46.542 11.0109 47.5244C11.5942 47.9542 13.1293 48.5989 16.936 49.0287C23.0453 49.7041 28.387 49.3664 34.5884 48.5989H34.5576Z"
          fill="#A56900"/>
    <path d="M51.0433 43.5948C51.2889 43.4413 51.5038 43.3185 51.688 43.165C50.8591 42.7352 49.5084 42.3054 47.3287 41.937C41.2809 40.8626 28.9396 41.7528 20.62 43.8711C15.2782 45.2219 12.3616 46.542 10.9802 47.5244C10.9802 47.5244 19.2384 44.2088 31.3034 42.858C41.5571 41.7221 48.4338 42.6124 51.0433 43.5641V43.5948Z"
          fill="#845100"/>
    <path d="M9.13821 34.999C8.95401 34.999 8.76987 34.8762 8.73917 34.692L8.40144 33.1263C8.37074 32.9114 8.49354 32.6965 8.70844 32.6658C8.92334 32.6351 9.13824 32.7579 9.16894 32.9728L9.50666 34.5385C9.53736 34.7534 9.41456 34.9683 9.19966 34.999C9.19966 34.999 9.16891 34.999 9.13821 34.999Z"
          fill="white"/>
    <path d="M8.34014 31.2535C8.15595 31.2535 7.97166 31.1307 7.94096 30.9465L5.91475 21.2454C5.88405 21.0305 6.00685 20.8156 6.22175 20.7849C6.43664 20.7542 6.65154 20.877 6.68224 21.0919L8.70845 30.793C8.73915 31.0079 8.61635 31.2228 8.40145 31.2535C8.40145 31.2535 8.37084 31.2535 8.34014 31.2535Z"
          fill="white"/>
    <path d="M1.73964 16.7939C1.06425 16.1799 0.726432 15.2282 1.00273 14.3687C1.00273 14.5836 1.03352 14.7678 1.09492 14.952C1.21772 15.3204 1.43264 15.6273 1.73964 15.8422C1.86244 15.9343 2.04661 16.0571 2.16941 16.0878C2.38431 16.1492 2.50704 16.3948 2.41495 16.6097C2.32285 16.886 1.92381 16.9781 1.70891 16.7632L1.73964 16.7939Z"
          fill="white"/>
    <path d="M21.019 26.1578C20.9576 26.1578 20.8654 26.1578 20.804 26.1578C20.5277 26.0657 20.4049 25.7894 20.497 25.5131L26.2994 8.62825C26.3915 8.35195 26.6677 8.22915 26.944 8.32125C27.2203 8.41335 27.3431 8.68966 27.251 8.96596L21.4488 25.8508C21.3874 26.035 21.2032 26.1578 21.019 26.1885V26.1578Z"
          fill="white"/>
    <path d="M26.33 6.35616C26.2072 6.26406 23.475 4.29927 23.4443 4.26857L23.6592 4.02297L26.1459 0.891602L24.2118 4.14578"
          fill="white"/>
    <path d="M42.6009 24.0697C42.4474 24.1311 42.294 24.0697 42.1712 23.9776C41.9563 23.8241 41.9564 23.5171 42.1099 23.3329L49.0479 14.8597C49.2014 14.6448 49.5084 14.6449 49.6926 14.7984C49.9075 14.9519 49.9075 15.2588 49.7541 15.443L42.8159 23.9162C42.7545 23.9776 42.693 24.039 42.6009 24.0697Z"
          fill="white"/>
    <defs>
        <linearGradient id="paint0_linear_2435_1158" x1="56.2326" y1="18.3303" x2="0.99403" y2="33.2379"
                        gradientUnits="userSpaceOnUse">
            <stop stop-color="#FFA531"/>
            <stop offset="1" stop-color="#FFE531"/>
        </linearGradient>
        <linearGradient id="paint1_linear_2435_1158" x1="57.3661" y1="25.2753" x2="19.7338" y2="35.4432"
                        gradientUnits="userSpaceOnUse">
            <stop stop-color="#ED812C"/>
            <stop offset="1" stop-color="#F3B436"/>
        </linearGradient>
        <linearGradient id="paint2_linear_2435_1158" x1="51.5675" y1="34.4626" x2="28.3744" y2="40.7102"
                        gradientUnits="userSpaceOnUse">
            <stop stop-color="#EB6928"/>
            <stop offset="1" stop-color="#EF932F"/>
        </linearGradient>
        <linearGradient id="paint3_linear_2435_1158" x1="28.4083" y1="36.8037" x2="8.22717" y2="42.2516"
                        gradientUnits="userSpaceOnUse">
            <stop stop-color="#F3B035"/>
            <stop offset="1" stop-color="#F7D03C"/>
        </linearGradient>
        <linearGradient id="paint4_linear_2435_1158" x1="53.0988" y1="42.7285" x2="5.51879" y2="52.9836"
                        gradientUnits="userSpaceOnUse">
            <stop stop-color="#FF9127"/>
            <stop offset="1" stop-color="#FFC224"/>
        </linearGradient>
    </defs>
</svg>
