<svg width="17" height="18" viewBox="0 0 17 18" fill="none" xmlns="http://www.w3.org/2000/svg">
    <path fill-rule="evenodd" clip-rule="evenodd"
          d="M7.9686 0.0116393C7.20862 0.106727 6.41805 0.392703 5.82359 0.787537C5.50681 0.997976 5.41274 1.07588 5.05264 1.42621C4.39919 2.06203 3.93735 2.91057 3.73177 3.85319C3.6345 4.29917 3.6345 5.28345 3.73177 5.72943C4.15105 7.65185 5.60602 9.08995 7.55099 9.50437C8.0022 9.60051 8.99802 9.60051 9.44923 9.50437C11.3964 9.08946 12.8487 7.65407 13.2685 5.72943C13.3657 5.28345 13.3657 4.29917 13.2685 3.85319C12.8482 1.92637 11.3936 0.489179 9.44923 0.0798592C9.17186 0.0214708 8.235 -0.0217201 7.9686 0.0116393ZM3.66776 9.10594C2.9552 9.46317 2.43353 9.84949 1.84788 10.4536C0.961858 11.3675 0.347398 12.5498 0.1056 13.806C0.0389715 14.1521 0.0209383 14.416 0.00616998 15.2607C-0.0137995 16.403 0.00696715 16.6021 0.185364 16.9789C0.32272 17.269 0.690903 17.6473 0.973931 17.789C1.40092 18.0029 1.31436 17.9988 5.47022 17.9994L9.29297 18L8.90603 17.6153C8.6932 17.4037 8.41067 17.0787 8.27817 16.8929C7.0718 15.2024 6.9628 12.9244 8.00247 11.133C8.20888 10.7773 8.20668 10.7701 7.88728 10.7615C7.81124 10.7594 7.57206 10.7229 7.35578 10.6804C6.26843 10.4667 5.28233 9.97797 4.41244 9.2217C4.22095 9.05524 4.05865 8.91918 4.05177 8.91936C4.04487 8.91951 3.87209 9.00349 3.66776 9.10594ZM12.1645 9.63631C11.2523 9.76761 10.407 10.1872 9.75341 10.8332C8.16576 12.4025 8.08128 14.8693 9.55716 16.5642C10.3692 17.4967 11.6807 18.0524 12.9202 17.989C13.6163 17.9534 14.1246 17.8174 14.735 17.5032C16.5534 16.5673 17.4313 14.4315 16.7925 12.4974C16.298 11.0002 14.9687 9.88487 13.3976 9.64907C13.0044 9.59004 12.5206 9.58505 12.1645 9.63631ZM13.0849 12.0963C13.3058 12.2594 13.3397 12.3461 13.3534 12.7835L13.3661 13.1904L13.7778 13.203C14.1219 13.2135 14.2068 13.2283 14.2942 13.293C14.4934 13.4401 14.5555 13.56 14.5555 13.7972C14.5555 14.0345 14.4934 14.1544 14.2942 14.3015C14.2068 14.3661 14.1219 14.3809 13.7778 14.3915L13.3661 14.4041L13.3534 14.811C13.3396 15.2506 13.3062 15.3348 13.0792 15.5023C12.9322 15.6108 12.5721 15.6108 12.4251 15.5023C12.1981 15.3348 12.1647 15.2506 12.151 14.811L12.1382 14.4041L11.7265 14.3915C11.2817 14.3779 11.1966 14.3449 11.0271 14.1205C10.9174 13.9752 10.9174 13.6193 11.0271 13.474C11.1969 13.2492 11.2814 13.2166 11.7298 13.2029L12.1447 13.1902V12.8395C12.1447 12.3605 12.2301 12.1729 12.5054 12.0469C12.6567 11.9777 12.959 12.0035 13.0849 12.0963Z"
          fill="#A07432"/>
</svg>
