<svg width="15" height="21" viewBox="0 0 15 21" fill="none" xmlns="http://www.w3.org/2000/svg">
    <path fill-rule="evenodd" clip-rule="evenodd"
          d="M7.17704 0.0603094C7.09506 0.094 6.54344 0.566981 5.95118 1.11137C5.0288 1.95925 4.86941 2.12589 4.83964 2.27352C4.7363 2.78535 5.07953 3.17288 5.63612 3.17288C5.91128 3.17288 6.01463 3.12049 6.39448 2.78843L6.70502 2.517V4.86461C6.70502 7.12672 6.70865 7.21892 6.80514 7.39629C6.94426 7.65223 7.11752 7.75385 7.44808 7.77341C7.80404 7.79447 8.02773 7.68719 8.18195 7.42133L8.29499 7.22653V4.87177V2.517L8.60553 2.78843C8.98538 3.12049 9.08873 3.17288 9.36389 3.17288C9.92048 3.17288 10.2637 2.78535 10.1604 2.27352C10.1306 2.12589 9.97116 1.95921 9.04883 1.11133C8.45657 0.56689 7.90008 0.0931397 7.81214 0.0584982C7.61255 -0.0201584 7.37112 -0.0194339 7.17704 0.0603094ZM12.0215 4.86696C11.8031 4.95228 9.86429 6.70247 9.73247 6.93332C9.41681 7.48613 9.98085 8.12467 10.6416 7.96256C10.7863 7.92701 10.9488 7.82308 11.1862 7.61419L11.5246 7.3165L11.5249 9.25978C11.5251 10.3954 11.5455 11.2698 11.5741 11.3635C11.601 11.4518 11.6988 11.5909 11.7913 11.6727C12.1779 12.0142 12.8065 11.9169 13.0337 11.4805C13.1046 11.3443 13.1146 11.0783 13.1146 9.32281V7.3204L13.4608 7.61809C13.8574 7.95907 14.086 8.04398 14.3999 7.9669C14.6351 7.90917 14.8313 7.77364 14.9291 7.60129C15.0226 7.4365 15.0238 7.09154 14.9315 6.93287C14.8923 6.86562 14.3834 6.37756 13.8006 5.84829C12.589 4.74801 12.48 4.68787 12.0215 4.86696ZM2.43199 6.27789C2.29351 6.30126 0.185665 8.17711 0.0677589 8.38192C-0.0239126 8.54114 -0.0222727 8.88615 0.0708893 9.05035C0.168672 9.22269 0.364884 9.35822 0.600099 9.41596C0.914018 9.49303 1.14258 9.40813 1.53917 9.06715L1.88544 8.76945V10.0473C1.88544 11.1337 1.89756 11.3485 1.96628 11.4805C2.19354 11.9169 2.82208 12.0142 3.20869 11.6727C3.30125 11.5909 3.39904 11.4518 3.42592 11.3635C3.45285 11.2753 3.47496 10.6546 3.47511 9.98431L3.4754 8.76556L3.81377 9.06325C4.28902 9.48139 4.586 9.54298 5.00913 9.31099C5.19833 9.2073 5.36076 8.92609 5.3624 8.69936C5.36299 8.61744 5.32031 8.4748 5.26754 8.38238C5.12798 8.13789 3.19537 6.39993 2.96771 6.31416C2.78451 6.24515 2.67128 6.23745 2.43199 6.27789ZM7.08135 9.01887C6.8983 9.11383 6.83048 9.22224 5.97742 10.783C5.23629 12.1389 5.04758 12.4502 4.95517 12.4691C4.89281 12.4819 4.00079 12.6028 2.97292 12.7377C1.81677 12.8894 1.0438 13.0114 0.946017 13.0575C0.766947 13.1418 0.608149 13.3531 0.564077 13.5656C0.492677 13.9098 0.512105 13.9325 2.08498 15.3464L3.571 16.6823L3.24665 18.3804C3.06827 19.3144 2.92125 20.1742 2.91986 20.2911C2.91653 20.5754 3.06629 20.7906 3.35646 20.9186C3.51426 20.9882 3.63738 21.0111 3.76806 20.9951C3.87732 20.9818 4.68964 20.6208 5.72903 20.1237L7.50348 19.2751L7.78744 19.4115C10.4222 20.6764 11.0734 20.9758 11.2323 20.9952C11.3626 21.0111 11.486 20.9881 11.6436 20.9186C11.9337 20.7906 12.0835 20.5754 12.0802 20.2911C12.0788 20.1742 11.9319 19.3144 11.7537 18.3804L11.4298 16.6823L12.917 15.3464C14.2388 14.1591 14.4077 13.9912 14.4365 13.8364C14.5056 13.4654 14.2582 13.0914 13.8806 12.9961C13.7736 12.969 12.8922 12.8443 11.9221 12.7189C10.952 12.5935 10.1075 12.4808 10.0454 12.4685C9.95352 12.4503 9.76402 12.1382 9.02225 10.7831C8.17043 9.22699 8.09942 9.11351 7.91777 9.01887C7.79594 8.95543 7.64032 8.91776 7.50001 8.91776C7.35999 8.91776 7.20353 8.95557 7.08135 9.01887Z"
          fill="#A07432"/>
</svg>
