<svg width="21" height="21" viewBox="0 0 21 21" fill="none" xmlns="http://www.w3.org/2000/svg">
    <path fill-rule="evenodd" clip-rule="evenodd"
          d="M2.99647 3.12746C1.53901 4.6162 0.521039 6.53688 0.152432 8.67962H1.45467C1.80718 6.89086 2.67706 5.28786 3.90197 4.03296L2.99647 3.12746ZM16.9394 17.0704C15.4492 18.5249 13.4682 19.4788 11.2682 19.6603V20.9446C13.8219 20.76 16.1225 19.662 17.8449 17.9759L16.9394 17.0704ZM18.9464 16.7111L18.0294 15.7941C19.0939 14.2908 19.7195 12.4546 19.7195 10.4723C19.7195 10.3867 19.7183 10.3013 19.716 10.2162H20.9969C20.999 10.3013 21 10.3867 21 10.4723C21 12.8087 20.2369 14.9669 18.9464 16.7111ZM5.17818 2.94295L4.26118 2.02595C5.81255 0.878143 7.6913 0.14757 9.73165 7.91852e-06V1.28437C8.04405 1.42361 6.48533 2.01736 5.17818 2.94295ZM9.73165 20.9446C7.17802 20.76 4.87751 19.662 3.15515 17.9759L4.06065 17.0704C5.55077 18.5249 7.5317 19.4788 9.73165 19.6603V20.9446ZM1.28049 10.4723C1.28049 12.4546 1.9061 14.2908 2.97064 15.7942L2.05364 16.7112C0.763094 14.9669 0 12.8087 0 10.4723C0 10.3867 0.00102466 10.3013 0.0030624 10.2162H1.28398C1.28166 10.3013 1.28049 10.3867 1.28049 10.4723ZM19.5453 8.67962C19.1928 6.89087 18.323 5.28787 17.0981 4.03298L18.0036 3.12748C19.461 4.61621 20.479 6.53689 20.8476 8.67962H19.5453ZM15.8218 2.94297L16.7388 2.02597C15.1874 0.87813 13.3086 0.147544 11.2682 0V1.28436C12.9559 1.42358 14.5147 2.01735 15.8218 2.94297Z"
          fill="url(#paint0_linear_0_3506)"/>
    <path fill-rule="evenodd" clip-rule="evenodd"
          d="M18.4391 10.4722C18.4391 14.8568 14.8847 18.4113 10.5001 18.4113C6.11546 18.4113 2.56104 14.8568 2.56104 10.4722C2.56104 6.08763 6.11546 2.5332 10.5001 2.5332C14.8847 2.5332 18.4391 6.08763 18.4391 10.4722ZM14.8536 8.45864C14.811 8.61314 14.7524 8.76232 14.6245 8.86887C14.5286 8.94879 14.4274 9.00739 14.3048 9.0287C14.2569 9.03936 14.2356 9.05534 14.2249 9.10862L14.1364 9.56857C13.9529 10.5222 13.77 11.473 13.5909 12.4278C13.5803 12.4864 13.559 12.513 13.495 12.513H7.56528H7.49069L7.47534 12.4317C7.44308 12.2605 7.41027 12.0864 7.37349 11.9163C7.19234 10.984 7.0112 10.0463 6.83538 9.11395C6.82473 9.066 6.80342 9.05001 6.7608 9.03936C6.43581 8.9701 6.21204 8.69306 6.21204 8.37339C6.21204 8.0484 6.44646 7.76071 6.7608 7.69677C7.06981 7.62751 7.38947 7.79267 7.53332 8.09102C7.66651 8.37872 7.58126 8.73035 7.31488 8.91682C7.25094 8.95944 7.25628 8.99141 7.28292 9.05001C7.44808 9.41762 7.65586 9.76394 7.94888 10.0463C8.0874 10.1795 8.2419 10.2967 8.41771 10.366C8.80131 10.5205 9.13697 10.4299 9.44065 10.1635C9.62179 10.0037 9.75498 9.81188 9.86686 9.6041C10.0853 9.20985 10.2132 8.78363 10.3144 8.3361C10.032 8.24553 9.82424 8.06971 9.71769 7.78734C9.64843 7.6062 9.64843 7.41973 9.70703 7.23326C9.82424 6.86565 10.1865 6.62058 10.5808 6.63656C10.9431 6.65254 11.2894 6.94024 11.3693 7.30253C11.4172 7.52629 11.3853 7.74473 11.268 7.94185C11.1615 8.11234 11.1135 8.14964 10.7406 8.34143C10.7584 8.40303 10.7758 8.46561 10.7932 8.52858C10.8331 8.67257 10.8736 8.81858 10.9217 8.95944C11.0549 9.35902 11.2254 9.73729 11.5185 10.057C11.7476 10.3074 12.0193 10.4619 12.3709 10.4299C12.5574 10.4139 12.7225 10.3393 12.877 10.2328C13.3299 9.91311 13.5963 9.45493 13.8147 8.96477C13.7978 8.94931 13.781 8.93422 13.7643 8.9193C13.7178 8.87768 13.6728 8.83743 13.6336 8.79429C13.4577 8.59184 13.4258 8.28815 13.5483 8.05373C13.6868 7.79267 13.9372 7.65416 14.2143 7.67547C14.518 7.69678 14.7843 7.9312 14.8376 8.23488C14.8376 8.24302 14.8438 8.25426 14.8491 8.26387L14.8536 8.27217V8.45864ZM13.2446 12.854H10.5381H10.5328H7.85827H7.72508C7.40009 12.8806 7.18165 13.2003 7.27222 13.5093C7.34148 13.7543 7.53862 13.8875 7.81566 13.8875H13.2499H13.3512C13.7241 13.8449 13.9319 13.44 13.7454 13.115C13.6389 12.9232 13.463 12.854 13.2446 12.854Z"
          fill="url(#paint1_linear_0_3506)"/>
    <defs>
        <linearGradient id="paint0_linear_0_3506" x1="0" y1="10.4723" x2="21" y2="10.4723"
                        gradientUnits="userSpaceOnUse">
            <stop stop-color="#FF8200"/>
            <stop offset="1" stop-color="#FFC800"/>
        </linearGradient>
        <linearGradient id="paint1_linear_0_3506" x1="2.56104" y1="10.4722" x2="18.4391" y2="10.4722"
                        gradientUnits="userSpaceOnUse">
            <stop stop-color="#FF8200"/>
            <stop offset="1" stop-color="#FFC800"/>
        </linearGradient>
    </defs>
</svg>
