<svg width="21" height="18" viewBox="0 0 21 18" fill="none" xmlns="http://www.w3.org/2000/svg">
    <path fill-rule="evenodd" clip-rule="evenodd"
          d="M9.99088 0.558975C9.28992 0.722487 8.65756 1.32994 8.47165 2.01839C8.20791 2.99503 8.79175 4.07033 9.7672 4.40448C9.87754 4.44229 9.96785 4.4919 9.96785 4.51475C9.96785 4.53759 9.89531 4.81402 9.80665 5.12905C9.32871 6.82732 8.703 8.00239 7.89393 8.72109C7.37322 9.18364 6.83683 9.404 6.23403 9.40309C5.87226 9.40254 5.59695 9.33895 5.22004 9.16883C4.367 8.7838 3.45132 7.79901 2.82766 6.59583C2.48744 5.93952 2.49073 5.99713 2.77873 5.73994C3.07301 5.47717 3.21331 5.25839 3.30227 4.92345C3.56244 3.94404 2.75369 2.9476 1.6954 2.94356C0.181679 2.93786 -0.573049 4.69429 0.512164 5.69722C0.718928 5.88833 0.985501 6.03117 1.26353 6.0999C1.3641 6.12477 1.46101 6.17006 1.47891 6.20058C1.49685 6.23107 1.86329 8.02876 2.29328 10.1954C2.72323 12.362 3.08475 14.1659 3.09661 14.204C3.11705 14.2697 3.50538 14.2733 10.5015 14.2733C17.4976 14.2733 17.8859 14.2697 17.9064 14.204C17.9182 14.1659 18.2797 12.362 18.7097 10.1954C19.1397 8.02876 19.5061 6.23107 19.5241 6.20058C19.542 6.17006 19.6389 6.12477 19.7394 6.0999C20.0175 6.03117 20.284 5.88833 20.4908 5.69722C21.2571 4.98905 21.1424 3.78017 20.2552 3.21219C19.1929 2.53209 17.7927 3.18547 17.6613 4.42262C17.609 4.91561 17.7989 5.36018 18.2242 5.73994C18.5122 5.99713 18.5155 5.93952 18.1753 6.59583C17.8393 7.24413 17.4097 7.84375 16.9516 8.30407C16.1926 9.06684 15.5223 9.40357 14.763 9.40357C13.2349 9.40357 11.974 7.89236 11.1963 5.12905C11.1077 4.81402 11.0351 4.53759 11.0351 4.51475C11.0351 4.4919 11.1254 4.44229 11.2358 4.40448C11.6979 4.24616 12.1388 3.86386 12.3728 3.41838C13.1714 1.89839 11.7197 0.155697 9.99088 0.558975ZM3.33121 15.1696C3.13113 15.2379 2.82688 15.4842 2.70233 15.6785C2.5789 15.8712 2.53543 16.0377 2.53403 16.3231C2.53186 16.7721 2.80262 17.1879 3.22834 17.3895L3.46158 17.5H10.5015H17.5414L17.7746 17.3895C18.2004 17.1879 18.4711 16.7721 18.4689 16.3231C18.4669 15.9041 18.3527 15.6607 18.0291 15.386C17.6711 15.082 18.2764 15.1044 10.4839 15.1079C4.43132 15.1105 3.47984 15.1188 3.33121 15.1696Z"
          fill="#A07432"/>
</svg>
