<svg width="17" height="18" viewBox="0 0 17 18" fill="none" xmlns="http://www.w3.org/2000/svg">
    <path fill-rule="evenodd" clip-rule="evenodd" d="M14 17.5C15.6569 17.5 17 16.1569 17 14.5V4.5H0V14.5C0 16.1569 1.34315 17.5 3 17.5H14ZM11.75 10.433C12.0833 10.2406 12.0833 9.75944 11.75 9.56699L7.25 6.96891C6.91667 6.77646 6.5 7.01702 6.5 7.40192L6.5 12.5981C6.5 12.983 6.91667 13.2235 7.25 13.0311L11.75 10.433Z" fill="#5D3800"/>
    <path d="M17 3.5C17 1.84315 15.6569 0.5 14 0.5H3C1.34315 0.5 0 1.84315 0 3.5H17Z" fill="#5D3800"/>
</svg>
