<svg width="27" height="17" viewBox="0 0 27 17" fill="none" xmlns="http://www.w3.org/2000/svg">
    <path d="M18.3099 11.8958V14.6084L15.3123 14.8609V12.1483L18.3099 11.8958Z" fill="#EED693"/>
    <path d="M6.48955 8.24316L3.81595 8.37893L3.25693 9.49766L2.706 8.43596L0 8.57987L1.89852 12.2212L1.44482 13.1335L1.8067 13.9237L1.09104 13.8477L0.00540133 16.0308L2.7006 15.8054L3.22452 14.7573L3.72683 15.7185L6.39233 15.4959L4.58833 12.0365L6.48955 8.24316Z"
          fill="#EED693"/>
    <path d="M25.113 9.09323L25.618 8.47141L24.6106 7.60521L26.1068 7.40699V5.86195L21.91 6.21223V4.09968L26.1068 3.7494V0.735352L18.9097 1.33816V8.46598H19.2202V9.41907L20.025 8.94388L19.8684 9.40006L23.1091 9.12853V11.2411L21.91 11.3443V10.0816L18.9097 10.307V14.6054L26.1068 14.0026V9.46252L25.113 9.09323Z"
          fill="#EED693"/>
    <path d="M14.71 1.53125L7.51294 2.13406V5.14811L11.7124 4.80054V6.91038L7.51294 7.26066V15.4013L14.71 14.7985V11.7817L10.5133 12.132V10.0222L11.0237 9.97873L11.1453 9.39221L11.7205 8.841L11.8501 9.76693L12.347 9.87012L14.71 9.6719V1.53125Z"
          fill="#EED693"/>
</svg>
