<svg width="26" height="28" viewBox="0 0 26 28" fill="none" xmlns="http://www.w3.org/2000/svg">
    <g clip-path="url(#clip0_2964_38332)">
        <path d="M25.0273 13.6358C25.0273 6.8181 19.6147 1.29126 12.938 1.29126C6.26122 1.29126 0.848633 6.8181 0.848633 13.6358V14.3445C0.848633 21.1622 6.26122 26.6891 12.938 26.6891C19.6147 26.6891 25.0273 21.1622 25.0273 14.3445V13.6358Z"
              fill="#B25D00"/>
        <path d="M12.9348 23.3752C18.3317 23.3752 22.7068 19.054 22.7068 13.7236C22.7068 8.39318 18.3317 4.07202 12.9348 4.07202C7.5379 4.07202 3.16284 8.39318 3.16284 13.7236C3.16284 19.054 7.5379 23.3752 12.9348 23.3752Z"
              fill="url(#paint0_linear_2964_38332)"/>
        <path d="M8.82243 19.0083C8.82243 13.6628 13.2125 9.32298 18.6275 9.32298C24.0424 9.32298 21.9333 9.75493 23.3349 10.5109C21.7217 7.35216 18.4026 5.19238 14.5811 5.19238C9.16622 5.19238 4.77612 9.52547 4.77612 14.8777C4.77612 20.2299 6.83894 21.7283 9.87367 23.3751C9.19928 22.0658 8.82243 20.5809 8.82243 19.0083Z"
              fill="url(#paint1_linear_2964_38332)"/>
        <path d="M4.88848 15.1206C4.88848 9.7886 9.26537 5.46901 14.6604 5.46901C20.0555 5.46901 19.282 6.33294 20.9878 7.77055C19.196 5.55001 16.439 4.11914 13.3381 4.11914C7.94305 4.11914 3.56616 8.43873 3.56616 13.7707C3.56616 19.1027 4.9017 19.3524 7.0108 21.1208C5.68187 19.4739 4.88848 17.3884 4.88848 15.1206Z"
              fill="#B25D00"/>
        <path d="M12.9347 1.33179C6.25695 1.33179 0.842041 6.67729 0.842041 13.2714C0.842041 19.8655 6.25695 25.211 12.9347 25.211C19.6124 25.211 25.0273 19.8655 25.0273 13.2714C25.0273 6.67729 19.6124 1.33179 12.9347 1.33179ZM12.9347 22.2345C7.92307 22.2345 3.86354 18.2254 3.86354 13.2714C3.86354 8.31738 7.92307 4.30826 12.9347 4.30826C17.9463 4.30826 22.0058 8.31738 22.0058 13.2714C22.0058 18.2254 17.9463 22.2345 12.9347 22.2345Z"
              fill="url(#paint2_linear_2964_38332)"/>
        <path d="M12.1611 4.34876L14.9512 1.50052C14.2967 1.39253 13.6223 1.33179 12.9347 1.33179C12.2471 1.33179 11.6256 1.38579 10.9975 1.48703L0.941215 11.7528C0.875099 12.2523 0.842041 12.7584 0.842041 13.2781C0.842041 14.0948 0.927982 14.8845 1.08005 15.6539L3.87015 12.8057C4.10816 8.33087 7.66522 4.72673 12.1545 4.34876H12.1611Z"
              fill="#FFCE80"/>
        <path d="M14.7991 4.50366C15.0305 4.5509 15.2553 4.6049 15.4801 4.67239L17.7743 2.33037C17.5759 2.24263 17.371 2.16165 17.1727 2.0874L14.8057 4.50366H14.7991Z"
              fill="#FFE589"/>
        <path d="M2.01886 18.4144L4.3131 16.0723C4.24037 15.8563 4.17425 15.6336 4.12136 15.4109L1.75439 17.8272C1.84035 18.0296 1.9263 18.2254 2.01886 18.4144Z"
              fill="#FFCE80"/>
        <path d="M13.9198 22.1802C13.6289 22.2139 13.3314 22.2274 13.0272 22.2342L10.3694 24.9474C10.6074 24.9947 10.8454 25.0419 11.0834 25.0756L13.9198 22.1802Z"
              fill="#FFDD71"/>
        <path d="M24.8156 11.0574C24.7694 10.8212 24.7165 10.5849 24.657 10.3555L21.9991 13.0687C21.9991 13.1362 21.9991 13.2037 21.9991 13.2779C21.9991 13.5074 21.9925 13.7301 21.9727 13.9529L24.809 11.0574H24.8156Z"
              fill="#FFEF8F"/>
        <path d="M17.6753 5.63122C18.3497 6.04293 18.9712 6.53562 19.5133 7.10256L21.6158 4.95628C21.0671 4.39608 20.4654 3.88988 19.8175 3.45117L17.6819 5.63122H17.6753Z"
              fill="#FFE686"/>
        <path d="M5.35771 18.205L3.22217 20.385C3.69159 21.0127 4.22052 21.5932 4.80895 22.1129L6.91143 19.9666C6.323 19.4469 5.80069 18.8529 5.36432 18.1982L5.35771 18.205Z"
              fill="#FFC670"/>
        <path d="M21.8803 5.2395L19.7778 7.3858C20.7894 8.52644 21.5101 9.92355 21.8274 11.4624L24.2341 9.00564C23.6919 7.60178 22.8853 6.32615 21.8803 5.2395Z"
              fill="#FFEB75"/>
        <path d="M11.3944 22.1064C9.82079 21.8431 8.38607 21.175 7.20259 20.2166L5.1001 22.3629C6.2373 23.3213 7.55301 24.0704 8.98773 24.5631L11.3944 22.1064Z"
              fill="#FFD370"/>
        <path d="M18.5809 11.5772C18.4024 11.0575 18.2106 10.3354 17.5627 10.3016C16.4453 10.3421 16.5313 11.3748 16.9743 12.1374C15.9362 14.5065 13.9726 14.25 13.4899 11.719C14.3164 11.3478 14.4618 10.7673 14.1445 10.0586C13.9792 9.54569 13.6354 8.999 13.0536 8.9855C12.1808 8.92476 11.6255 9.9439 12.0817 10.6796C12.2139 10.9968 12.3329 11.3613 12.6238 11.5435C12.1544 13.6965 10.4618 14.8169 9.18578 12.4884C9.80066 12.043 9.56925 11.422 9.28496 10.8551C8.96099 9.95741 7.61222 10.2341 7.63205 11.1723C7.73784 11.6987 7.92957 12.3872 8.49816 12.5694C8.73618 13.8518 8.98082 15.1342 9.21884 16.4165C9.21884 16.4165 9.22545 16.4165 9.23206 16.4165C9.23206 16.43 9.23207 16.4503 9.23868 16.4638C9.23868 16.4638 9.24529 16.4638 9.2519 16.4638C9.2519 16.4773 9.25189 16.4975 9.2585 16.511C9.2585 16.511 9.26512 16.511 9.27174 16.511C9.27174 16.5245 9.27173 16.5448 9.27834 16.5583C9.27834 16.5583 9.28495 16.5583 9.29156 16.5583C9.29156 16.5718 9.29156 16.592 9.29818 16.6055C9.29818 16.6055 9.30478 16.6055 9.3114 16.6055C9.3114 16.619 9.3114 16.6393 9.31801 16.6528C9.31801 16.6528 9.32462 16.6528 9.33123 16.6528C9.33123 16.6663 9.33124 16.6865 9.33785 16.7C9.33785 16.7 9.34446 16.7 9.35107 16.7C9.35107 16.7135 9.35106 16.7338 9.35767 16.7473C9.35767 16.7473 9.3643 16.7473 9.37091 16.7473C9.37091 16.7608 9.3709 16.781 9.37751 16.7945C9.37751 16.7945 9.38412 16.7945 9.39073 16.7945C9.39073 16.808 9.39074 16.8282 9.39735 16.8417C9.39735 16.8417 9.40396 16.8417 9.41057 16.8417C9.41057 16.8552 9.41058 16.8687 9.41719 16.8755C8.90809 16.9902 8.80892 17.5909 9.07339 18.0026C9.21223 18.3806 9.3709 18.7586 9.86016 18.7383C12.1478 18.7383 14.442 18.7451 16.7296 18.7383C17.6552 18.5898 17.2321 17.4492 16.809 16.997C16.9015 16.997 17.0205 17.0172 17.0271 16.889C17.2916 15.4851 17.5561 14.088 17.8139 12.6842C17.8272 12.6167 17.8536 12.5964 17.9131 12.5829C18.3495 12.5019 18.6801 12.0092 18.5743 11.5705L18.5809 11.5772Z"
              fill="#B25D00"/>
        <path d="M18.3366 11.2465C18.2837 11.4422 18.211 11.6312 18.0523 11.7662C17.9333 11.8674 17.8076 11.9416 17.6556 11.9686C17.5961 11.9821 17.5696 12.0024 17.5564 12.0699C17.2919 13.4738 17.0275 14.8709 16.7696 16.2747C16.7564 16.349 16.73 16.3827 16.6506 16.3827C14.1977 16.3827 11.7448 16.3827 9.29189 16.3827C9.26545 16.3827 9.23901 16.3827 9.19934 16.3827C9.15305 16.133 9.10678 15.8765 9.05388 15.6268C8.82909 14.4457 8.60429 13.2578 8.3861 12.0766C8.37288 12.0159 8.34644 11.9956 8.29355 11.9821C7.89024 11.8944 7.61255 11.5434 7.61255 11.1385C7.61255 10.7268 7.90346 10.3623 8.29355 10.2813C8.67702 10.1936 9.07372 10.4028 9.25223 10.7808C9.41752 11.1452 9.31173 11.5907 8.98115 11.8269C8.90181 11.8809 8.90843 11.9214 8.94149 11.9956C9.14645 12.4613 9.4043 12.9001 9.76794 13.2578C9.93984 13.4265 10.1316 13.575 10.3497 13.6627C10.8258 13.8585 11.2423 13.7437 11.6192 13.4063C11.844 13.2038 12.0093 12.9608 12.1481 12.6976C12.4192 12.1981 12.5779 11.6582 12.7035 11.0912C12.3531 10.9765 12.0952 10.7538 11.963 10.396C11.877 10.1666 11.877 9.93034 11.9498 9.69412C12.0952 9.22841 12.5448 8.91794 13.0341 8.93819C13.4837 8.95844 13.9134 9.3229 14.0126 9.78186C14.0721 10.0653 14.0324 10.3421 13.887 10.5918C13.7547 10.8078 13.6952 10.855 13.2324 11.098C13.3051 11.3545 13.3713 11.6244 13.4572 11.8809C13.6225 12.3871 13.8341 12.8663 14.1977 13.2713C14.482 13.5885 14.8192 13.7842 15.2556 13.7437C15.487 13.7235 15.6919 13.629 15.8837 13.494C16.4457 13.089 16.7762 12.5086 17.0473 11.8877C16.968 11.8134 16.8886 11.7459 16.8225 11.6717C16.6043 11.4152 16.5647 11.0305 16.7167 10.7335C16.8886 10.4028 17.1994 10.2273 17.5432 10.2543C17.92 10.2813 18.2506 10.5783 18.3167 10.963C18.3167 10.9765 18.33 10.9967 18.3366 11.0102V11.2465Z"
              fill="url(#paint3_linear_2964_38332)"/>
        <path d="M12.9811 16.8142C14.0984 16.8142 15.2224 16.8142 16.3398 16.8142C16.6108 16.8142 16.829 16.9019 16.9613 17.1449C17.1927 17.5566 16.9348 18.0696 16.472 18.1236C16.4323 18.1236 16.3861 18.1236 16.3464 18.1236C14.0984 18.1236 11.8505 18.1236 9.60255 18.1236C9.25874 18.1236 9.0141 17.9549 8.92815 17.6444C8.81575 17.2529 9.08683 16.848 9.49014 16.8142C9.54303 16.8142 9.60253 16.8142 9.65543 16.8142C10.7596 16.8142 11.8703 16.8142 12.9745 16.8142H12.9811Z"
              fill="url(#paint4_linear_2964_38332)"/>
        <path d="M8.9943 10.4298L7.79761 11.6515C7.91662 11.8067 8.09512 11.9214 8.30008 11.9687C8.30669 11.9687 8.31331 11.9687 8.31992 11.9687L9.31166 10.9563C9.29844 10.8888 9.27861 10.8281 9.25216 10.7606C9.19266 10.6256 9.1001 10.5108 8.9877 10.4231L8.9943 10.4298Z"
              fill="#FFE589"/>
        <path d="M13.2389 11.0977C13.7017 10.848 13.7612 10.8075 13.8935 10.5915C14.0455 10.3418 14.0852 10.0651 14.0191 9.7816C13.9993 9.67361 13.953 9.57911 13.9001 9.48462L12.4389 10.9762C12.5183 11.0235 12.6108 11.064 12.7034 11.091C12.5778 11.6579 12.4125 12.1979 12.148 12.6973C12.0092 12.9605 11.8439 13.2103 11.6191 13.406C11.2422 13.7435 10.8257 13.8515 10.3496 13.6625C10.224 13.6085 10.1116 13.541 10.0058 13.46L8.86865 14.6209C8.92816 14.9516 8.99428 15.2891 9.05378 15.6198C9.10006 15.8695 9.14634 16.1192 9.19923 16.3757C9.23229 16.3757 9.26534 16.3757 9.29179 16.3757C9.66865 16.3757 10.0455 16.3757 10.429 16.3757L13.8869 12.8458C13.7017 12.5488 13.5695 12.2181 13.4637 11.8806C13.3778 11.6242 13.3117 11.3542 13.2389 11.0977Z"
              fill="#FFE686"/>
        <path d="M16.6569 16.3757C16.7363 16.3757 16.7627 16.3487 16.7759 16.2677C17.0404 14.8638 17.3049 13.4667 17.5627 12.0628C17.5759 11.9953 17.6024 11.9751 17.6619 11.9616C17.814 11.9346 17.9396 11.8603 18.0586 11.7591C18.2173 11.6174 18.29 11.4351 18.3429 11.2394V11.0032C18.3429 10.9897 18.3297 10.9694 18.3231 10.9559C18.2569 10.5712 17.9264 10.2743 17.5495 10.2473C17.2057 10.2203 16.8883 10.4025 16.723 10.7265C16.571 11.0234 16.6106 11.4081 16.8288 11.6646C16.8949 11.7389 16.9743 11.8064 17.0536 11.8806C16.7892 12.5015 16.4586 13.082 15.89 13.4869C15.7049 13.6219 15.4933 13.7164 15.2619 13.7367C14.8255 13.7772 14.4883 13.5814 14.204 13.2642C14.171 13.2305 14.1445 13.1967 14.1181 13.1562L10.9709 16.3689C12.8685 16.3689 14.766 16.3689 16.6569 16.3689V16.3757Z"
              fill="#FFEB75"/>
        <path d="M9.66211 16.8146C9.60922 16.8146 9.54972 16.8146 9.49682 16.8146C9.10013 16.8416 8.82244 17.2533 8.93484 17.6448C8.95467 17.7123 8.98111 17.7663 9.01417 17.8203L10.0059 16.8079C9.89352 16.8079 9.78113 16.8079 9.66873 16.8079L9.66211 16.8146Z"
              fill="#FFED83"/>
        <path d="M16.3397 16.8146C15.2223 16.8146 14.0983 16.8146 12.981 16.8146C12.1678 16.8146 11.3545 16.8146 10.5347 16.8146L9.30493 18.07C9.39088 18.1037 9.49666 18.124 9.60906 18.124C11.5066 18.124 13.4041 18.124 15.295 18.124L16.5579 16.8349C16.4918 16.8214 16.419 16.8079 16.3397 16.8079V16.8146Z"
              fill="#FFEB75"/>
    </g>
    <defs>
        <linearGradient id="paint0_linear_2964_38332" x1="3.16284" y1="13.7236" x2="22.7068" y2="13.7236"
                        gradientUnits="userSpaceOnUse">
            <stop stop-color="#FF8200"/>
            <stop offset="1" stop-color="#FFC800"/>
        </linearGradient>
        <linearGradient id="paint1_linear_2964_38332" x1="4.76951" y1="14.2838" x2="23.3283" y2="14.2838"
                        gradientUnits="userSpaceOnUse">
            <stop stop-color="#FFA03D"/>
            <stop offset="1" stop-color="#FFDD63"/>
        </linearGradient>
        <linearGradient id="paint2_linear_2964_38332" x1="0.848653" y1="13.2781" x2="25.0273" y2="13.2781"
                        gradientUnits="userSpaceOnUse">
            <stop stop-color="#FFA531"/>
            <stop offset="1" stop-color="#FFE531"/>
        </linearGradient>
        <linearGradient id="paint3_linear_2964_38332" x1="7.61916" y1="12.6571" x2="18.3366" y2="12.6571"
                        gradientUnits="userSpaceOnUse">
            <stop stop-color="#FFCC31"/>
            <stop offset="1" stop-color="#FFFF31"/>
        </linearGradient>
        <linearGradient id="paint4_linear_2964_38332" x1="8.90832" y1="17.4689" x2="17.0472" y2="17.4689"
                        gradientUnits="userSpaceOnUse">
            <stop stop-color="#FFCC31"/>
            <stop offset="1" stop-color="#FFFF31"/>
        </linearGradient>
        <clipPath id="clip0_2964_38332">
            <rect width="25.2" height="26.32" fill="white" transform="translate(0.400146 0.840088)"/>
        </clipPath>
    </defs>
</svg>
