<svg width="19" height="15" viewBox="0 0 19 15" fill="none" xmlns="http://www.w3.org/2000/svg">
    <path d="M6.48686 6.70679L3.81326 6.84256L3.25693 7.96128L2.70601 6.89958L0 7.04349L1.89852 10.6848L1.44212 11.6026L1.80131 12.3873L1.08834 12.3113L0.00540648 14.4944L2.69791 14.2691L3.22452 13.2209L3.72684 14.1822L6.38963 13.9595L4.58833 10.5001L6.48686 6.70679Z"
          fill="#5D3800"/>
    <path d="M7.8562 0.602626V2.81021L8.12357 2.91068L8.57456 3.56508L7.8562 3.55422V13.8699L10.8566 13.6173V0.350098L7.8562 0.602626Z"
          fill="#5D3800"/>
    <path d="M18.4722 11.2633L18.6018 10.7718L17.5378 10.5845L17.9699 10.2097L18.0698 9.64496H18.6532V0L11.4561 0.602808V13.8701L18.6532 13.2672V11.2633H18.4722ZM15.6528 10.5057L14.4537 10.6035V8.09992L13.9838 7.92613L14.3592 7.46181L13.6057 6.81555L14.4537 6.70422V3.36976L15.6528 3.27201V10.5084V10.5057Z"
          fill="#5D3800"/>
</svg>
