<svg width="16" height="15" viewBox="0 0 16 15" fill="none" xmlns="http://www.w3.org/2000/svg">
    <path d="M6.63019 6.78125L3.89865 6.9197L3.33027 8.06052L2.76465 6.97785L0 7.12183L1.94243 10.835L1.61409 11.4941L1.64168 11.6076L2.02796 12.4494L1.18367 12.3607L0.00551944 14.7227L2.75913 14.4929L3.29716 13.424L3.81036 14.4043L6.53086 14.1772L4.69052 10.6495L6.63019 6.78125Z" fill="#5D3800"/>
    <path d="M14.317 8.53677L14.8302 7.8999L13.801 7.01937L15.1585 6.83939V5.22507L10.8681 5.58227V3.43077L15.1585 3.07357V0L7.80542 0.614714V7.76699H8.17238V8.73891L8.9946 8.25156L8.79595 8.83305L12.0931 8.55892V10.7104L10.8681 10.8156V9.53084L7.80542 9.75789V14.144L15.1585 13.5292V8.84967L14.317 8.53677Z" fill="#5D3800"/>
</svg>
